<?xml version="1.0" encoding="UTF-8" standalone="no"?><svg width="140" height="140" viewBox="0 0 140 140" xmlns="http://www.w3.org/2000/svg" xmlns:xlink="http://www.w3.org/1999/xlink"><svg width="35" height="35" viewBox="0 0 100 100" id="side_nav_icons_dashboard" x="35"><title>side_nav_icons_dashboard</title><defs><linearGradient x1="49.761%" y1="34.495%" x2="49.823%" y2="69.883%" id="aa"><stop stop-color="#90D54A" offset="0%"/><stop stop-color="#85C948" offset="8.002%"/><stop stop-color="#6DB042" offset="28.5%"/><stop stop-color="#5FA13F" offset="47.23%"/><stop stop-color="#5A9C3E" offset="62.44%"/><stop stop-color="#59963E" offset="67.97%"/><stop stop-color="#588B3D" offset="82.77%"/><stop stop-color="#57883D" offset="100%"/></linearGradient></defs><g transform="translate(30 33)" fill="none" fill-rule="evenodd"><path fill="#CCC" d="M8.2 10.5h5.125v21.618H8.2zM18.45 17.088h5.125v15.235H18.45zM28.7 5.97h5.125v26.354H28.7z"/><path d="M1.845 26.353L.82 24.5l7.995-5.765 5.74 4.324 10.66-10.295 6.355 7.41 3.485-2.263 4.305 3.912-1.23 1.647-3.28-3.088-3.69 2.47-5.945-7.205-10.66 10.088-5.74-4.53-6.97 5.148z" fill="url(#aa)"/><path d="M.82 1.647v31.706h37.515" stroke="#CCC" stroke-width="2.574"/></g></svg><svg width="35" height="35" viewBox="0 0 100 100" id="side_nav_icons_devices" x="70" y="70"><title>side_nav_icons_devices</title><defs><linearGradient x1="53.567%" y1="-10.628%" x2="53.567%" y2="86.239%" id="ba"><stop stop-color="#B7D552" offset="0%"/><stop stop-color="#56883D" offset="100%"/></linearGradient><linearGradient x1="53.567%" y1="-6.336%" x2="53.567%" y2="88.053%" id="bb"><stop stop-color="#B7D552" offset="0%"/><stop stop-color="#56883D" offset="100%"/></linearGradient><linearGradient x1="53.567%" y1="-9.815%" x2="53.567%" y2="84.574%" id="bc"><stop stop-color="#B7D552" offset="0%"/><stop stop-color="#56883D" offset="100%"/></linearGradient></defs><g transform="translate(29.167 30)" fill="none" fill-rule="evenodd"><path d="M39.087 3.2v9H2.58v-9h36.507zm0-1.4H2.58c-.794 0-1.19.6-1.19 1.2v9.2c0 .8.594 1.2 1.19 1.2h36.507c.794 0 1.19-1 1.19-1.8V2.8c0-.8-.594-1-1.19-1z" fill="#CCC"/><path d="M6.944 9.8c.993 0 1.985-.8 1.985-2s-.795-2-1.986-2c-1.19 0-1.984.8-1.984 2s.992 2 1.984 2z" fill="url(#ba)"/><path d="M39.087 16v9H2.58v-9h36.507zm0-1.2H2.58c-.794 0-1.19.6-1.19 1.2v9.2c0 .8.594 1.2 1.19 1.2h36.507c.794 0 1.19-1 1.19-1.8v-9c0-.6-.594-.8-1.19-.8z" fill="#CCC"/><path d="M6.944 22.6c.993 0 1.985-.8 1.985-2s-.795-2-1.986-2c-1.19 0-1.984.8-1.984 2s.992 2 1.984 2z" fill="url(#bb)"/><path d="M39.087 29.2v9H2.58v-9h36.507zm0-1.4H2.58c-.794 0-1.19.6-1.19 1.2v9.2c0 .8.594 1.2 1.19 1.2h36.507c.794 0 1.19-1 1.19-1.8v-9.2c0-.4-.594-.6-1.19-.6z" fill="#CCC"/><path d="M6.944 35.8c.993 0 1.985-.8 1.985-2s-.795-2-1.986-2c-1.19 0-1.984.8-1.984 2s.992 2 1.984 2z" fill="url(#bc)"/></g></svg><svg width="35" height="35" viewBox="0 0 100 100" id="side_nav_icons_incident" y="35"><title>side_nav_icons_incident</title><defs><linearGradient x1="48.783%" y1="20.95%" x2="49.391%" y2="126.435%" id="ca"><stop stop-color="#90D54A" offset="0%"/><stop stop-color="#85C948" offset="8.002%"/><stop stop-color="#6DB042" offset="28.5%"/><stop stop-color="#5FA13F" offset="47.23%"/><stop stop-color="#5A9C3E" offset="62.44%"/><stop stop-color="#59963E" offset="67.97%"/><stop stop-color="#588B3D" offset="82.77%"/><stop stop-color="#57883D" offset="100%"/></linearGradient><linearGradient x1="48.943%" y1="49.325%" x2="49.174%" y2="89.115%" id="cb"><stop stop-color="#90D54A" offset="0%"/><stop stop-color="#85C948" offset="8.002%"/><stop stop-color="#6DB042" offset="28.5%"/><stop stop-color="#5FA13F" offset="47.23%"/><stop stop-color="#5A9C3E" offset="62.44%"/><stop stop-color="#59963E" offset="67.97%"/><stop stop-color="#588B3D" offset="82.77%"/><stop stop-color="#57883D" offset="100%"/></linearGradient></defs><g transform="translate(27 27)" fill="none" fill-rule="evenodd"><path d="M23 44.536c-.8 0-1.6-.418-2.2-1.254l-2.4-3.346c-.4-.627-1.2-.627-1.6-.627-.4 0-.8 0-1 .208l-5.4 3.137c-1.2.836-2.4.836-3 0-.4-.628-.4-1.255-.2-2.3l2.4-7.11c.2-.418.2-.836 0-1.045-.2-.21-.4-.418-.8-.418l-5-.627c-1.8-.42-2.2-1.255-2.4-1.882-.2-.628 0-1.464 1.2-2.51l3.8-3.345c.4-.21.6-.627.6-.836 0-.418-.2-.837-.6-1.046l-4-3.345c-.8-.626-1.2-1.672-.8-2.508.2-.627 1-1.255 1.8-1.255h.2L7 13.382c1.2-.21 1.8-1.464 1.8-2.3l-.2-3.346c0-2.927 2.2-3.554 4-2.718l3.6 1.673c.2 0 .4.21.8.21.8 0 1.4-.418 1.6-.836l2.2-3.555c1.4-1.883 3.8-1.883 4.8 0l2.2 3.763c.4.836 1.4 1.045 2 .627L36 2.927c1.2-.836 2.4-.836 3 0 .4.628.4 1.255 0 2.3l-2.6 7.11c-.2.418-.2.627 0 .836 0 .21.2.418.6.418l5.2.628c1.8.21 2.2 1.046 2.4 1.673.2.628 0 1.465-1.2 2.51l-3.8 3.345c-.4.21-.4.628-.4.837 0 .418.2.836.4 1.045l3.8 3.346c1.2 1.045 1.2 2.09 1.2 2.718-.2.42-.6 1.465-2.2 1.674l-3.6 1.045c-.8.208-1.6 1.463-1.6 2.3l.2 3.554c0 .836-.2 1.463-.6 2.09-.4.628-1.2.837-1.8.837-.4 0-1-.208-1.4-.417l-4-1.882c-1-.626-1.8-.208-2.2.42l-2.2 3.972c-.4.836-1.2 1.254-2.2 1.254zm-6.4-7.527c1.4 0 2.6.626 3.4 1.672l2.4 3.554c.4.42.6.628.8 0l2.2-3.763c.8-1.673 3.4-2.51 5.2-1.464l3.8 1.88c.2 0 .4.21.4.21.2 0 .2-.418.2-.627l-.2-3.555c0-1.882 1.4-3.973 3-4.39l3.6-1.046c.4 0 .4-.21.6-.21l-.4-.417L38 25.09c-.8-.835-1.2-1.88-1.2-2.717 0-1.046.4-1.882 1.2-2.3l4-3.555.2-.21H42l-5-.626c-1 0-1.8-.418-2.4-1.255-.6-.836-.6-1.882-.2-2.927l2.4-6.482-5.6 3.555c-.6.418-1.2.627-2 .627-1.4 0-2.6-.836-3.2-2.09l-2.2-3.765c-.2-.21-.2-.418-.4-.418 0 0-.4.21-.6.418L20.6 6.9c-.8 1.673-3.2 2.51-5.4 1.673L11.6 6.9c-.2 0-.4-.21-.4-.21-.2 0-.4.628-.4.837l.2 3.555c0 2.09-1.4 3.973-3.4 4.39L4 16.52l4 3.346c.8.627 1.4 1.672 1.4 2.718 0 1.045-.6 1.882-1.4 2.51l-4 3.553-.2.21H4l4.8.627c1 .21 2 .627 2.4 1.463.6.837.6 1.882.2 2.928l-2.2 6.69 5.2-2.927c1-.418 1.6-.627 2.2-.627z" fill="#CCC"/><path d="M24.8 32.41h-4.6v-4.183h4.6v4.182z" fill="url(#ca)"/><path d="M24.8 25.3h-4.6V14.218h4.6V25.3z" fill="url(#cb)"/></g></svg><svg width="35" height="35" viewBox="0 0 100 100" id="side_nav_icons_syslog" x="35" y="35"><title>side_nav_icons_syslog</title><defs><linearGradient x1="50.197%" y1=".019%" x2="50.197%" y2="100.737%" id="da"><stop stop-color="#90D54A" offset="0%"/><stop stop-color="#85C948" offset="8.002%"/><stop stop-color="#6DB042" offset="28.5%"/><stop stop-color="#5FA13F" offset="47.23%"/><stop stop-color="#5A9C3E" offset="62.44%"/><stop stop-color="#59963E" offset="67.97%"/><stop stop-color="#588B3D" offset="82.77%"/><stop stop-color="#57883D" offset="100%"/></linearGradient></defs><g transform="translate(26 26)" fill="none" fill-rule="evenodd"><path d="M24 46.33C11.687 46.33 1.67 36.313 1.67 24 1.67 11.687 11.687 1.67 24 1.67c12.313 0 22.33 10.017 22.33 22.33 0 12.313-10.017 22.33-22.33 22.33zm0-40.695c-10.435 0-18.574 8.348-18.574 18.574 0 10.225 8.14 18.78 18.574 18.78 10.435 0 18.574-8.347 18.574-18.573S34.434 5.635 24 5.635z" fill="#CCC"/><path d="M24.626 11.27H20.66v13.773l8.975 8.766 2.713-2.714-7.93-7.722V11.27h.208z" fill="url(#da)"/></g></svg><svg width="35" height="35" viewBox="0 0 100 100" id="top_nav_icon_asset" x="70"><title>top_nav_icon_asset</title><defs><linearGradient x1="50%" y1="0%" x2="50%" y2="100%" id="ea"><stop stop-color="#DDE1D8" offset="0%"/><stop stop-color="#A4A4A4" offset="100%"/></linearGradient><linearGradient x1="50%" y1="-93.647%" x2="50%" y2="100%" id="eb"><stop stop-color="#11311B10A" offset="0%"/><stop stop-color="#DDE1D8" offset="17.717%"/><stop stop-color="#BFC1BD" offset="68.922%"/><stop stop-color="#A4A4A4" offset="100%"/></linearGradient><radialGradient cx="33.337%" cy="18.347%" fx="33.337%" fy="18.347%" r="81.653%" id="ec"><stop stop-color="#B4EE42" offset="0%"/><stop stop-color="#466D01" offset="100%"/></radialGradient><filter x="-50%" y="-50%" width="200%" height="200%" filterUnits="objectBoundingBox" id="ed"><feOffset in="SourceAlpha" result="shadowOffsetOuter1"/><feGaussianBlur stdDeviation="1" in="shadowOffsetOuter1" result="shadowBlurOuter1"/><feColorMatrix values="0 0 0 0 0 0 0 0 0 0 0 0 0 0 0 0 0 0 0.35 0" in="shadowBlurOuter1" result="shadowMatrixOuter1"/><feMerge><feMergeNode in="shadowMatrixOuter1"/><feMergeNode in="SourceGraphic"/></feMerge></filter><filter x="-50%" y="-50%" width="200%" height="200%" filterUnits="objectBoundingBox" id="ee"><feOffset in="SourceAlpha" result="shadowOffsetOuter1"/><feGaussianBlur stdDeviation="1" in="shadowOffsetOuter1" result="shadowBlurOuter1"/><feColorMatrix values="0 0 0 0 0 0 0 0 0 0 0 0 0 0 0 0 0 0 0.35 0" in="shadowBlurOuter1" result="shadowMatrixOuter1"/><feMerge><feMergeNode in="shadowMatrixOuter1"/><feMergeNode in="SourceGraphic"/></feMerge></filter><radialGradient cx="55.544%" fx="55.544%" fy="50%" r="64.565%" id="ef"><stop stop-color="#A0D790" stop-opacity=".833" offset="0%"/><stop stop-color="#6C0" offset="100%"/></radialGradient><filter x="-50%" y="-50%" width="200%" height="200%" filterUnits="objectBoundingBox" id="eg"><feOffset dx="2" dy="2" in="SourceAlpha" result="shadowOffsetOuter1"/><feGaussianBlur stdDeviation="2.5" in="shadowOffsetOuter1" result="shadowBlurOuter1"/><feColorMatrix values="0 0 0 0 0 0 0 0 0 0 0 0 0 0 0 0 0 0 0.35 0" in="shadowBlurOuter1" result="shadowMatrixOuter1"/><feMerge><feMergeNode in="shadowMatrixOuter1"/><feMergeNode in="SourceGraphic"/></feMerge></filter></defs><g transform="translate(20 23)" fill="none" fill-rule="evenodd"><path d="M52.574 10.254l7.33 29.71H0l7.33-29.71h45.244z" fill="url(#ea)"/><rect fill="url(#eb)" y="34.981" width="59.904" height="19.928" rx="4.982"/><ellipse fill="url(#ec)" filter="url(#ed)" cx="8.736" cy="44.945" rx="2.496" ry="2.491"/><ellipse fill="url(#ec)" filter="url(#ee)" cx="18.72" cy="44.945" rx="2.496" ry="2.491"/><path d="M49.4 18.31c-.322-1.59-.95-3.07-1.817-4.377l3.098-3.098-3.522-3.523-3.1 3.102c-1.312-.868-2.796-1.494-4.39-1.817v-2.74h-4.993v2.74c-1.593.322-3.076.948-4.386 1.814l-3.1-3.098-3.53 3.53 3.096 3.096c-.866 1.306-1.492 2.785-1.816 4.373h-2.745v4.983h2.745c.324 1.59.95 3.07 1.82 4.378l-3.1 3.1 3.523 3.522 3.102-3.1c1.31.866 2.795 1.493 4.39 1.816v2.74h4.992v-2.74c1.593-.323 3.076-.95 4.386-1.814l3.098 3.098 3.53-3.53-3.094-3.095c.866-1.306 1.492-2.785 1.815-4.374h2.747V18.31H49.4zm-12.23 9.965c4.136 0 7.49-3.346 7.49-7.473s-3.354-7.473-7.49-7.473c-4.135 0-7.487 3.345-7.487 7.472 0 4.127 3.352 7.473 7.488 7.473z" fill="url(#ef)" filter="url(#eg)" transform="rotate(45 36.44 20.802)"/></g></svg><svg width="35" height="35" viewBox="0 0 100 100" id="top_nav_icon_attack_discovery" x="70" y="35"><title>top_nav_icon_attack_discovery</title><defs><linearGradient x1="50%" y1="0%" x2="50%" y2="100%" id="fa"><stop stop-color="#696969" offset="0%"/><stop stop-color="#343434" offset="65.767%"/><stop stop-color="#4C4B4B" offset="100%"/></linearGradient><filter x="-50%" y="-50%" width="200%" height="200%" filterUnits="objectBoundingBox" id="fb"><feOffset dy="5" in="SourceAlpha" result="shadowOffsetOuter1"/><feGaussianBlur stdDeviation="4.5" in="shadowOffsetOuter1" result="shadowBlurOuter1"/><feColorMatrix values="0 0 0 0 0 0 0 0 0 0 0 0 0 0 0 0 0 0 0.35 0" in="shadowBlurOuter1" result="shadowMatrixOuter1"/><feOffset in="SourceAlpha" result="shadowOffsetOuter2"/><feGaussianBlur stdDeviation="9" in="shadowOffsetOuter2" result="shadowBlurOuter2"/><feColorMatrix values="0 0 0 0 0.4 0 0 0 0 0.8 0 0 0 0 0 0 0 0 0.35 0" in="shadowBlurOuter2" result="shadowMatrixOuter2"/><feOffset dy="3" in="SourceAlpha" result="shadowOffsetInner1"/><feGaussianBlur stdDeviation="1.5" in="shadowOffsetInner1" result="shadowBlurInner1"/><feComposite in="shadowBlurInner1" in2="SourceAlpha" operator="arithmetic" k2="-1" k3="1" result="shadowInnerInner1"/><feColorMatrix values="0 0 0 0 1 0 0 0 0 1 0 0 0 0 1 0 0 0 0.35 0" in="shadowInnerInner1" result="shadowMatrixInner1"/><feMerge><feMergeNode in="shadowMatrixOuter1"/><feMergeNode in="shadowMatrixOuter2"/><feMergeNode in="SourceGraphic"/><feMergeNode in="shadowMatrixInner1"/></feMerge></filter><filter x="-50%" y="-50%" width="200%" height="200%" filterUnits="objectBoundingBox" id="fc"><feOffset in="SourceAlpha" result="shadowOffsetOuter1"/><feGaussianBlur stdDeviation="4.5" in="shadowOffsetOuter1" result="shadowBlurOuter1"/><feColorMatrix values="0 0 0 0 0.4 0 0 0 0 0.8 0 0 0 0 0 0 0 0 0.7 0" in="shadowBlurOuter1" result="shadowMatrixOuter1"/><feMerge><feMergeNode in="shadowMatrixOuter1"/><feMergeNode in="SourceGraphic"/></feMerge></filter><filter x="-50%" y="-50%" width="200%" height="200%" filterUnits="objectBoundingBox" id="fd"><feOffset in="SourceAlpha" result="shadowOffsetOuter1"/><feGaussianBlur stdDeviation="4.5" in="shadowOffsetOuter1" result="shadowBlurOuter1"/><feColorMatrix values="0 0 0 0 0.4 0 0 0 0 0.8 0 0 0 0 0 0 0 0 0.7 0" in="shadowBlurOuter1" result="shadowMatrixOuter1"/><feMerge><feMergeNode in="shadowMatrixOuter1"/><feMergeNode in="SourceGraphic"/></feMerge></filter><filter x="-50%" y="-50%" width="200%" height="200%" filterUnits="objectBoundingBox" id="fe"><feOffset in="SourceAlpha" result="shadowOffsetOuter1"/><feGaussianBlur stdDeviation="4.5" in="shadowOffsetOuter1" result="shadowBlurOuter1"/><feColorMatrix values="0 0 0 0 0.4 0 0 0 0 0.8 0 0 0 0 0 0 0 0 0.7 0" in="shadowBlurOuter1" result="shadowMatrixOuter1"/><feMerge><feMergeNode in="shadowMatrixOuter1"/><feMergeNode in="SourceGraphic"/></feMerge></filter><filter x="-50%" y="-50%" width="200%" height="200%" filterUnits="objectBoundingBox" id="ff"><feOffset in="SourceAlpha" result="shadowOffsetOuter1"/><feGaussianBlur stdDeviation="4.5" in="shadowOffsetOuter1" result="shadowBlurOuter1"/><feColorMatrix values="0 0 0 0 0.4 0 0 0 0 0.8 0 0 0 0 0 0 0 0 0.7 0" in="shadowBlurOuter1" result="shadowMatrixOuter1"/><feMerge><feMergeNode in="shadowMatrixOuter1"/><feMergeNode in="SourceGraphic"/></feMerge></filter></defs><g transform="translate(23 23)" fill="none" fill-rule="evenodd"><circle fill="url(#fa)" filter="url(#fb)" cx="27.5" cy="27.5" r="27.5"/><g transform="translate(4.845 5.893)" fill="#6C0"><path d="M19.643.008V2.22s-2.67-.15-5.994 1.343c-1.338.6-2.77 1.502-3.775 2.434-1.005.93-2.553 2.432-3.63 3.915-1.647 2.27-2.205 3.324-2.917 5.592-.712 2.268-1.163 6.103-1.163 6.103H0s.047-1.93.87-5.553c.825-3.623 2.926-6.915 4.776-9.09.69-.81 2.095-2.116 3.39-3.15 1.296-1.033 2.95-1.934 4.25-2.48C16.902-.186 19.643.008 19.643.008z" filter="url(#fc)"/><path d="M25.536.008V2.22s2.67-.15 5.993 1.343c1.336.6 2.768 1.502 3.773 2.434 1.006.93 2.554 2.432 3.63 3.915 1.647 2.27 2.206 3.324 2.917 5.592.712 2.268 1.164 6.103 1.164 6.103h2.165s-.048-1.93-.872-5.553-2.925-6.915-4.775-9.09c-.69-.81-2.096-2.116-3.39-3.15-1.296-1.033-2.95-1.934-4.25-2.48C28.276-.186 25.535.008 25.535.008z" filter="url(#fd)"/><path d="M19.643 45.17v-2.21s-2.67.148-5.994-1.344c-1.338-.6-2.77-1.502-3.775-2.434-1.005-.932-2.553-2.432-3.63-3.915-1.647-2.27-2.205-3.324-2.917-5.592-.712-2.27-1.163-6.104-1.163-6.104H0s.047 1.932.87 5.555c.825 3.623 2.926 6.915 4.776 9.088.69.813 2.095 2.117 3.39 3.15 1.296 1.035 2.95 1.935 4.25 2.48 3.616 1.52 6.357 1.328 6.357 1.328z" filter="url(#fe)"/><path d="M25.536 45.17v-2.21s2.67.148 5.993-1.344c1.336-.6 2.768-1.502 3.773-2.434 1.006-.932 2.554-2.432 3.63-3.915 1.647-2.27 2.206-3.324 2.917-5.592.712-2.27 1.164-6.104 1.164-6.104h2.165s-.048 1.932-.872 5.555c-.824 3.623-2.925 6.915-4.775 9.088-.69.813-2.096 2.117-3.39 3.15-1.296 1.035-2.95 1.935-4.25 2.48-3.616 1.52-6.357 1.328-6.357 1.328z" filter="url(#ff)"/><g transform="translate(9.82 7.857)"><path d="M20.382 3.93c-.25 0-.543-.07-.793-.21 0 0-2.173-1.36-6.057-1.605-3.258-.21-5.805.872-5.847.872-.627.244-1.378.07-1.67-.453-.293-.523-.042-1.15.542-1.395C6.684 1.07 9.774-.187 13.7.022c4.72.28 7.35 1.988 7.434 2.058.543.35.627 1.012.21 1.465-.21.244-.586.384-.962.384zM24.26 11.786c-.387 0-.73-.162-.988-.445 0-.04-2.06-2.3-5.58-3.998-1.288-.606-4.765-1.292-7.04-.93-4.08.648-6.697 2.183-6.74 2.223-.6.364-1.417.202-1.76-.364-.344-.564-.215-1.332.386-1.655.13-.08 3.09-1.777 7.64-2.545 2.963-.484 6.998.364 8.673 1.172 4.036 1.858 6.31 4.443 6.397 4.564.43.526.386 1.293-.172 1.697-.257.202-.558.283-.815.283z"/><path d="M24.224 17.68c-.44 0-.837-.23-1.1-.64-.045-.046-2.642-4.11-6.47-5.706-2.598-1.05-6.868-1.14-9.2-.137-1.982.913-5.327 3.56-5.327 3.606-.572.456-1.408.365-1.85-.228-.44-.594-.35-1.46.22-1.917.134-.137 3.655-2.922 5.944-3.88 3.302-1.415 8.364-1.05 11.18.09 4.623 1.872 7.572 6.483 7.704 6.71.396.64.22 1.462-.396 1.918-.22.09-.44.183-.704.183z"/><path d="M22.282 23.57c-.592 0-1.142-.42-1.27-1.053 0-.042-.422-2.404-1.056-3.923l-.043-.084c-.93-2.235-1.353-3.12-3.3-4.513-1.987-1.434-3.382-1.645-5.497-1.645-2.2.042-4.314.8-5.668 2.025-1.142 1.054-2.622 3.416-3.087 4.26-.338.59-1.14.8-1.733.464-.592-.337-.804-1.138-.466-1.73.086-.125 1.905-3.33 3.597-4.85 1.818-1.644 4.567-2.656 7.36-2.7 2.537 0 4.44.297 6.978 2.11 2.537 1.772 3.13 3.206 4.144 5.568l.042.084c.803 1.814 1.226 4.43 1.27 4.513.125.675-.34 1.35-1.06 1.476h-.21z"/><path d="M20.207 29.464c-.673 0-1.256-.495-1.346-1.215-.268-2.478-1.12-6.485-2.152-7.566-1.166-1.215-2.466-1.936-3.947-2.16-1.837-.27-3.362.09-4.708 1.17-1.12.9-2.78 3.962-3.5 5.718-.312.675-1.075.99-1.793.675-.673-.315-.987-1.08-.673-1.8.224-.54 2.287-5.18 4.35-6.754 1.93-1.53 4.216-2.072 6.773-1.71 2.063.314 3.947 1.304 5.517 3.015 2.018 2.117 2.736 7.97 2.87 9.14.09.72-.448 1.396-1.166 1.486h-.223z"/><path d="M16.285 31.43c-.72 0-1.304-.532-1.348-1.186 0-.04-.09-2.45-.405-4.82-.225-1.756-1.214-2.982-2.562-3.268-1.17-.245-2.742 0-3.507.94-.63.776-1.483 3.308-1.888 4.9-.18.655-.9 1.063-1.618.9-.72-.163-1.17-.817-.99-1.47.18-.695 1.17-4.33 2.34-5.76 1.527-1.88 4.224-2.287 6.247-1.88 2.517.49 4.27 2.493 4.675 5.352.36 2.492.45 4.943.45 5.024 0 .654-.586 1.226-1.395 1.267z"/><path d="M11.358 31.43c-.208 0-.416-.044-.57-.086-.78-.253-1.197-1.014-.833-1.647.208-.38.676-1.563.676-2.408v-2.45c0-.72.676-1.27 1.56-1.27s1.56.55 1.56 1.27v2.45c0 1.477-.832 3.167-.936 3.336-.26.507-.832.803-1.456.803z"/></g></g></g></svg><svg width="35" height="35" viewBox="0 0 100 100" id="top_nav_icon_attack_path" y="70"><title>top_nav_icon_attack_path</title><defs><linearGradient x1="50%" y1="0%" x2="50%" y2="108.252%" id="ga"><stop stop-color="#6A6868" offset="0%"/><stop stop-color="#E5E5E5" offset="48.899%"/><stop stop-color="#7A7878" offset="100%"/></linearGradient><linearGradient x1="103.024%" y1="1.419%" x2="0%" y2="100%" id="gb"><stop stop-color="#ADADAD" offset="0%"/><stop stop-color="#E6E3E3" offset="55.866%"/><stop stop-color="#969292" offset="100%"/></linearGradient><linearGradient x1="82.127%" y1="0%" x2="-6.985%" y2="97.15%" id="gc"><stop stop-color="#B3B3B3" offset="0%"/><stop stop-color="#F0F0F0" offset="40.39%"/><stop stop-color="#999" offset="100%"/></linearGradient><linearGradient x1="50%" y1="44.387%" x2="37.03%" y2="50%" id="gd"><stop stop-color="#FFF" offset="0%"/><stop stop-color="#7A7373" offset="65.699%"/><stop stop-color="#807A7A" offset="100%"/></linearGradient><radialGradient cx="65.843%" cy="16.866%" fx="65.843%" fy="16.866%" r="77.705%" id="ge"><stop stop-color="#A5E852" offset="0%"/><stop stop-color="#5CA632" offset="72.146%"/><stop stop-color="#4B962D" offset="100%"/></radialGradient><filter x="-50%" y="-50%" width="200%" height="200%" filterUnits="objectBoundingBox" id="gf"><feOffset in="SourceAlpha" result="shadowOffsetOuter1"/><feGaussianBlur stdDeviation="6" in="shadowOffsetOuter1" result="shadowBlurOuter1"/><feColorMatrix values="0 0 0 0 0.4 0 0 0 0 0.8 0 0 0 0 0 0 0 0 0.35 0" in="shadowBlurOuter1" result="shadowMatrixOuter1"/><feOffset dx="-2" dy="2" in="SourceAlpha" result="shadowOffsetOuter2"/><feGaussianBlur stdDeviation="2.5" in="shadowOffsetOuter2" result="shadowBlurOuter2"/><feColorMatrix values="0 0 0 0 0 0 0 0 0 0 0 0 0 0 0 0 0 0 0.35 0" in="shadowBlurOuter2" result="shadowMatrixOuter2"/><feMerge><feMergeNode in="shadowMatrixOuter1"/><feMergeNode in="shadowMatrixOuter2"/><feMergeNode in="SourceGraphic"/></feMerge></filter><radialGradient fx="50%" fy="50%" r="80.263%" id="gg"><stop stop-color="#74E602" offset="0%"/><stop stop-color="#82E024" offset="38.883%"/><stop stop-color="#2F6220" offset="100%"/></radialGradient><filter x="-50%" y="-50%" width="200%" height="200%" filterUnits="objectBoundingBox" id="gh"><feOffset in="SourceAlpha" result="shadowOffsetOuter1"/><feGaussianBlur stdDeviation="6" in="shadowOffsetOuter1" result="shadowBlurOuter1"/><feColorMatrix values="0 0 0 0 0.4 0 0 0 0 0.8 0 0 0 0 0 0 0 0 0.35 0" in="shadowBlurOuter1" result="shadowMatrixOuter1"/><feOffset dx="-2" dy="2" in="SourceAlpha" result="shadowOffsetOuter2"/><feGaussianBlur stdDeviation="2.5" in="shadowOffsetOuter2" result="shadowBlurOuter2"/><feColorMatrix values="0 0 0 0 0 0 0 0 0 0 0 0 0 0 0 0 0 0 0.35 0" in="shadowBlurOuter2" result="shadowMatrixOuter2"/><feMerge><feMergeNode in="shadowMatrixOuter1"/><feMergeNode in="shadowMatrixOuter2"/><feMergeNode in="SourceGraphic"/></feMerge></filter></defs><g transform="rotate(-90 50 30)" fill="none" fill-rule="evenodd"><path d="M38.296 52.88l-7.014-8.93-.06-6.623M40.45 18.484l-.834-6.497 6.794-3.823" stroke="url(#ga)" stroke-width="2.4"/><path d="M15.89 30.207l4.366-7.612 8.014-3.45 1.523-6.814" stroke="url(#gb)" stroke-width="2.4"/><path d="M21.848 30.207l3.207 7.184 15.623-.017 8.977 6.737" stroke="url(#ga)" stroke-width="2.4"/><path d="M29.793 30.207l6.334-11.917H51.64" stroke="url(#gc)" stroke-width="2.4"/><path d="M6.708 31.813L30 31.2l23.292-.613" stroke="url(#gd)" stroke-width="4.8"/><ellipse fill="url(#ge)" filter="url(#gf)" cx="7.2" cy="31.2" rx="7.2" ry="7.2"/><ellipse stroke="url(#gg)" stroke-width="2.4" cx="51.6" cy="46.8" rx="3.6" ry="3.6"/><ellipse stroke="url(#gg)" stroke-width="2.4" cx="54" cy="18" rx="3.6" ry="3.6"/><ellipse stroke="url(#gg)" stroke-width="2.4" cx="49.2" cy="6" rx="3.6" ry="3.6"/><ellipse stroke="url(#gg)" stroke-width="2.4" cx="39.6" cy="56.4" rx="3.6" ry="3.6"/><ellipse stroke="url(#gg)" stroke-width="2.4" cx="32.4" cy="10.8" rx="3.6" ry="3.6"/><ellipse fill="url(#ge)" filter="url(#gh)" cx="51.6" cy="30" rx="3.6" ry="3.6"/></g></svg><svg width="35" height="35" viewBox="0 0 100 100" id="top_nav_icon_behaviour_inspection" x="35" y="70"><title>top_nav_icon_behaviour_inspection</title><defs><linearGradient x1="47.774%" y1="0%" x2="47.838%" y2="96.943%" id="hb"><stop stop-color="#3A3A3A" offset="0%"/><stop stop-color="#434242" offset="39.858%"/><stop stop-color="#3D3C3C" offset="73.565%"/><stop stop-color="#232323" offset="100%"/></linearGradient><linearGradient x1="50%" y1="104.014%" x2="50%" y2="2.915%" id="ha"><stop stop-color="#A1A0A0" offset="0%"/><stop stop-color="#FAFAFA" offset="100%"/></linearGradient><filter x="-50%" y="-50%" width="200%" height="200%" filterUnits="objectBoundingBox" id="hc"><feOffset dy="3" in="SourceAlpha" result="shadowOffsetInner1"/><feGaussianBlur stdDeviation="1.5" in="shadowOffsetInner1" result="shadowBlurInner1"/><feComposite in="shadowBlurInner1" in2="SourceAlpha" operator="arithmetic" k2="-1" k3="1" result="shadowInnerInner1"/><feColorMatrix values="0 0 0 0 0 0 0 0 0 0 0 0 0 0 0 0 0 0 0.35 0" in="shadowInnerInner1" result="shadowMatrixInner1"/><feMerge><feMergeNode in="SourceGraphic"/><feMergeNode in="shadowMatrixInner1"/></feMerge></filter><radialGradient cy="0%" fx="50%" fy="0%" r="98.978%" id="hd"><stop stop-color="#FFF" offset="0%"/><stop stop-color="#D4D4D4" offset="100%"/></radialGradient><filter x="-50%" y="-50%" width="200%" height="200%" filterUnits="objectBoundingBox" id="he"><feOffset dy="3" in="SourceAlpha" result="shadowOffsetOuter1"/><feGaussianBlur stdDeviation="5" in="shadowOffsetOuter1" result="shadowBlurOuter1"/><feColorMatrix values="0 0 0 0 0 0 0 0 0 0 0 0 0 0 0 0 0 0 0.35 0" in="shadowBlurOuter1" result="shadowMatrixOuter1"/><feMerge><feMergeNode in="shadowMatrixOuter1"/><feMergeNode in="SourceGraphic"/></feMerge></filter><filter x="-50%" y="-50%" width="200%" height="200%" filterUnits="objectBoundingBox" id="hf"><feOffset dy="3" in="SourceAlpha" result="shadowOffsetOuter1"/><feGaussianBlur stdDeviation="5" in="shadowOffsetOuter1" result="shadowBlurOuter1"/><feColorMatrix values="0 0 0 0 0 0 0 0 0 0 0 0 0 0 0 0 0 0 0.35 0" in="shadowBlurOuter1" result="shadowMatrixOuter1"/><feMerge><feMergeNode in="shadowMatrixOuter1"/><feMergeNode in="SourceGraphic"/></feMerge></filter><linearGradient x1="46.68%" y1="52.683%" x2="50%" y2="100%" id="hg"><stop stop-color="#6C0" offset="0%"/><stop stop-color="#4A9202" offset="100%"/></linearGradient><filter x="-50%" y="-50%" width="200%" height="200%" filterUnits="objectBoundingBox" id="hh"><feOffset dy="4" in="SourceAlpha" result="shadowOffsetOuter1"/><feGaussianBlur stdDeviation="5" in="shadowOffsetOuter1" result="shadowBlurOuter1"/><feColorMatrix values="0 0 0 0 0 0 0 0 0 0 0 0 0 0 0 0 0 0 0.473859262 0" in="shadowBlurOuter1" result="shadowMatrixOuter1"/><feOffset in="SourceAlpha" result="shadowOffsetOuter2"/><feGaussianBlur stdDeviation="10.5" in="shadowOffsetOuter2" result="shadowBlurOuter2"/><feColorMatrix values="0 0 0 0 0.4 0 0 0 0 0.8 0 0 0 0 0 0 0 0 0.7 0" in="shadowBlurOuter2" result="shadowMatrixOuter2"/><feMerge><feMergeNode in="shadowMatrixOuter1"/><feMergeNode in="shadowMatrixOuter2"/><feMergeNode in="SourceGraphic"/></feMerge></filter><filter x="-50%" y="-50%" width="200%" height="200%" filterUnits="objectBoundingBox" id="hi"><feOffset dy="4" in="SourceAlpha" result="shadowOffsetOuter1"/><feGaussianBlur stdDeviation="5" in="shadowOffsetOuter1" result="shadowBlurOuter1"/><feColorMatrix values="0 0 0 0 0 0 0 0 0 0 0 0 0 0 0 0 0 0 0.473859262 0" in="shadowBlurOuter1" result="shadowMatrixOuter1"/><feOffset in="SourceAlpha" result="shadowOffsetOuter2"/><feGaussianBlur stdDeviation="10.5" in="shadowOffsetOuter2" result="shadowBlurOuter2"/><feColorMatrix values="0 0 0 0 0.4 0 0 0 0 0.8 0 0 0 0 0 0 0 0 0.7 0" in="shadowBlurOuter2" result="shadowMatrixOuter2"/><feMerge><feMergeNode in="shadowMatrixOuter1"/><feMergeNode in="shadowMatrixOuter2"/><feMergeNode in="SourceGraphic"/></feMerge></filter></defs><g transform="translate(31 22)" fill="none" fill-rule="evenodd"><path d="M39 56.433c-.023.057-.06.114-.07.18-.19.988-.654 1.79-1.378 2.44-.556.5-1.22.736-1.897.947H3.352c-.053-.024-.106-.065-.167-.073-.93-.203-1.684-.697-2.294-1.467-.47-.592-.7-1.297-.89-2.02V10.238c.023-.048.053-.09.07-.137.38-1.857 1.63-3.105 3.39-3.397.304-.048.464 0 .593.35.998 2.706 2.027 5.405 3.032 8.113.115.316.26.413.58.413 7.892-.01 15.785-.01 23.686 0 .313 0 .458-.098.58-.414 1.006-2.724 2.034-5.43 3.055-8.155.076-.21.145-.372.427-.34 1.06.13 1.935.6 2.643 1.444.495.608.747 1.345.945 2.115v46.203z" stroke="url(#ha)" stroke-width="2.5" fill="url(#hb)" filter="url(#hc)"/><path d="M23.784.01c.168.628.335 1.267.51 1.887.413 1.46.84 2.91 1.24 4.368.088.31.204.41.465.41 1.655-.017 3.31-.008 4.974-.008h.443c-.037.136-.05.246-.087.346C30.618 9 29.9 11 29.195 12.996c-.095.273-.21.337-.436.337-6.174-.01-12.34-.01-18.512 0-.174 0-.312.01-.406-.255-.726-2.07-1.474-4.122-2.208-6.183-.022-.055-.022-.11-.05-.228h5.46c.175 0 .305 0 .385-.274.58-2.07 1.183-4.14 1.778-6.21.015-.055.008-.12.015-.183 2.846.01 5.708.01 8.56.01z" fill="url(#hd)"/><path d="M15.167 31.11H32.5" stroke="#DFDFDF" stroke-width="5" stroke-linecap="square" filter="url(#he)"/><path d="M15.5 42.037h16.64" stroke="#DFDFDF" stroke-width="5" stroke-linecap="square" filter="url(#hf)"/><path d="M8 28.758l-1.5 2.065 4.772 4.733L19.5 24.042l-1.668-1.82-6.794 9.526L8 28.758z" fill="url(#hg)" filter="url(#hh)"/><path d="M8 39.87l-1.5 2.064 4.772 4.733L19.5 35.153l-1.668-1.82-6.794 9.526L8 39.87z" fill="url(#hg)" filter="url(#hi)"/></g></svg><svg width="35" height="35" viewBox="0 0 100 100" id="top_nav_icon_infrastuctural_safety"><title>top_nav_icon_infrastuctural_safety</title><defs><radialGradient cx="100%" cy="100%" fx="100%" fy="100%" r="135.714%" id="ia"><stop stop-color="#979595" offset="0%"/><stop stop-color="#9D9D9D" offset="100%"/></radialGradient><linearGradient x1="36.749%" y1="67.269%" x2="44.608%" y2="30.442%" id="ib"><stop offset="0%"/><stop stop-color="#2B2B2C" offset="25.562%"/><stop stop-color="#C8CACC" offset="71.696%"/><stop stop-color="#E4E5E6" offset="81.292%"/><stop stop-color="#F6F6F6" offset="91.33%"/><stop stop-color="#FFF" offset="100%"/></linearGradient><linearGradient x1="50%" y1="44.387%" x2="37.03%" y2="50%" id="ic"><stop stop-color="#FFF" offset="0%"/><stop stop-color="#7A7373" offset="65.699%"/><stop stop-color="#807A7A" offset="100%"/></linearGradient><linearGradient x1="53.948%" y1="24.676%" x2="56.698%" y2="70.734%" id="id"><stop stop-color="#A5A5A5" offset="0%"/><stop stop-color="#9F9F9F" offset="20.354%"/><stop stop-color="#858687" offset="55.497%"/><stop stop-color="#5F5E5E" offset="100%"/></linearGradient><linearGradient x1="50%" y1="61.968%" x2="58.562%" y2="44.253%" id="ie"><stop stop-color="#7A7878" offset="0%"/><stop stop-color="#B8B6B6" offset="100%"/></linearGradient><linearGradient x1="40.677%" y1="53.829%" x2="50%" y2="57.384%" id="if"><stop stop-color="#7F7D7D" offset="0%"/><stop stop-color="#999797" offset="100%"/></linearGradient><linearGradient x1="50%" y1="38.075%" x2="72.212%" y2="47.551%" id="ig"><stop stop-color="#C2C1C1" offset="0%"/><stop stop-color="#BBB9B9" offset="30.776%"/><stop stop-color="#4A4A4A" offset="100%"/></linearGradient><linearGradient x1="62.834%" y1="23.82%" x2="64.378%" y2="71.407%" id="ih"><stop stop-color="#FFF" offset="0%"/><stop stop-color="#BBB" offset="42.57%"/><stop stop-color="#959595" offset="100%"/></linearGradient><linearGradient x1="31.257%" y1="48.504%" x2="70.085%" y2="48.504%" id="ii"><stop stop-color="#9D9C9C" offset="0%"/><stop stop-color="#D9D9D9" offset="100%"/></linearGradient><radialGradient cx="65.843%" cy="16.866%" fx="65.843%" fy="16.866%" r="77.705%" id="ij"><stop stop-color="#A5E852" offset="0%"/><stop stop-color="#5CA632" offset="72.146%"/><stop stop-color="#4B962D" offset="100%"/></radialGradient><filter x="-50%" y="-50%" width="200%" height="200%" filterUnits="objectBoundingBox" id="ik"><feOffset in="SourceAlpha" result="shadowOffsetOuter1"/><feGaussianBlur stdDeviation="6.5" in="shadowOffsetOuter1" result="shadowBlurOuter1"/><feColorMatrix values="0 0 0 0 0.4 0 0 0 0 0.8 0 0 0 0 0 0 0 0 0.35 0" in="shadowBlurOuter1" result="shadowMatrixOuter1"/><feOffset dx="-3" dy="3" in="SourceAlpha" result="shadowOffsetOuter2"/><feGaussianBlur stdDeviation="2.5" in="shadowOffsetOuter2" result="shadowBlurOuter2"/><feColorMatrix values="0 0 0 0 0 0 0 0 0 0 0 0 0 0 0 0 0 0 0.35 0" in="shadowBlurOuter2" result="shadowMatrixOuter2"/><feMerge><feMergeNode in="shadowMatrixOuter1"/><feMergeNode in="shadowMatrixOuter2"/><feMergeNode in="SourceGraphic"/></feMerge></filter><radialGradient cx="65.843%" cy="16.866%" fx="65.843%" fy="16.866%" r="77.705%" id="il"><stop stop-color="#7AAC3F" offset="0%"/><stop stop-color="#4C8829" offset="72.146%"/><stop stop-color="#418327" offset="100%"/></radialGradient><filter x="-50%" y="-50%" width="200%" height="200%" filterUnits="objectBoundingBox" id="im"><feOffset in="SourceAlpha" result="shadowOffsetOuter1"/><feGaussianBlur stdDeviation="6.5" in="shadowOffsetOuter1" result="shadowBlurOuter1"/><feColorMatrix values="0 0 0 0 0.4 0 0 0 0 0.8 0 0 0 0 0 0 0 0 0.35 0" in="shadowBlurOuter1" result="shadowMatrixOuter1"/><feOffset dx="-5" dy="5" in="SourceAlpha" result="shadowOffsetOuter2"/><feGaussianBlur stdDeviation="13" in="shadowOffsetOuter2" result="shadowBlurOuter2"/><feColorMatrix values="0 0 0 0 0 0 0 0 0 0 0 0 0 0 0 0 0 0 0.49 0" in="shadowBlurOuter2" result="shadowMatrixOuter2"/><feMerge><feMergeNode in="shadowMatrixOuter1"/><feMergeNode in="shadowMatrixOuter2"/><feMergeNode in="SourceGraphic"/></feMerge></filter><radialGradient cx="65.843%" cy="16.866%" fx="65.843%" fy="16.866%" r="77.705%" id="in"><stop stop-color="#B5FF5B" offset="0%"/><stop stop-color="#5CA632" offset="72.146%"/><stop stop-color="#4B962D" offset="100%"/></radialGradient><filter x="-50%" y="-50%" width="200%" height="200%" filterUnits="objectBoundingBox" id="io"><feOffset in="SourceAlpha" result="shadowOffsetOuter1"/><feGaussianBlur stdDeviation="6.5" in="shadowOffsetOuter1" result="shadowBlurOuter1"/><feColorMatrix values="0 0 0 0 0.4 0 0 0 0 0.8 0 0 0 0 0 0 0 0 0.35 0" in="shadowBlurOuter1" result="shadowMatrixOuter1"/><feOffset dx="-5" dy="5" in="SourceAlpha" result="shadowOffsetOuter2"/><feGaussianBlur stdDeviation="4" in="shadowOffsetOuter2" result="shadowBlurOuter2"/><feColorMatrix values="0 0 0 0 0 0 0 0 0 0 0 0 0 0 0 0 0 0 0.35 0" in="shadowBlurOuter2" result="shadowMatrixOuter2"/><feMerge><feMergeNode in="shadowMatrixOuter1"/><feMergeNode in="shadowMatrixOuter2"/><feMergeNode in="SourceGraphic"/></feMerge></filter><radialGradient cx="65.843%" cy="16.866%" fx="65.843%" fy="16.866%" r="77.705%" id="ip"><stop stop-color="#89C343" offset="0%"/><stop stop-color="#50902C" offset="72.146%"/><stop stop-color="#397422" offset="100%"/></radialGradient><filter x="-50%" y="-50%" width="200%" height="200%" filterUnits="objectBoundingBox" id="iq"><feOffset in="SourceAlpha" result="shadowOffsetOuter1"/><feGaussianBlur stdDeviation="6.5" in="shadowOffsetOuter1" result="shadowBlurOuter1"/><feColorMatrix values="0 0 0 0 0.4 0 0 0 0 0.8 0 0 0 0 0 0 0 0 0.35 0" in="shadowBlurOuter1" result="shadowMatrixOuter1"/><feOffset dx="-5" dy="5" in="SourceAlpha" result="shadowOffsetOuter2"/><feGaussianBlur stdDeviation="4" in="shadowOffsetOuter2" result="shadowBlurOuter2"/><feColorMatrix values="0 0 0 0 0 0 0 0 0 0 0 0 0 0 0 0 0 0 0.35 0" in="shadowBlurOuter2" result="shadowMatrixOuter2"/><feMerge><feMergeNode in="shadowMatrixOuter1"/><feMergeNode in="shadowMatrixOuter2"/><feMergeNode in="SourceGraphic"/></feMerge></filter><radialGradient cx="65.843%" cy="16.866%" fx="65.843%" fy="16.866%" r="75.111%" id="ir"><stop stop-color="#87BD45" offset="0%"/><stop stop-color="#4F8D2B" offset="72.571%"/><stop stop-color="#3B7723" offset="100%"/></radialGradient><filter x="-50%" y="-50%" width="200%" height="200%" filterUnits="objectBoundingBox" id="is"><feOffset in="SourceAlpha" result="shadowOffsetOuter1"/><feGaussianBlur stdDeviation="6.5" in="shadowOffsetOuter1" result="shadowBlurOuter1"/><feColorMatrix values="0 0 0 0 0.4 0 0 0 0 0.8 0 0 0 0 0 0 0 0 0.35 0" in="shadowBlurOuter1" result="shadowMatrixOuter1"/><feOffset dx="-5" dy="5" in="SourceAlpha" result="shadowOffsetOuter2"/><feGaussianBlur stdDeviation="4" in="shadowOffsetOuter2" result="shadowBlurOuter2"/><feColorMatrix values="0 0 0 0 0 0 0 0 0 0 0 0 0 0 0 0 0 0 0.35 0" in="shadowBlurOuter2" result="shadowMatrixOuter2"/><feMerge><feMergeNode in="shadowMatrixOuter1"/><feMergeNode in="shadowMatrixOuter2"/><feMergeNode in="SourceGraphic"/></feMerge></filter></defs><g transform="translate(19 24)" fill="none" fill-rule="evenodd"><path d="M30.484 4.04l3.224 24.027.84 6.267" stroke="url(#ia)" stroke-width="5.217"/><path d="M35.5 35.5l23.435 8.932" stroke="url(#ib)" stroke-width="5.217"/><path d="M30.484 4.04S40.35 18.07 44.71 24.57c5.123 7.638 14.225 21.882 14.225 21.882" stroke="url(#ic)" stroke-width="5.217"/><path d="M6.5 41.5l30.08-7.166" stroke="url(#id)" stroke-width="5.217"/><path d="M5.5 41.5l16.855 11.01" stroke="url(#ie)" stroke-width="5.217"/><path d="M6.097 42.412L32.517 4.04" stroke="url(#if)" stroke-width="5.217"/><path d="M22.355 52.51L34.5 34.5" stroke="url(#ig)" stroke-width="5.217"/><path d="M22.5 53.5l36.435-9.068" stroke="url(#ih)" stroke-width="5.217"/><path d="M31.5 5.5l-9.145 51.05" stroke="url(#ii)" stroke-width="5.217"/><ellipse fill="url(#ij)" filter="url(#ik)" cx="31.5" cy="5.049" rx="5.081" ry="5.049"/><ellipse fill="url(#il)" filter="url(#im)" cx="33.565" cy="34.324" rx="3.048" ry="3.029"/><ellipse fill="url(#in)" filter="url(#io)" cx="57.919" cy="45.442" rx="5.081" ry="5.049"/><ellipse fill="url(#ip)" filter="url(#iq)" cx="21.339" cy="53.52" rx="5.081" ry="5.049"/><ellipse fill="url(#ir)" filter="url(#is)" cx="5.081" cy="43.422" rx="5.081" ry="5.049"/></g></svg><svg width="35" height="35" viewBox="0 0 100 100" id="top_nav_icon_monitoring" x="105"><title>top_nav_icon_monitoring</title><defs><linearGradient x1=".006%" y1="50.028%" x2="100.035%" y2="50.028%" id="ja"><stop stop-color="#B9B9B9" offset="0%"/><stop stop-color="#DDD8D8" offset="10.67%"/><stop stop-color="#CBC7C7" offset="28.984%"/><stop stop-color="#888585" offset="57.78%"/><stop stop-color="#898989" offset="92.084%"/><stop stop-color="#9A9898" offset="100%"/></linearGradient><radialGradient cx="32.715%" cy="21.272%" fx="32.715%" fy="21.272%" r="85.276%" id="jb"><stop stop-color="#79D919" offset="0%"/><stop stop-color="#60962A" offset="49.359%"/><stop stop-color="#3A6C0F" offset="100%"/></radialGradient><radialGradient fx="50%" fy="50%" r="48.096%" id="jc"><stop offset="0%"/><stop stop-color="#1C1C1C" offset="36.81%"/><stop stop-color="#434343" offset="44.788%"/><stop stop-color="#676767" offset="52.202%"/><stop stop-color="#0D0D0D" offset="63.485%"/><stop stop-color="#444343" offset="72.126%"/><stop stop-color="#1F1F1F" offset="80.726%"/><stop stop-color="#575555" offset="87.287%"/><stop offset="100%"/></radialGradient><radialGradient cx="33.069%" cy="19.317%" fx="33.069%" fy="19.317%" r="83.379%" id="jd"><stop stop-color="#161616" offset="0%"/><stop stop-color="#858585" offset="26.146%"/><stop stop-color="#B3AFAF" offset="43.945%"/><stop stop-color="#4A4848" offset="77.39%"/><stop stop-color="#787878" offset="100%"/></radialGradient></defs><g transform="translate(27 30)" fill="none" fill-rule="evenodd"><g transform="translate(0 .19)"><path d="M46 22.165C46 9.955 35.778.055 23.227.055 10.62.055.397 9.955.397 22.165c0 9.075 5.68 16.885 13.8 20.295l-3.86 8.305v.11c0 .99 5.79 1.76 12.89 1.76 7.156 0 12.892-.77 12.892-1.76v-.11L33.45 45.1c-1.25-.44-2.783-.66-4.77-.605-2.273.11-4.203 0-5.737-.275h.227C35.778 44.275 46 34.375 46 22.165z" fill="url(#ja)"/><path d="M15.56 51.645s-3.123-.275-3.804-.715l3.464-8.085c.738.275 1.476.495 2.215.66l-1.875 8.14z" fill-opacity=".8" fill="#FFFCFC"/><path d="M8.69 36.19c-3.692-3.575-6.02-8.525-6.02-14.025S4.94 11.715 8.69 8.14c3.747-3.63 8.858-5.83 14.537-5.83 5.68 0 10.79 2.2 14.482 5.83 3.69 3.575 6.018 8.525 6.018 14.025s-2.27 10.45-6.02 14.025c-3.69 3.575-8.86 5.83-14.48 5.83-5.68 0-10.79-2.2-14.54-5.83z" fill="url(#jb)"/></g><ellipse fill="url(#jc)" cx="23.568" cy="22.464" rx="13.346" ry="12.925"/><path d="M23.568 36.49c7.998 0 14.48-6.28 14.48-14.026 0-7.746-6.482-14.025-14.48-14.025S9.086 14.717 9.086 22.463c0 7.746 6.484 14.025 14.482 14.025zm0-1.65c7.057 0 12.778-5.54 12.778-12.376 0-6.834-5.72-12.375-12.778-12.375-7.057 0-12.778 5.54-12.778 12.374 0 6.835 5.72 12.375 12.778 12.375z" fill="url(#jd)"/><path d="M22.137 21.24c1.54-1.323 3.49-1.29 2.864-2-.624-.713-2.823-1.03-4.362.294-1.538 1.323-1.248 3.77-.688 4.406.56.637.65-1.377 2.187-2.7z" fill-opacity=".5" fill="#FBFBFB"/></g></svg><svg width="35" height="35" viewBox="0 0 100 100" id="top_nav_icon_protocolaudit" x="105" y="35"><title>side_nav_icons_dashboard</title><defs><linearGradient x1="49.761%" y1="34.495%" x2="49.823%" y2="69.883%" id="ka"><stop stop-color="#90D54A" offset="0%"/><stop stop-color="#85C948" offset="8.002%"/><stop stop-color="#6DB042" offset="28.5%"/><stop stop-color="#5FA13F" offset="47.23%"/><stop stop-color="#5A9C3E" offset="62.44%"/><stop stop-color="#59963E" offset="67.97%"/><stop stop-color="#588B3D" offset="82.77%"/><stop stop-color="#57883D" offset="100%"/></linearGradient></defs><g transform="translate(30 33)" fill="none" fill-rule="evenodd"><path fill="#CCC" d="M8.2 10.5h5.125v21.618H8.2zM18.45 17.088h5.125v15.235H18.45zM28.7 5.97h5.125v26.354H28.7z"/><path d="M1.845 26.353L.82 24.5l7.995-5.765 5.74 4.324 10.66-10.295 6.355 7.41 3.485-2.263 4.305 3.912-1.23 1.647-3.28-3.088-3.69 2.47-5.945-7.205-10.66 10.088-5.74-4.53-6.97 5.148z" fill="url(#ka)"/><path d="M.82 1.647v31.706h37.515" stroke="#CCC" stroke-width="2.574"/></g></svg><svg width="35" height="35" viewBox="0 0 100 100" id="top_nav_icon_reduction" x="105" y="70"><title>top_nav_icon_reduction</title><defs><linearGradient x1="50.368%" y1="-2.404%" x2="50.368%" y2="91.932%" id="la"><stop stop-color="#858585" offset="0%"/><stop stop-color="#868585" offset="55.584%"/><stop stop-color="#8D8D8D" offset="100%"/></linearGradient><linearGradient x1="50.029%" y1=".345%" x2="50.029%" y2="98.941%" id="lb"><stop stop-color="#F0F0F0" offset="0%"/><stop stop-color="#BCBCBC" offset="100%"/></linearGradient><filter x="-50%" y="-50%" width="200%" height="200%" filterUnits="objectBoundingBox" id="lc"><feOffset in="SourceAlpha" result="shadowOffsetOuter1"/><feGaussianBlur stdDeviation="6.5" in="shadowOffsetOuter1" result="shadowBlurOuter1"/><feColorMatrix values="0 0 0 0 1 0 0 0 0 1 0 0 0 0 1 0 0 0 0.7 0" in="shadowBlurOuter1" result="shadowMatrixOuter1"/><feMerge><feMergeNode in="shadowMatrixOuter1"/><feMergeNode in="SourceGraphic"/></feMerge></filter><linearGradient x1="0%" y1="47.765%" x2="100.255%" y2="52.632%" id="ld"><stop stop-color="#9FA4A4" offset="0%"/><stop stop-color="#9FA4A4" offset="6.3%"/><stop stop-color="#E6DFDF" offset="49.47%"/><stop stop-color="#9FA4A4" offset="96.458%"/><stop stop-color="#959494" offset="100%"/></linearGradient><linearGradient x1="50%" y1="0%" x2="50%" y2="100%" id="le"><stop stop-color="#FFF" offset="0%"/><stop stop-color="#C8C8C8" offset="100%"/></linearGradient><filter x="-50%" y="-50%" width="200%" height="200%" filterUnits="objectBoundingBox" id="lf"><feOffset dy="5" in="SourceAlpha" result="shadowOffsetOuter1"/><feGaussianBlur stdDeviation="4" in="shadowOffsetOuter1" result="shadowBlurOuter1"/><feColorMatrix values="0 0 0 0 0 0 0 0 0 0 0 0 0 0 0 0 0 0 0.35 0" in="shadowBlurOuter1" result="shadowMatrixOuter1"/><feMerge><feMergeNode in="shadowMatrixOuter1"/><feMergeNode in="SourceGraphic"/></feMerge></filter><radialGradient cx="49.763%" cy="49.852%" fx="49.763%" fy="49.852%" r="50.266%" id="lg"><stop stop-color="#4A4C4C" offset="0%"/><stop stop-color="#333" offset="100%"/></radialGradient><filter x="-50%" y="-50%" width="200%" height="200%" filterUnits="objectBoundingBox" id="lh"><feOffset dy="-2" in="SourceAlpha" result="shadowOffsetOuter1"/><feGaussianBlur stdDeviation="1.5" in="shadowOffsetOuter1" result="shadowBlurOuter1"/><feColorMatrix values="0 0 0 0 0 0 0 0 0 0 0 0 0 0 0 0 0 0 0.35 0" in="shadowBlurOuter1" result="shadowMatrixOuter1"/><feMerge><feMergeNode in="shadowMatrixOuter1"/><feMergeNode in="SourceGraphic"/></feMerge></filter><linearGradient x1="21.479%" y1="21.157%" x2="88.691%" y2="89.05%" id="li"><stop stop-color="#6C0" stop-opacity=".99" offset="0%"/><stop stop-color="#41812E" offset="100%"/></linearGradient><filter x="-50%" y="-50%" width="200%" height="200%" filterUnits="objectBoundingBox" id="lj"><feOffset in="SourceAlpha" result="shadowOffsetOuter1"/><feGaussianBlur stdDeviation="6.5" in="shadowOffsetOuter1" result="shadowBlurOuter1"/><feColorMatrix values="0 0 0 0 0.4 0 0 0 0 0.8 0 0 0 0 0 0 0 0 0.49 0" in="shadowBlurOuter1" result="shadowMatrixOuter1"/><feOffset dy="5" in="SourceAlpha" result="shadowOffsetOuter2"/><feGaussianBlur stdDeviation="5.5" in="shadowOffsetOuter2" result="shadowBlurOuter2"/><feColorMatrix values="0 0 0 0 0 0 0 0 0 0 0 0 0 0 0 0 0 0 0.35 0" in="shadowBlurOuter2" result="shadowMatrixOuter2"/><feMerge><feMergeNode in="shadowMatrixOuter1"/><feMergeNode in="shadowMatrixOuter2"/><feMergeNode in="SourceGraphic"/></feMerge></filter><linearGradient x1="15.358%" y1="14.926%" x2="82.443%" y2="82.01%" id="lk"><stop stop-color="#6C0" offset="0%"/><stop stop-color="#558025" offset="100%"/></linearGradient><filter x="-50%" y="-50%" width="200%" height="200%" filterUnits="objectBoundingBox" id="ll"><feOffset dy="5" in="SourceAlpha" result="shadowOffsetOuter1"/><feGaussianBlur stdDeviation="5.5" in="shadowOffsetOuter1" result="shadowBlurOuter1"/><feColorMatrix values="0 0 0 0 0 0 0 0 0 0 0 0 0 0 0 0 0 0 0.35 0" in="shadowBlurOuter1" result="shadowMatrixOuter1"/><feOffset in="SourceAlpha" result="shadowOffsetOuter2"/><feGaussianBlur stdDeviation="5.5" in="shadowOffsetOuter2" result="shadowBlurOuter2"/><feColorMatrix values="0 0 0 0 0.4 0 0 0 0 0.8 0 0 0 0 0 0 0 0 0.49 0" in="shadowBlurOuter2" result="shadowMatrixOuter2"/><feMerge><feMergeNode in="shadowMatrixOuter1"/><feMergeNode in="shadowMatrixOuter2"/><feMergeNode in="SourceGraphic"/></feMerge></filter><linearGradient x1="15.048%" y1="84.951%" x2="82.324%" y2="17.674%" id="lm"><stop stop-color="#558B55" offset="0%"/><stop stop-color="#AFEE54" offset="100%"/></linearGradient><linearGradient x1="-1.579%" y1="-2.135%" x2="87.699%" y2="87.143%" id="ln"><stop stop-color="#424242" offset="0%"/><stop stop-color="#4E4E4E" offset="38.676%"/><stop stop-color="#232323" offset="100%"/></linearGradient><filter x="-50%" y="-50%" width="200%" height="200%" filterUnits="objectBoundingBox" id="lo"><feOffset dy="3" in="SourceAlpha" result="shadowOffsetInner1"/><feGaussianBlur stdDeviation="4" in="shadowOffsetInner1" result="shadowBlurInner1"/><feComposite in="shadowBlurInner1" in2="SourceAlpha" operator="arithmetic" k2="-1" k3="1" result="shadowInnerInner1"/><feColorMatrix values="0 0 0 0 0 0 0 0 0 0 0 0 0 0 0 0 0 0 0.35 0" in="shadowInnerInner1" result="shadowMatrixInner1"/><feMerge><feMergeNode in="SourceGraphic"/><feMergeNode in="shadowMatrixInner1"/></feMerge></filter></defs><g transform="translate(18 25)" fill="none" fill-rule="evenodd"><path fill="url(#la)" d="M21 42.105h13.125v5.263H21z"/><path d="M20.87 47.368L18.376 50H36.75l-2.974-2.632H20.87z" fill="url(#lb)"/><path fill="#FFF" filter="url(#lc)" d="M18.375 50H36.75v.787H18.375z"/><path d="M0 2.632v-1.24C0 .62.453 0 1.02 0h53.086c.566 0 1.02.62 1.02 1.393v1.24H0z" fill="url(#ld)"/><path d="M0 1.05v40.004c0 .584.453 1.05 1.02 1.05h53.086c.566 0 1.02-.466 1.02-1.05V1.05c0-.583-.454-1.05-1.02-1.05H1.02C.452 0 0 .467 0 1.05z" fill="url(#le)" filter="url(#lf)"/><path fill="url(#lg)" filter="url(#lh)" d="M2.625 2.632H52.5v36.842H2.625z"/><g transform="translate(7.875 7.895)" fill="#FFF"><path d="M.438 2.162L0 2.632V.376L.202 0l.202.376v1.786h.033zM.403 4.887l-.202.376L0 4.887V2.632l.438.376v1.88H.403zm2.22-4.69l-.365.33H.365L0 .262.366 0H2.26l.365.197zm0 5.264l-.365.33H.365L0 5.525l.366-.263H2.26l.365.198zm.438-2.828l-.437-.47V.376L2.827 0l.202.376v2.256h.033zM3.03 4.887l-.203.376-.202-.376v-1.88l.438-.375v2.255H3.03zM5.813 2.632l-.563-.387V.62L5.813 0v2.632zm0 2.63l-.563-.618V2.94l.563-.308v2.63zM8.438 2.632l-.563-.387V.62L8.438 0v2.632zm0 2.63l-.563-.618V2.94l.563-.308v2.63zM10.938 2.162l-.438.47V.376L10.702 0l.202.376v1.786h.034zm-.034 2.725l-.202.376-.202-.376V2.632l.438.376v1.88h-.034zm2.22-4.624l-.357.263h-1.85L10.5.263 10.858 0h1.85l.417.263zm0 5.263l-.357.263h-1.85l-.417-.264.358-.263h1.85l.417.263zm.438-2.894l-.437-.47V.376L13.327 0l.202.376v2.256h.033zm-.033 2.255l-.203.376-.202-.376v-1.88l.438-.375v2.255h-.034zM16.188 2.162l-.438.47V.376L15.952 0l.202.376v1.786h.034zm-.034 2.725l-.202.376-.202-.376V2.632l.438.376v1.88h-.034zm2.22-4.624l-.365.263h-1.894L15.75.263 16.116 0h1.893l.365.263zm0 5.263l-.365.263h-1.894l-.366-.264.366-.263h1.893l.365.263zm.44-2.894l-.44-.47V.376L18.578 0l.202.376v2.256h.032zm-.035 2.255l-.203.376-.202-.376v-1.88l.438-.375v2.255h-.034zM21.563 2.632L21 2.245V.62l.563-.62v2.632zm0 2.63L21 4.645V2.94l.563-.308v2.63zM24.063 2.162l-.438.47V.376L23.827 0l.202.376v1.786h.032zm-.034 2.725l-.203.376-.202-.376V2.632l.438.376v1.88h-.034zM26.25.263l-.366.263H23.99l-.365-.263L23.99 0h1.894l.366.263zm0 5.263l-.366.263H23.99l-.365-.264.366-.263h1.894l.366.263zm.438-2.894l-.438-.47V.376L26.452 0l.202.376v2.256h.034zm-.034 2.255l-.202.376-.202-.376v-1.88l.438-.375v2.255h-.034z"/><path d="M26.688 2.162l-.438.47V.376L26.452 0l.202.376v1.786h.034zm-.034 2.725l-.202.376-.202-.376V2.632l.438.376v1.88h-.034zm2.22-4.624l-.365.263h-1.894L26.25.263 26.616 0h1.893l.365.263zm0 5.263l-.365.263h-1.894l-.366-.264.366-.263h1.893l.365.263zm.44-2.894l-.44-.47V.376L29.078 0l.202.376v2.256h.032zm-.035 2.255l-.203.376-.202-.376v-1.88l.438-.375v2.255h-.034zM32.063 2.632l-.563-.387V.62l.563-.62v2.632zm0 2.63l-.563-.618V2.94l.563-.308v2.63zM34.563 2.162l-.438.47V.376L34.327 0l.202.376v1.786h.032zm-.034 2.725l-.203.376-.202-.376V2.632l.438.376v1.88h-.034zm2.22-4.69l-.366.33H34.49l-.365-.264L34.49 0h1.894l.366.197zm0 5.264l-.366.33H34.49l-.365-.264.366-.263h1.894l.366.198zm.438-2.828l-.438-.47V.376L36.952 0l.202.376v2.256h.033zm-.034 2.255l-.202.376-.202-.376v-1.88l.438-.375v2.255h-.034z"/><path d="M37.295 2.632l-.545-.387V.62l.545-.62v2.632zm0 2.63l-.545-.618V2.94l.545-.308v2.63zM42.545 2.632L42 2.245V.62l.545-.62v2.632zm0 2.63L42 4.645V2.94l.545-.308v2.63zM21.438 10.056l-.438.47V8.27l.202-.375.202.376v1.786h.034zm-.034 2.726l-.202.376-.202-.376v-2.256l.438.376v1.88h-.034zm2.22-4.624l-.365.263h-1.894L21 8.16l.366-.263h1.893l.365.263zm0 5.263l-.365.264h-1.894L21 13.42l.366-.262h1.893l.365.263zm.44-2.894l-.44-.47V8.27l.203-.375.202.376v2.256h.032zm-.035 2.256l-.203.376-.202-.376v-1.88l.438-.376v2.256h-.034zM26.795 10.526l-.545-.387V8.513l.545-.62v2.632zm0 2.632l-.545-.62v-1.702l.545-.31v2.632zM32.045 10.526l-.545-.387V8.513l.545-.62v2.632zm0 2.632l-.545-.677v-1.653l.545-.3v2.63zM.438 10.056l-.438.47V8.27l.202-.375.202.376v1.786h.033zm-.034 2.726l-.202.376L0 12.782v-2.256l.438.376v1.88H.403zm2.22-4.624L2.2 8.42H.366L0 8.16l.366-.263H2.26l.365.263zm0 5.263l-.426.264H.366L0 13.42l.366-.262H2.26l.365.263zm.438-2.894l-.437-.47V8.27l.202-.375.202.376v2.256h.033zm-.033 2.256l-.203.376-.202-.376v-1.88l.438-.376v2.256H3.03zM5.688 10.056l-.438.47V8.27l.202-.375.202.376v1.786h.034zm-.034 2.726l-.202.376-.202-.376v-2.256l.438.376v1.88h-.034zm2.22-4.624l-.365.263H5.615L5.25 8.16l.366-.263H7.51l.365.263zm0 5.263l-.365.264H5.615l-.366-.263.366-.262H7.51l.365.263zm.44-2.894l-.44-.47V8.27l.203-.375.202.376v2.256h.033zm-.035 2.256l-.203.376-.202-.376v-1.88l.438-.376v2.256h-.034zM11.045 10.526l-.545-.387V8.513l.545-.62v2.632zm0 2.632l-.545-.62v-1.702l.545-.31v2.632z"/><path d="M10.938 10.056l-.438.47V8.27l.202-.375.202.376v1.786h.034zm-.034 2.726l-.202.376-.202-.376v-2.256l.438.376v1.88h-.034zm2.22-4.624l-.365.263h-1.894L10.5 8.16l.366-.263h1.893l.365.263zm0 5.263l-.365.264h-1.894l-.366-.263.366-.262h1.893l.365.263zm.438-2.894l-.437-.47V8.27l.202-.375.202.376v2.256h.033zm0 2.256l-.2.376-.237-.376v-1.88l.438-.376v2.256zM16.188 10.056l-.438.47V8.27l.202-.375.202.376v1.786h.034zm-.034 2.726l-.202.376-.202-.376v-2.256l.438.376v1.88h-.034zm2.22-4.624l-.357.263h-1.85l-.417-.262.358-.263h1.85l.417.263zm0 5.263l-.357.264h-1.85l-.417-.263.358-.262h1.85l.417.263zm.44-2.894l-.44-.47V8.27l.203-.375.202.376v2.256h.032zm-.035 2.256l-.203.376-.202-.376v-1.88l.438-.376v2.256h-.034zM34.67 10.526l-.545-.387V8.513l.545-.62v2.632zm0 2.632l-.545-.62v-1.702l.545-.31v2.632zM37.188 10.056l-.438.47V8.27l.202-.375.202.376v1.786h.033zm0 2.726l-.236.376-.202-.376v-2.256l.438.376v1.88zm2.187-4.624l-.366.263h-1.894l-.366-.262.366-.263h1.893l.365.263zm0 5.263l-.366.264h-1.894l-.366-.263.366-.262h1.893l.365.263zm.438-2.894l-.438-.47V8.27l.202-.375.202.376v2.256h.032zm-.034 2.256l-.203.376-.202-.376v-1.88l.438-.376v2.256h-.034z"/><path d="M39.813 10.056l-.438.47V8.27l.202-.375.202.376v1.786h.032zm-.034 2.726l-.203.376-.202-.376v-2.256l.438.376v1.88h-.034zM42 8.158l-.366.263H39.74l-.365-.262.366-.263h1.894l.366.263zm0 5.263l-.366.264H39.74l-.365-.263.366-.262h1.894l.366.263zm.438-2.894l-.438-.47V8.27l.202-.375.202.376v2.256h.033zm-.034 2.256l-.202.376-.202-.376v-1.88l.438-.376v2.256h-.034zM21.545 10.526L21 10.14V8.513l.545-.62v2.632zm0 2.632l-.545-.62v-1.702l.545-.31v2.632zM.438 17.967L0 18.42v-2.268l.202-.363.202.362v1.815h.033zm-.034 2.71l-.202.376L0 20.677V18.42l.438.377v1.88H.403zm2.22-4.624l-.365.263H.365L0 16.053l.366-.264H2.26l.365.263zm0 5.263l-.365.263H.365L0 21.315l.366-.263H2.26l.365.263zm.438-2.895l-.437-.453v-1.815l.202-.363.202.362v2.27h.033zm-.033 2.257l-.203.376-.202-.376v-1.88l.438-.376v2.257H3.03zM5.795 18.42l-.545-.386V16.41l.545-.62v2.63zm0 2.633l-.545-.62V18.73l.545-.31v2.633zM11.045 18.42l-.545-.386V16.41l.545-.62v2.63zm0 2.633l-.545-.62V18.73l.545-.31v2.633z"/><path d="M10.938 17.967l-.438.454v-2.268l.202-.363.202.362v1.815h.034zm-.034 2.71l-.202.376-.202-.376V18.42l.438.377v1.88h-.034zm2.22-4.624l-.357.263h-1.85l-.417-.263.358-.264h1.85l.417.263zm0 5.263l-.357.263h-1.85l-.417-.264.358-.263h1.85l.417.263zm.438-2.895l-.437-.453v-1.815l.202-.363.202.362v2.27h.033zm-.033 2.257l-.203.376-.202-.376v-1.88l.438-.376v2.257h-.034zM16.188 17.967l-.438.454v-2.268l.202-.363.202.362v1.815h.034zm-.034 2.71l-.202.376-.202-.376V18.42l.438.377v1.88h-.034zm2.22-4.624l-.365.263h-1.894l-.366-.263.366-.264h1.893l.365.263zm0 5.263l-.365.263h-1.894l-.366-.264.366-.263h1.893l.365.263zm.44-2.895l-.44-.453v-1.815l.203-.363.202.362v2.27h.032zm-.035 2.257l-.203.376-.202-.376v-1.88l.438-.376v2.257h-.034zM21.503 18.42L21 18.035V16.41l.545-.62v2.63h-.042zm.042 2.633l-.545-.62V18.73l.545-.31v2.633z"/><path d="M21.438 17.967L21 18.42v-2.268l.202-.363.202.362v1.815h.034zm-.034 2.71l-.202.376-.202-.376V18.42l.438.377v1.88h-.034zm2.22-4.624l-.365.263h-1.894L21 16.053l.366-.264h1.893l.365.263zm0 5.263l-.365.263h-1.894L21 21.315l.366-.263h1.893l.365.263zm.44-2.895l-.44-.453v-1.815l.22-.363.218.362v2.27zm-.035 2.257l-.203.376-.202-.376v-1.88l.438-.376v2.257h-.034zM26.688 17.967l-.438.454v-2.268l.202-.363.202.362v1.815h.034zm-.034 2.71l-.202.376-.202-.376V18.42l.438.377v1.88h-.034zm2.22-4.624l-.365.263h-1.894l-.366-.263.366-.264h1.893l.365.263zm0 5.263l-.365.263h-1.894l-.366-.264.366-.263h1.893l.365.263zm.44-2.895l-.44-.453v-1.815l.203-.363.202.362v2.27h.032zm-.035 2.257l-.203.376-.202-.376v-1.88l.438-.376v2.257h-.034zM34.67 23.684l-.545-.387v-1.625l.545-.62v2.632zm0 2.632l-.545-.62v-1.702l.545-.31v2.632z"/><path d="M34.563 23.214l-.438.47V21.43l.202-.377.202.376v1.784h.032zm-.034 2.726l-.203.376-.202-.376v-2.256l.438.376v1.88h-.034zm2.22-4.624l-.358.263h-1.85l-.417-.264.358-.263h1.85l.417.263zm0 5.263l-.358.262h-1.85l-.417-.263.358-.264h1.85l.417.263zm.438-2.896l-.438-.47V21.43l.202-.377.202.376v2.254h.033zm-.034 2.256l-.202.376-.202-.376v-1.88l.438-.376v2.256h-.034zM39.813 23.308l-.438.376V21.43l.202-.377.202.376v1.878h.032zm0 2.632l-.202.376-.235-.376v-2.256l.438.376v1.88zM42 21.316l-.366.263H39.74l-.365-.264.366-.263h1.894l.366.263zm0 5.263l-.366.262H39.74l-.365-.263.366-.264h1.894l.366.263zm.438-2.896l-.438-.47V21.43l.202-.377.202.376v2.254h.033zm-.034 2.256l-.202.376L42 25.94v-1.88l.438-.376v2.256h-.034zM32.045 18.42l-.545-.386V16.41l.545-.62v2.63zm0 2.633l-.545-.62V18.73l.545-.31v2.633z"/><path d="M34.563 17.967l-.438.454v-2.268l.202-.363.236.362v1.815zm-.034 2.71l-.203.376-.202-.376V18.42l.438.377v1.88h-.034zm2.22-4.624l-.366.263H34.49l-.365-.263.366-.264h1.894l.366.263zm0 5.263l-.366.263H34.49l-.365-.264.366-.263h1.894l.366.263zm.438-2.895l-.438-.453v-1.815l.22-.363.218.362v2.27zm-.034 2.257l-.202.376-.202-.376v-1.88l.438-.376v2.257h-.034z"/><path d="M37.188 17.967l-.438.454v-2.268l.202-.363.202.362v1.815h.033zm-.034 2.71l-.202.376-.202-.376V18.42l.438.377v1.88h-.034zm2.22-4.624l-.365.263h-1.894l-.366-.263.366-.264h1.893l.365.263zm0 5.263l-.365.263h-1.894l-.366-.264.366-.263h1.893l.365.263zm.438-2.895l-.437-.453v-1.815l.22-.363.218.362v2.27zm-.033 2.163l-.203.47-.202-.376v-1.88l.438-.376v2.163h-.034zM42.545 18.42L42 18.035V16.41l.545-.62v2.63zm0 2.633l-.545-.62V18.73l.545-.31v2.633z"/><g transform="translate(0 21.053)"><path d="M24.063 2.162l-.438.47V.376L23.827 0l.202.376v1.786h.032zm-.034 2.725l-.203.376-.202-.376V2.632l.438.376v1.88h-.034zM26.25.263l-.366.263H23.99l-.365-.263L23.99 0h1.894l.366.263zm0 5.263l-.366.263H23.99l-.365-.264.366-.263h1.894l.366.263zm.438-2.894l-.438-.47V.376L26.452 0l.202.376v2.256h.034zm-.034 2.255l-.202.376-.202-.376v-1.88l.438-.375v2.255h-.034z"/><path d="M26.803 2.632l-.553-.387V.62l.553-.62v2.632zm0 2.63l-.553-.618V2.94l.553-.308v2.63zM32.053 2.632l-.553-.32V.64L32.053 0v2.632zm0 2.63l-.553-.618V2.94l.553-.308v2.63zM.438 2.162L0 2.632V.376L.202 0l.202.376v1.786h.033zM.403 4.887l-.202.376L0 4.887V2.632l.438.376v1.88H.403zM2.624.263L2.2.526H.366L0 .263.366 0H2.26l.365.263zm0 5.263L2.2 5.79H.366L0 5.525l.366-.263H2.26l.365.263zm.438-2.894l-.437-.47V.376L2.827 0l.202.376v2.256h.033zM3.03 4.887l-.203.376-.202-.376v-1.88l.438-.375v2.255H3.03zM5.688 2.162l-.438.47V.376L5.452 0l.202.376v1.786h.034zm-.034 2.725l-.202.376-.202-.376V2.632l.438.376v1.88h-.034zM7.874.263L7.51.526H5.615L5.25.263 5.616 0H7.51l.365.263zm0 5.263l-.365.263H5.615l-.366-.264.366-.263H7.51l.365.263zm.44-2.894l-.44-.47V.376L8.078 0l.202.376v2.256h.033zm-.035 2.255l-.203.376-.202-.376v-1.88l.438-.375v2.255h-.034zM11.053 2.632l-.553-.387V.62l.553-.62v2.632zm0 2.63l-.553-.618V2.94l.553-.308v2.63z"/><path d="M10.938 2.162l-.438.47V.376L10.702 0l.202.376v1.786h.034zm-.034 2.725l-.202.376-.202-.376V2.632l.438.376v1.88h-.034zm2.22-4.624l-.365.263h-1.894L10.5.263 10.866 0h1.893l.365.263zm0 5.263l-.365.263h-1.894l-.366-.264.366-.263h1.893l.365.263zm.438-2.894l-.437-.39V.39l.202-.39.202.39v2.242h.033zm0 2.255l-.2.376-.237-.376v-1.88l.438-.375v2.255zM16.188 2.162l-.438.47V.376L15.952 0l.202.376v1.786h.034zm-.034 2.725l-.202.376-.202-.376V2.632l.438.376v1.88h-.034zm2.22-4.624l-.357.263h-1.85L15.75.263 16.108 0h1.85l.417.263zm0 5.263l-.357.263h-1.85l-.417-.264.358-.263h1.85l.417.263zm.44-2.894l-.44-.47V.376L18.578 0l.202.376v2.256h.032zm-.035 2.255l-.203.376-.202-.376v-1.88l.438-.375v2.255h-.034zM21.553 2.632L21 2.245V.62l.553-.62v2.632zm0 2.63L21 4.645V2.94l.553-.308v2.63z"/></g></g><g transform="translate(21 5.263)"><path d="M34.215 41.238c1.153 1.156 2.98 1.156 4.133 0l2.787-2.794c1.153-1.156 1.153-2.987 0-4.143L27.92 21.054 21 27.99l13.215 13.248z" fill="url(#li)" filter="url(#lj)"/><ellipse fill="url(#lk)" filter="url(#ll)" cx="17.063" cy="17.105" rx="17.063" ry="17.105"/><path d="M6.853 6.87c5.637-5.65 14.782-5.65 20.42 0 5.636 5.65 5.636 14.82 0 20.47-5.638 5.652-14.783 5.652-20.42 0-5.637-5.65-5.637-14.82 0-20.47z" fill-opacity=".3" fill="url(#lm)"/><ellipse fill="url(#ln)" filter="url(#lo)" cx="15.75" cy="15.789" rx="13.125" ry="13.158"/></g><path d="M35.438 20.113l-2.626.94V16.54l1.212-.75 1.212.75v3.573h.202zm-.202 5.45l-1.212.753-1.212-.752v-4.51l2.626.75v3.76h-.202zM42 14.212l-1.1 1.053h-5.676l-1.1-1.052 1.1-1.052H40.9L42 14.21zm0 13.158l-1.1 1.053h-5.676l-1.1-1.052 1.1-1.052H40.9l1.1 1.052zm1.313-6.315l-2.626-.94V16.54l1.212-.75 1.21.75v4.513h.203zm-.202 4.51l-1.21.753-1.212-.752v-3.76l2.624-.75v4.51h-.2z" fill="#FFF"/></g></svg><svg width="35" height="35" viewBox="0 0 100 100" id="top_nav_icon_reporting_mangement" y="105"><title>top_nav_icon_reporting_mangement</title><defs><linearGradient x1="-24.243%" y1="11.597%" x2="131.227%" y2="97.092%" id="ma"><stop stop-color="#DEDEDE" offset="0%"/><stop stop-color="#ABABAA" offset="100%"/></linearGradient><filter x="-50%" y="-50%" width="200%" height="200%" filterUnits="objectBoundingBox" id="mb"><feOffset dy="4" in="SourceAlpha" result="shadowOffsetOuter1"/><feGaussianBlur stdDeviation="4" in="shadowOffsetOuter1" result="shadowBlurOuter1"/><feColorMatrix values="0 0 0 0 0 0 0 0 0 0 0 0 0 0 0 0 0 0 0.35 0" in="shadowBlurOuter1" result="shadowMatrixOuter1"/><feMerge><feMergeNode in="shadowMatrixOuter1"/><feMergeNode in="SourceGraphic"/></feMerge></filter><linearGradient x1="-97.406%" y1="-4.104%" x2="127.766%" y2="119.405%" id="mc"><stop stop-color="#FFF" offset="0%"/><stop stop-color="#7B7B7B" offset="100%"/></linearGradient><filter x="-50%" y="-50%" width="200%" height="200%" filterUnits="objectBoundingBox" id="md"><feOffset dy="4" in="SourceAlpha" result="shadowOffsetOuter1"/><feGaussianBlur stdDeviation="4" in="shadowOffsetOuter1" result="shadowBlurOuter1"/><feColorMatrix values="0 0 0 0 0 0 0 0 0 0 0 0 0 0 0 0 0 0 0.35 0" in="shadowBlurOuter1" result="shadowMatrixOuter1"/><feMerge><feMergeNode in="shadowMatrixOuter1"/><feMergeNode in="SourceGraphic"/></feMerge></filter><filter x="-50%" y="-50%" width="200%" height="200%" filterUnits="objectBoundingBox" id="me"><feOffset dy="-4" in="SourceAlpha" result="shadowOffsetOuter1"/><feGaussianBlur stdDeviation="4" in="shadowOffsetOuter1" result="shadowBlurOuter1"/><feColorMatrix values="0 0 0 0 0 0 0 0 0 0 0 0 0 0 0 0 0 0 0.35 0" in="shadowBlurOuter1" result="shadowMatrixOuter1"/><feMerge><feMergeNode in="shadowMatrixOuter1"/><feMergeNode in="SourceGraphic"/></feMerge></filter><filter x="-50%" y="-50%" width="200%" height="200%" filterUnits="objectBoundingBox" id="mf"><feOffset dy="-4" in="SourceAlpha" result="shadowOffsetOuter1"/><feGaussianBlur stdDeviation="4" in="shadowOffsetOuter1" result="shadowBlurOuter1"/><feColorMatrix values="0 0 0 0 0 0 0 0 0 0 0 0 0 0 0 0 0 0 0.35 0" in="shadowBlurOuter1" result="shadowMatrixOuter1"/><feMerge><feMergeNode in="shadowMatrixOuter1"/><feMergeNode in="SourceGraphic"/></feMerge></filter><filter x="-50%" y="-50%" width="200%" height="200%" filterUnits="objectBoundingBox" id="mg"><feOffset dy="-4" in="SourceAlpha" result="shadowOffsetOuter1"/><feGaussianBlur stdDeviation="4" in="shadowOffsetOuter1" result="shadowBlurOuter1"/><feColorMatrix values="0 0 0 0 0 0 0 0 0 0 0 0 0 0 0 0 0 0 0.35 0" in="shadowBlurOuter1" result="shadowMatrixOuter1"/><feMerge><feMergeNode in="shadowMatrixOuter1"/><feMergeNode in="SourceGraphic"/></feMerge></filter><linearGradient x1="50%" y1="0%" x2="50%" y2="100%" id="mh"><stop stop-color="#DDE1D8" offset="0%"/><stop stop-color="#A4A4A4" offset="100%"/></linearGradient><filter x="-50%" y="-50%" width="200%" height="200%" filterUnits="objectBoundingBox" id="mi"><feOffset dy="2" in="SourceAlpha" result="shadowOffsetInner1"/><feGaussianBlur stdDeviation="1" in="shadowOffsetInner1" result="shadowBlurInner1"/><feComposite in="shadowBlurInner1" in2="SourceAlpha" operator="arithmetic" k2="-1" k3="1" result="shadowInnerInner1"/><feColorMatrix values="0 0 0 0 0 0 0 0 0 0 0 0 0 0 0 0 0 0 0.311877264 0" in="shadowInnerInner1" result="shadowMatrixInner1"/><feMerge><feMergeNode in="SourceGraphic"/><feMergeNode in="shadowMatrixInner1"/></feMerge></filter><filter x="-50%" y="-50%" width="200%" height="200%" filterUnits="objectBoundingBox" id="mj"><feOffset dy="2" in="SourceAlpha" result="shadowOffsetInner1"/><feGaussianBlur stdDeviation="3" in="shadowOffsetInner1" result="shadowBlurInner1"/><feComposite in="shadowBlurInner1" in2="SourceAlpha" operator="arithmetic" k2="-1" k3="1" result="shadowInnerInner1"/><feColorMatrix values="0 0 0 0 0 0 0 0 0 0 0 0 0 0 0 0 0 0 0.35 0" in="shadowInnerInner1" result="shadowMatrixInner1"/><feMerge><feMergeNode in="SourceGraphic"/><feMergeNode in="shadowMatrixInner1"/></feMerge></filter></defs><g transform="translate(25 28)" fill="none" fill-rule="evenodd"><path d="M10.696 0C8.45 0 6.762 1.816 6.922 4.057L7.927 18.13c.16 2.242 2.11 4.058 4.36 4.058h24.64c2.246 0 4.192-1.816 4.346-4.057l.966-14.073C42.392 1.817 40.69 0 38.453 0H10.696z" fill="#B0B1AF"/><path d="M0 23.883L7.374 1.695l1.563 22.188H0z" fill="url(#ma)" filter="url(#mb)"/><path d="M40.216 23.883l7.41-22.188 1.527 22.188h-8.937z" fill="url(#mc)" filter="url(#md)" transform="matrix(-1 0 0 1 89.368 0)"/><path d="M8.937 6.656l1.602 17.75h28.74l.936-17.75H8.936z" fill="#6C0" filter="url(#me)"/><path d="M6.703 11.094l1.716 17.75h30.793l1.003-17.75H6.703z" fill="#6C0" filter="url(#mf)"/><path d="M4.468 15.532l2.06 19.97H43.48l1.204-19.97H4.468z" fill="#6C0" filter="url(#mg)"/><rect fill="url(#mh)" y="20.339" width="49.153" height="28.844" rx="4.068"/><path d="M32.024 35.316h-15.64V26.44h15.64v8.876zm-13.406-2.22h11.17V28.66H18.62v4.437z" fill="#3A3A3A" filter="url(#mi)"/><path d="M26.997 37.112c0-1.4-1-2.536-2.235-2.536-1.235 0-2.234 1.135-2.234 2.536 0 .855.373 1.605.942 2.063l-.94 4.276h4.467l-.942-4.275c.57-.458.942-1.208.942-2.063z" fill="#3B3B3B" filter="url(#mj)"/></g></svg><svg width="35" height="35" viewBox="0 0 100 100" id="top_nav_icon_rules" x="35" y="105"><title>top_nav_icon_rules</title><defs><linearGradient x1="0%" y1="47.765%" x2="100.255%" y2="52.632%" id="na"><stop stop-color="#9FA4A4" offset="0%"/><stop stop-color="#9FA4A4" offset="6.3%"/><stop stop-color="#E6DFDF" offset="49.47%"/><stop stop-color="#9FA4A4" offset="96.458%"/><stop stop-color="#959494" offset="100%"/></linearGradient><linearGradient x1="50%" y1="0%" x2="50%" y2="100%" id="nb"><stop stop-color="#FFF" offset="0%"/><stop stop-color="#C8C8C8" offset="100%"/></linearGradient><filter x="-50%" y="-50%" width="200%" height="200%" filterUnits="objectBoundingBox" id="nc"><feOffset dy="4" in="SourceAlpha" result="shadowOffsetOuter1"/><feGaussianBlur stdDeviation="3.5" in="shadowOffsetOuter1" result="shadowBlurOuter1"/><feColorMatrix values="0 0 0 0 0 0 0 0 0 0 0 0 0 0 0 0 0 0 0.35 0" in="shadowBlurOuter1" result="shadowMatrixOuter1"/><feMerge><feMergeNode in="shadowMatrixOuter1"/><feMergeNode in="SourceGraphic"/></feMerge></filter><radialGradient cx="49.763%" cy="49.852%" fx="49.763%" fy="49.852%" r="50.266%" id="nd"><stop stop-color="#4A4C4C" offset="0%"/><stop stop-color="#333" offset="100%"/></radialGradient><filter x="-50%" y="-50%" width="200%" height="200%" filterUnits="objectBoundingBox" id="ne"><feOffset dy="-2" in="SourceAlpha" result="shadowOffsetOuter1"/><feGaussianBlur stdDeviation="2" in="shadowOffsetOuter1" result="shadowBlurOuter1"/><feColorMatrix values="0 0 0 0 0 0 0 0 0 0 0 0 0 0 0 0 0 0 0.35 0" in="shadowBlurOuter1" result="shadowMatrixOuter1"/><feMerge><feMergeNode in="shadowMatrixOuter1"/><feMergeNode in="SourceGraphic"/></feMerge></filter><linearGradient x1="100%" y1="58.923%" x2="0%" y2="58.923%" id="nf"><stop stop-color="#999" offset="0%"/><stop stop-color="#666" offset="100%"/></linearGradient><rect id="ng" width="4.583" height="36.98" rx="4.622"/><linearGradient x1="50%" y1="0%" x2="50%" y2="100%" id="nh"><stop stop-color="#B4EE42" offset="0%"/><stop stop-color="#466D01" offset="100%"/></linearGradient><rect id="nj" x="2.292" width="4.583" height="36.98" rx="4.622"/><rect id="nl" width="4.583" height="36.98" rx="4.622"/><linearGradient x1="50%" y1="0%" x2="50%" y2="100%" id="nn"><stop stop-color="#FEFEFE" offset="0%"/><stop stop-color="#F0F0F0" offset="100%"/></linearGradient><filter x="-50%" y="-50%" width="200%" height="200%" filterUnits="objectBoundingBox" id="no"><feOffset in="SourceAlpha" result="shadowOffsetOuter1"/><feGaussianBlur stdDeviation="2" in="shadowOffsetOuter1" result="shadowBlurOuter1"/><feColorMatrix values="0 0 0 0 0 0 0 0 0 0 0 0 0 0 0 0 0 0 0.35 0" in="shadowBlurOuter1" result="shadowMatrixOuter1"/><feMerge><feMergeNode in="shadowMatrixOuter1"/><feMergeNode in="SourceGraphic"/></feMerge></filter><filter x="-50%" y="-50%" width="200%" height="200%" filterUnits="objectBoundingBox" id="np"><feOffset in="SourceAlpha" result="shadowOffsetOuter1"/><feGaussianBlur stdDeviation="2" in="shadowOffsetOuter1" result="shadowBlurOuter1"/><feColorMatrix values="0 0 0 0 0 0 0 0 0 0 0 0 0 0 0 0 0 0 0.35 0" in="shadowBlurOuter1" result="shadowMatrixOuter1"/><feMerge><feMergeNode in="shadowMatrixOuter1"/><feMergeNode in="SourceGraphic"/></feMerge></filter><filter x="-50%" y="-50%" width="200%" height="200%" filterUnits="objectBoundingBox" id="nq"><feOffset in="SourceAlpha" result="shadowOffsetOuter1"/><feGaussianBlur stdDeviation="2" in="shadowOffsetOuter1" result="shadowBlurOuter1"/><feColorMatrix values="0 0 0 0 0 0 0 0 0 0 0 0 0 0 0 0 0 0 0.35 0" in="shadowBlurOuter1" result="shadowMatrixOuter1"/><feMerge><feMergeNode in="shadowMatrixOuter1"/><feMergeNode in="SourceGraphic"/></feMerge></filter></defs><g transform="translate(23 30)" fill="none" fill-rule="evenodd"><g transform="translate(0 .77)"><path d="M0 2.723v-1.28C0 .64.452 0 1.016 0h52.968C54.548 0 55 .64 55 1.442v1.28H0z" fill="url(#na)"/><path d="M0 1.156v43.98c0 .643.452 1.156 1.016 1.156h52.968c.564 0 1.016-.513 1.016-1.156V1.156C55 .514 54.548 0 53.984 0H1.016C.452 0 0 .514 0 1.156z" fill="url(#nb)" filter="url(#nc)"/><path fill="url(#nd)" filter="url(#ne)" d="M2.39 2.723H52.61V43.57H2.39z"/></g><g transform="translate(6.875 6.086)"><g transform="rotate(90 19.543 20.728)"><rect fill="url(#nf)" x="2.292" y=".522" width="4.583" height="36.98" rx="4.622"/><g transform="translate(2.292 .522)"><mask id="ni" fill="#fff"><use xlink:href="#ng"/></mask><use xlink:href="#ng"/><path fill="url(#nh)" mask="url(#ni)" d="M0 16.18h4.583v23.11H0z"/></g></g><g transform="rotate(90 14.915 25.355)"><rect fill="url(#nf)" x="4.583" y=".522" width="4.583" height="36.98" rx="4.622"/><g transform="translate(2.292 .522)"><mask id="nk" fill="#fff"><use xlink:href="#nj"/></mask><use xlink:href="#nj"/><path fill="url(#nh)" mask="url(#nk)" d="M2.292 4.622h4.583v34.67H2.292z"/></g></g><g transform="rotate(90 7.987 32.284)"><rect fill="url(#nf)" x="2.292" y=".522" width="4.583" height="36.98" rx="4.622"/><g transform="translate(2.292 .522)"><mask id="nm" fill="#fff"><use xlink:href="#nl"/></mask><use xlink:href="#nl"/><path fill="url(#nh)" mask="url(#nm)" d="M0 18.49h4.583v20.8H0z"/></g></g><rect fill="url(#nn)" filter="url(#no)" x="18.333" y="3.467" width="9.167" height="4.622" rx="4.622"/><rect fill="url(#nn)" filter="url(#np)" x="27.5" y="15.023" width="9.167" height="4.622" rx="4.622"/><rect fill="url(#nn)" filter="url(#nq)" x="16.042" y="26.579" width="9.167" height="4.622" rx="4.622"/></g></g></svg><svg width="35" height="35" viewBox="0 0 100 100" id="top_nav_icon_system_preference" x="70" y="105"><title>top_nav_icon_system_preference</title><defs><radialGradient cx="50.039%" cy="50.032%" fx="50.039%" fy="50.032%" r="50.039%" id="oa"><stop stop-color="#9D9FA2" offset="0%"/><stop stop-color="#989395" offset="0%"/><stop stop-color="#D7D7D7" offset="88.616%"/><stop stop-color="#FFFCFC" offset="100%"/><stop stop-color="#6A6A6A" offset="100%"/></radialGradient><radialGradient cx="50.044%" cy="49.976%" fx="50.044%" fy="49.976%" r="49.985%" id="ob"><stop stop-color="#536358" offset="0%"/><stop stop-color="#13181A" offset="100%"/></radialGradient><linearGradient x1="50%" y1="0%" x2="50%" y2="95.038%" id="oc"><stop stop-color="#FFF" stop-opacity="0" offset="0%"/><stop stop-color="#0C2804" stop-opacity=".717" offset="100%"/></linearGradient><circle id="od" cx="27.5" cy="27.5" r="20.625"/><radialGradient cx="55.544%" fx="55.544%" fy="50%" r="64.565%" id="oe"><stop stop-color="#A0D790" stop-opacity=".833" offset="0%"/><stop stop-color="#6C0" offset="100%"/></radialGradient></defs><g transform="translate(23 23)" fill="none" fill-rule="evenodd"><path d="M55 27.47C55 42.625 42.726 55 27.5 55 12.332 55 0 42.68 0 27.53 0 12.375 12.332 0 27.5 0S55 12.32 55 27.47z" fill="url(#oa)"/><path d="M27.5 4.583c12.623 0 22.917 10.24 22.917 22.917 0 12.677-10.24 22.917-22.917 22.917-12.623 0-22.917-10.24-22.917-22.917 0-12.677 10.294-22.917 22.917-22.917z" stroke-opacity=".52" stroke="#7C7B7B" stroke-width="2.292" fill="url(#ob)"/><circle fill="url(#oc)" cx="25.408" cy="25.408" r="20.625"/><mask id="of" fill="#fff"><use xlink:href="#od"/></mask><use xlink:href="#od"/><path d="M16.958 16.516c-.297-1.463-.872-2.824-1.67-4.027l2.85-2.85-3.242-3.24-2.848 2.848c-1.202-.797-2.564-1.372-4.027-1.67V5.06H3.44v2.52C1.974 7.877.612 8.452-.59 9.25L-3.438 6.4l-3.24 3.24 2.847 2.85c-.797 1.202-1.373 2.563-1.67 4.026h-2.52V21.1h2.52c.297 1.463.873 2.824 1.67 4.027l-2.848 2.848 3.24 3.24L-.59 28.37c1.203.796 2.565 1.372 4.027 1.67v2.52h4.584v-2.52c1.464-.298 2.826-.874 4.028-1.67l2.848 2.848 3.24-3.24-2.847-2.85c.796-1.202 1.37-2.563 1.668-4.026h2.52v-4.584h-2.52zm-11.23 9.167c3.798 0 6.876-3.078 6.876-6.875s-3.078-6.875-6.875-6.875c-3.798 0-6.876 3.078-6.876 6.875s3.078 6.875 6.875 6.875zM49.042 25.683c-.297-1.463-.873-2.825-1.67-4.027l2.848-2.848-3.24-3.24-2.848 2.847c-1.203-.797-2.565-1.373-4.028-1.67v-2.52H35.52v2.52c-1.462.297-2.824.873-4.027 1.67l-2.847-2.848-3.24 3.24 2.847 2.85c-.797 1.2-1.373 2.563-1.67 4.026h-2.52v4.583h2.52c.297 1.463.873 2.825 1.67 4.028l-2.848 2.847 3.24 3.242 2.848-2.847c1.203.796 2.565 1.372 4.028 1.67v2.52h4.584v-2.52c1.463-.298 2.825-.874 4.028-1.67l2.847 2.847 3.24-3.24-2.848-2.848c.797-1.203 1.373-2.565 1.67-4.028h2.52v-4.583h-2.52zm-11.23 9.167c3.797 0 6.876-3.078 6.876-6.875s-3.08-6.875-6.876-6.875c-3.796 0-6.874 3.078-6.874 6.875s3.078 6.875 6.875 6.875z" fill="url(#oe)" mask="url(#of)"/></g></svg><svg width="35" height="35" viewBox="0 0 100 100" id="top_nav_icon_topology" x="105" y="105"><title>top_nav_icon_topology</title><defs><radialGradient cx="75.215%" cy="31.895%" fx="75.215%" fy="31.895%" r="100.707%" id="pa"><stop stop-color="#BBFE78" offset="0%"/><stop stop-color="#5CB207" offset="59.526%"/><stop stop-color="#67C40A" offset="81.399%"/><stop stop-color="#529C07" offset="100%"/></radialGradient><linearGradient x1="50%" y1="0%" x2="50%" y2="100%" id="pb"><stop stop-color="#FFF" offset="0%"/><stop stop-color="#B4ABAB" offset="59.845%"/><stop stop-color="#B2B0B0" offset="100%"/></linearGradient><linearGradient x1="0%" y1="37.793%" y2="37.793%" id="pc"><stop stop-color="#FFF" offset="0%"/><stop stop-color="#919191" offset="76.196%"/><stop stop-color="#C7C7C7" offset="100%"/></linearGradient><radialGradient cy="0%" fx="50%" fy="0%" r="100%" id="pd"><stop stop-color="#938F8F" offset="0%"/><stop stop-color="#242424" offset="100%"/></radialGradient><radialGradient cx="65.843%" cy="16.866%" fx="65.843%" fy="16.866%" r="77.705%" id="pe"><stop stop-color="#A5E852" offset="0%"/><stop stop-color="#5CA632" offset="72.146%"/><stop stop-color="#4B962D" offset="100%"/></radialGradient><linearGradient x1="20.224%" y1="50%" x2="50%" y2="38.059%" id="pf"><stop stop-color="#FFF" offset="0%"/><stop stop-color="#C0C0C0" offset="76.196%"/><stop stop-color="#D7D2D2" offset="100%"/></linearGradient><linearGradient x1="20.224%" y1="50%" x2="50%" y2="37.279%" id="pg"><stop stop-color="#FFF" offset="0%"/><stop stop-color="#B5B2B2" offset="76.196%"/><stop stop-color="#D6D1D1" offset="100%"/></linearGradient><linearGradient x1="25.13%" y1="50%" x2="50%" y2="49.49%" id="ph"><stop stop-color="#FFF" offset="0%"/><stop stop-color="#ADA9A9" offset="76.196%"/><stop stop-color="#C7C7C7" offset="100%"/></linearGradient></defs><g transform="translate(19 21)" fill="none" fill-rule="evenodd"><ellipse fill="url(#pa)" cx="33.212" cy="32.702" rx="6.348" ry="6.54"/><path d="M32.947 43.057c5.405 0 9.787-4.514 9.787-10.083 0-5.568-4.382-10.083-9.787-10.083-5.405 0-9.787 4.516-9.787 10.084 0 5.57 4.382 10.083 9.787 10.083zm0-1.09c4.82 0 8.73-4.026 8.73-8.993 0-4.966-3.91-8.993-8.73-8.993s-8.73 4.028-8.73 8.994c0 4.967 3.91 8.993 8.73 8.993z" fill="url(#pb)"/><g transform="rotate(-8 114.236 -66.85)"><path d="M5.02 7.08l6.25 7.836 1.808-1.286-6.252-7.835L5.02 7.08z" fill="url(#pc)"/><ellipse fill="url(#pd)" cx="12.168" cy="14.716" rx="2.116" ry="2.18"/><ellipse fill="url(#pe)" cx="3.968" cy="4.088" rx="3.968" ry="4.088"/></g><g transform="rotate(75 26.12 34.79)"><path d="M10.198 11.77l8.336 10.447 1.806-1.286-8.335-10.445-1.807 1.285z" fill="url(#pc)"/><ellipse fill="url(#pd)" cx="18.516" cy="21.801" rx="2.116" ry="2.18"/><path d="M6.613 13.626c3.652 0 6.613-3.05 6.613-6.813S10.266 0 6.613 0C2.96 0 0 3.05 0 6.813s2.96 6.813 6.613 6.813z" fill="url(#pe)"/></g><g transform="rotate(-73 30.43 22.07)"><path d="M5.974 8.027l8.584 11.317 1.69-1.265L7.664 6.76l-1.69 1.267z" fill="url(#pf)"/><ellipse fill="url(#pd)" cx="15.563" cy="19.762" rx="2.116" ry="2.18"/><path d="M6.192 9.952c2.13 0 3.855-1.708 3.855-3.815S8.32 2.32 6.192 2.32c-2.13 0-3.855 1.71-3.855 3.817s1.726 3.815 3.855 3.815z" fill="url(#pe)"/></g><g transform="rotate(28 -63.887 85.172)"><path d="M1.334 3.114l5.613 7.4 1.69-1.266-5.613-7.4-1.69 1.266z" fill="url(#pg)"/><ellipse fill="url(#pd)" cx="2.116" cy="2.18" rx="2.116" ry="2.18"/><ellipse fill="url(#pe)" cx="9.787" cy="11.991" rx="5.555" ry="5.45"/></g><g transform="rotate(-22 95.81 -86.765)"><path fill="url(#ph)" transform="rotate(-37 5.82 6.813)" d="M4.76.545h2.117V13.08H4.76z"/><ellipse fill="url(#pd)" cx="2.116" cy="2.18" rx="2.116" ry="2.18"/><ellipse fill="url(#pe)" cx="10.845" cy="13.353" rx="3.968" ry="4.088"/></g></g></svg></svg>