<svg xmlns="http://www.w3.org/2000/svg" viewBox="0 262 612 512" enable-background="new 0 262 612 512"><path stroke="#D7DBDB" stroke-width="2" stroke-miterlimit="10" d="M238.7 360.8v331.6" fill="none"/><path stroke="#D7DBDB" stroke-width="1.59" stroke-miterlimit="10" d="M407.5 708.9l-168.8-124.2m176.8-131.1l-168.9 124.4" fill="none"/><path stroke="#D7DBDB" stroke-width="2" stroke-miterlimit="10" d="M549.6 582.4h-468.3" fill="none"/><path fill="#F8F8F8" d="M273.2 284.5h-69c-4.5 0-8.2 3.7-8.2 8.2v70.1c0 4.5 3.7 8.2 8.2 8.2h69c4.5 0 8.2-3.7 8.2-8.2h.1v-70.1c0-4.5-3.8-8.2-8.3-8.2zm0 130.7h-69c-4.5 0-8.2 3.7-8.2 8.2v70.1c0 4.5 3.7 8.2 8.2 8.2h69c4.5 0 8.2-3.7 8.2-8.2h.1v-70.1c0-4.6-3.8-8.2-8.3-8.2zm178.6 0h-69c-4.5 0-8.2 3.7-8.2 8.2v70.1c0 4.5 3.7 8.2 8.2 8.2h69c4.5 0 8.2-3.7 8.2-8.2h.1v-70.1c0-4.6-3.7-8.2-8.3-8.2zm-178.6 246.3h-69c-4.5 0-8.2 3.7-8.2 8.2v70.1c0 4.5 3.7 8.2 8.2 8.2h69c4.5 0 8.2-3.7 8.2-8.2h.1v-70.1c0-4.5-3.8-8.2-8.3-8.2zm178.6 0h-69c-4.5 0-8.2 3.7-8.2 8.2v70.1c0 4.5 3.7 8.2 8.2 8.2h69c4.5 0 8.2-3.7 8.2-8.2h.1v-70.1c0-4.5-3.7-8.2-8.3-8.2zm-178.6-122.4h-69c-4.5 0-8.2 3.7-8.2 8.2v70.1c0 4.5 3.7 8.2 8.2 8.2h69c4.5 0 8.2-3.7 8.2-8.2h.1v-70.1c0-4.5-3.8-8.2-8.3-8.2zm-181.1 0h-69c-4.5 0-8.2 3.7-8.2 8.2v70.1c0 4.5 3.7 8.2 8.2 8.2h69c4.5 0 8.2-3.7 8.2-8.2h.1v-70.1c0-4.5-3.7-8.2-8.3-8.2zm512.7 0h-69c-4.5 0-8.2 3.7-8.2 8.2v70.1c0 4.5 3.7 8.2 8.2 8.2h69c4.5 0 8.2-3.7 8.2-8.2h.1v-70.1c0-4.5-3.8-8.2-8.3-8.2z"/><path fill="#D7DBDB" d="M264.4 318.7h-51.2c-2.9 0-5.1 2.3-5.1 5.1v8c0 2.9 2.3 5.1 5.1 5.1h51.2c2.9 0 5.1-2.3 5.1-5.1v-8c0-2.9-2.4-5.1-5.1-5.1zm-23.8 12.4h-9.2v-5.6h2.4v-1.5h4.4v1.5h2.4v5.6zm12.6 0h-9.2v-5.6h2.4v-1.5h4.4v1.5h2.4v5.6zm12.2 0h-9.2v-5.6h2.4v-1.5h4.4v1.5h2.4v5.6zm-1 118.2h-51.2c-2.9 0-5.1 2.3-5.1 5.1v8c0 2.9 2.3 5.1 5.1 5.1h51.2c2.9 0 5.1-2.3 5.1-5.1v-8c0-2.8-2.4-5.1-5.1-5.1zm-23.8 12.4h-9.2v-5.6h2.4v-1.5h4.4v1.5h2.4v5.6zm12.6 0h-9.2v-5.6h2.4v-1.5h4.4v1.5h2.4v5.6zm12.2 0h-9.2v-5.6h2.4v-1.5h4.4v1.5h2.4v5.6zm-1 111.6h-51.2c-2.9 0-5.1 2.3-5.1 5.1v8c0 2.9 2.3 5.1 5.1 5.1h51.2c2.9 0 5.1-2.3 5.1-5.1v-8c0-2.8-2.4-5.1-5.1-5.1zm-23.8 12.5h-9.2v-5.6h2.4v-1.5h4.4v1.5h2.4v5.6zm12.6 0h-9.2v-5.6h2.4v-1.5h4.4v1.5h2.4v5.6zm12.2 0h-9.2v-5.6h2.4v-1.5h4.4v1.5h2.4v5.6zm-1 109.9h-51.2c-2.9 0-5.1 2.3-5.1 5.1v8c0 2.9 2.3 5.1 5.1 5.1h51.2c2.9 0 5.1-2.3 5.1-5.1v-8c0-2.8-2.4-5.1-5.1-5.1zm-23.8 12.5h-9.2v-5.6h2.4v-1.6h4.4v1.5h2.4v5.6zm12.6 0h-9.2v-5.6h2.4v-1.6h4.4v1.5h2.4v5.6zm12.2 0h-9.2v-5.6h2.4v-1.6h4.4v1.5h2.4v5.6zm177.5-12.5h-51.2c-2.9 0-5.1 2.3-5.1 5.1v8c0 2.9 2.3 5.1 5.1 5.1h51.2c2.9 0 5.1-2.3 5.1-5.1v-8c.1-2.8-2.3-5.1-5.1-5.1zm-23.7 12.5h-9.2v-5.6h2.4v-1.6h4.4v1.5h2.4v5.6zm12.7 0h-9.2v-5.6h2.4v-1.6h4.4v1.5h2.4v5.6zm12.1 0h-9.2v-5.6h2.4v-1.6h4.4v1.5h2.4v5.6zm-360.8-134.9h-51.2c-2.9 0-5.1 2.3-5.1 5.1v8c0 2.9 2.3 5.1 5.1 5.1h51.2c2.9 0 5.1-2.3 5.1-5.1v-8c.1-2.8-2.2-5.1-5.1-5.1zm-23.7 12.5h-9.2v-5.6h2.4v-1.5h4.4v1.5h2.4v5.6zm12.7 0h-9.2v-5.6h2.4v-1.5h4.4v1.5h2.2v5.6h.2zm12.1 0h-9.3v-5.6h2.4v-1.5h4.5v1.5h2.4v5.6zm511.6-12.5h-51.2c-2.9 0-5.1 2.3-5.1 5.1v8c0 2.9 2.3 5.1 5.1 5.1h51.2c2.9 0 5.1-2.3 5.1-5.1v-8c.1-2.8-2.3-5.1-5.1-5.1zm-23.8 12.5h-9.2v-5.6h2.4v-1.5h4.4v1.5h2.4v5.6zm12.8 0h-9.2v-5.6h2.4v-1.5h4.4v1.5h2.4v5.6zm12.1 0h-9.2v-5.6h2.4v-1.5h4.4v1.5h2.4v5.6zm-154.1-136.5h-51.2c-2.9 0-5.1 2.3-5.1 5.1v8c0 2.9 2.3 5.1 5.1 5.1h51.2c2.9 0 5.1-2.3 5.1-5.1v-8c.1-2.8-2.3-5.1-5.1-5.1zm-23.7 12.4h-9.2v-5.6h2.4v-1.5h4.4v1.5h2.4v5.6zm12.7 0h-9.2v-5.6h2.4v-1.5h4.4v1.5h2.4v5.6zm12.1 0h-9.2v-5.6h2.4v-1.5h4.4v1.5h2.4v5.6z"/></svg>