<?xml version="1.0" encoding="UTF-8" standalone="no"?>
<svg width="100px" height="100px" viewBox="0 0 100 100" version="1.1" xmlns="http://www.w3.org/2000/svg" xmlns:xlink="http://www.w3.org/1999/xlink" xmlns:sketch="http://www.bohemiancoding.com/sketch/ns">
    <!-- Generator: Sketch 3.3.3 (12081) - http://www.bohemiancoding.com/sketch -->
    <title>side_nav_icons_incident</title>
    <desc>Created with Sketch.</desc>
    <defs>
        <linearGradient x1="48.7826087%" y1="20.95%" x2="49.3913043%" y2="126.435%" id="linearGradient-1">
            <stop stop-color="#90D54A" offset="0%"></stop>
            <stop stop-color="#85C948" offset="8.002409%"></stop>
            <stop stop-color="#6DB042" offset="28.5%"></stop>
            <stop stop-color="#5FA13F" offset="47.23%"></stop>
            <stop stop-color="#5A9C3E" offset="62.44%"></stop>
            <stop stop-color="#59963E" offset="67.97%"></stop>
            <stop stop-color="#588B3D" offset="82.77%"></stop>
            <stop stop-color="#57883D" offset="100%"></stop>
        </linearGradient>
        <linearGradient x1="48.9434783%" y1="49.3245283%" x2="49.173913%" y2="89.1150943%" id="linearGradient-2">
            <stop stop-color="#90D54A" offset="0%"></stop>
            <stop stop-color="#85C948" offset="8.002409%"></stop>
            <stop stop-color="#6DB042" offset="28.5%"></stop>
            <stop stop-color="#5FA13F" offset="47.23%"></stop>
            <stop stop-color="#5A9C3E" offset="62.44%"></stop>
            <stop stop-color="#59963E" offset="67.97%"></stop>
            <stop stop-color="#588B3D" offset="82.77%"></stop>
            <stop stop-color="#57883D" offset="100%"></stop>
        </linearGradient>
    </defs>
    <g id="Side-Nav" stroke="none" stroke-width="1" fill="none" fill-rule="evenodd" sketch:type="MSPage">
        <g id="side_nav_icons_incident" sketch:type="MSArtboardGroup">
            <g id="Layer_1" sketch:type="MSLayerGroup" transform="translate(27.000000, 27.000000)">
                <g id="Group" sketch:type="MSShapeGroup">
                    <g id="Shape" fill="#CCCCCC">
                        <path d="M23,44.5363636 C22.2,44.5363636 21.4,44.1181818 20.8,43.2818182 L18.4,39.9363636 C18,39.3090909 17.2,39.3090909 16.8,39.3090909 C16.4,39.3090909 16,39.3090909 15.8,39.5181818 L10.4,42.6545455 C9.2,43.4909091 8,43.4909091 7.4,42.6545455 C7,42.0272727 7,41.4 7.2,40.3545455 L9.6,33.2454545 C9.8,32.8272727 9.8,32.4090909 9.6,32.2 C9.4,31.9909091 9.2,31.7818182 8.8,31.7818182 L3.8,31.1545455 C2,30.7363636 1.6,29.9 1.4,29.2727273 C1.2,28.6454545 1.4,27.8090909 2.6,26.7636364 L6.4,23.4181818 C6.8,23.2090909 7,22.7909091 7,22.5818182 C7,22.1636364 6.8,21.7454545 6.4,21.5363636 L2.4,18.1909091 C1.6,17.5636364 1.2,16.5181818 1.6,15.6818182 C1.8,15.0545455 2.6,14.4272727 3.4,14.4272727 L3.6,14.4272727 L7,13.3818182 C8.2,13.1727273 8.8,11.9181818 8.8,11.0818182 L8.6,7.73636364 C8.6,4.80909091 10.8,4.18181818 12.6,5.01818182 L16.2,6.69090909 C16.4,6.69090909 16.6,6.9 17,6.9 C17.8,6.9 18.4,6.48181818 18.6,6.06363636 L20.8,2.50909091 C22.2,0.627272727 24.6,0.627272727 25.6,2.50909091 L27.8,6.27272727 C28.2,7.10909091 29.2,7.31818182 29.8,6.9 L36,2.92727273 C37.2,2.09090909 38.4,2.09090909 39,2.92727273 C39.4,3.55454545 39.4,4.18181818 39,5.22727273 L36.4,12.3363636 C36.2,12.7545455 36.2,12.9636364 36.4,13.1727273 C36.4,13.3818182 36.6,13.5909091 37,13.5909091 L42.2,14.2181818 C44,14.4272727 44.4,15.2636364 44.6,15.8909091 C44.8,16.5181818 44.6,17.3545455 43.4,18.4 L39.6,21.7454545 C39.2,21.9545455 39.2,22.3727273 39.2,22.5818182 C39.2,23 39.4,23.4181818 39.6,23.6272727 L43.4,26.9727273 C44.6,28.0181818 44.6,29.0636364 44.6,29.6909091 C44.4,30.1090909 44,31.1545455 42.4,31.3636364 L38.8,32.4090909 C38,32.6181818 37.2,33.8727273 37.2,34.7090909 L37.4,38.2636364 C37.4,39.1 37.2,39.7272727 36.8,40.3545455 C36.4,40.9818182 35.6,41.1909091 35,41.1909091 L35,41.1909091 C34.6,41.1909091 34,40.9818182 33.6,40.7727273 L29.6,38.8909091 C28.6,38.2636364 27.8,38.6818182 27.4,39.3090909 L25.2,43.2818182 C24.8,44.1181818 24,44.5363636 23,44.5363636 L23,44.5363636 Z M16.6,37.0090909 C18,37.0090909 19.2,37.6363636 20,38.6818182 L22.4,42.2363636 C22.8,42.6545455 23,42.8636364 23.2,42.2363636 L25.4,38.4727273 C26.2,36.8 28.8,35.9636364 30.6,37.0090909 L34.4,38.8909091 C34.6,38.8909091 34.8,39.1 34.8,39.1 C35,39.1 35,38.6818182 35,38.4727273 L34.8,34.9181818 C34.8,33.0363636 36.2,30.9454545 37.8,30.5272727 L41.4,29.4818182 C41.8,29.4818182 41.8,29.2727273 42,29.2727273 C42,29.2727273 41.8,29.0636364 41.6,28.8545455 L38,25.0909091 C37.2,24.2545455 36.8,23.2090909 36.8,22.3727273 C36.8,21.3272727 37.2,20.4909091 38,20.0727273 L42,16.5181818 L42.2,16.3090909 L42,16.3090909 L37,15.6818182 C36,15.6818182 35.2,15.2636364 34.6,14.4272727 C34,13.5909091 34,12.5454545 34.4,11.5 L36.8,5.01818182 L31.2,8.57272727 C30.6,8.99090909 30,9.2 29.2,9.2 C27.8,9.2 26.6,8.36363636 26,7.10909091 L23.8,3.34545455 C23.6,3.13636364 23.6,2.92727273 23.4,2.92727273 C23.4,2.92727273 23,3.13636364 22.8,3.34545455 L20.6,6.9 C19.8,8.57272727 17.4,9.40909091 15.2,8.57272727 L11.6,6.9 C11.4,6.9 11.2,6.69090909 11.2,6.69090909 C11,6.69090909 10.8,7.31818182 10.8,7.52727273 L11,11.0818182 C11,13.1727273 9.6,15.0545455 7.6,15.4727273 L4,16.5181818 L8,19.8636364 C8.8,20.4909091 9.4,21.5363636 9.4,22.5818182 C9.4,23.6272727 8.8,24.4636364 8,25.0909091 L4,28.6454545 L3.8,28.8545455 L4,28.8545455 L8.8,29.4818182 C9.8,29.6909091 10.8,30.1090909 11.2,30.9454545 C11.8,31.7818182 11.8,32.8272727 11.4,33.8727273 L9.2,40.5636364 L14.4,37.6363636 C15.4,37.2181818 16,37.0090909 16.6,37.0090909 L16.6,37.0090909 Z"></path>
                    </g>
                    <path d="M24.8,32.4090909 L20.2,32.4090909 L20.2,28.2272727 L24.8,28.2272727 L24.8,32.4090909 L24.8,32.4090909 Z" id="Shape" fill="url(#linearGradient-1)"></path>
                    <path d="M24.8,25.3 L20.2,25.3 L20.2,14.2181818 L24.8,14.2181818 L24.8,25.3 L24.8,25.3 Z" id="Shape" fill="url(#linearGradient-2)"></path>
                </g>
            </g>
        </g>
    </g>
</svg>