<?xml version="1.0" encoding="UTF-8" standalone="no"?>
<svg width="100px" height="100px" viewBox="0 0 100 100" version="1.1" xmlns="http://www.w3.org/2000/svg" xmlns:xlink="http://www.w3.org/1999/xlink" xmlns:sketch="http://www.bohemiancoding.com/sketch/ns">
    <!-- Generator: Sketch 3.3.3 (12081) - http://www.bohemiancoding.com/sketch -->
    <title>top_nav_icon_system_preference</title>
    <desc>Created with Sketch.</desc>
    <defs>
        <radialGradient cx="50.0394737%" cy="50.0315457%" fx="50.0394737%" fy="50.0315457%" r="50.0394737%" id="radialGradient-1">
            <stop stop-color="#9D9FA2" offset="0%"></stop>
            <stop stop-color="#989395" offset="0%"></stop>
            <stop stop-color="#D7D7D7" offset="88.6160714%"></stop>
            <stop stop-color="#FFFCFC" offset="100%"></stop>
            <stop stop-color="#6A6A6A" offset="100%"></stop>
        </radialGradient>
        <radialGradient cx="50.0443262%" cy="49.9763593%" fx="50.0443262%" fy="49.9763593%" r="49.9852246%" id="radialGradient-2">
            <stop stop-color="#536358" offset="0%"></stop>
            <stop stop-color="#13181A" offset="100%"></stop>
        </radialGradient>
        <linearGradient x1="50%" y1="0%" x2="50%" y2="95.0375868%" id="linearGradient-3">
            <stop stop-color="#FFFFFF" stop-opacity="0" offset="0%"></stop>
            <stop stop-color="#0C2804" stop-opacity="0.717193161" offset="100%"></stop>
        </linearGradient>
        <circle id="path-4" cx="27.5" cy="27.5" r="20.625"></circle>
        <radialGradient cx="55.5443108%" cy="50%" fx="55.5443108%" fy="50%" r="64.5648887%" id="radialGradient-6">
            <stop stop-color="#A0D790" stop-opacity="0.833305027" offset="0%"></stop>
            <stop stop-color="#66CC00" offset="100%"></stop>
        </radialGradient>
    </defs>
    <g id="TopNav" stroke="none" stroke-width="1" fill="none" fill-rule="evenodd" sketch:type="MSPage">
        <g id="top_nav_icon_system_preference" sketch:type="MSArtboardGroup">
            <g sketch:type="MSLayerGroup" transform="translate(23.000000, 23.000000)">
                <path d="M55,27.4710831 C55,42.6235542 42.7263158,55 27.5,55 C12.3315789,55 0,42.681388 0,27.5289169 C0,12.3764458 12.3315789,0 27.5,0 C42.6684211,0 55,12.318612 55,27.4710831 Z" id="Shape" fill="url(#radialGradient-1)" sketch:type="MSShapeGroup"></path>
                <path d="M27.5,4.58333333 C40.1231284,4.58333333 50.4166667,14.822695 50.4166667,27.5 C50.4166667,40.177305 40.177305,50.4166667 27.5,50.4166667 C14.8768716,50.4166667 4.58333333,40.177305 4.58333333,27.5 C4.58333333,14.822695 14.8768716,4.58333333 27.5,4.58333333 L27.5,4.58333333 Z" id="Shape" stroke-opacity="0.519955842" stroke="#7C7B7B" stroke-width="2.29166667" fill="url(#radialGradient-2)" sketch:type="MSShapeGroup"></path>
                <circle id="overlay" fill="url(#linearGradient-3)" sketch:type="MSShapeGroup" cx="25.4076087" cy="25.4076087" r="20.625"></circle>
                <mask id="mask-5" sketch:name="Mask" fill="white">
                    <use xlink:href="#path-4"></use>
                </mask>
                <use id="Mask" sketch:type="MSShapeGroup" xlink:href="#path-4"></use>
                <path d="M16.9582918,16.5162864 C16.6613303,15.0533444 16.0856501,13.6916138 15.2890913,12.4889345 L15.2890913,12.4889345 L18.1367394,9.64128637 L14.8958333,6.40038029 L12.0481852,9.24802845 C10.8455059,8.45146963 9.48377527,7.87578943 8.02083333,7.57882789 L8.02083333,7.57882789 L8.02083333,5.05795304 L3.4375,5.05795304 L3.4375,7.57882789 C1.97455806,7.87578943 0.612827428,8.45146963 -0.589851847,9.24802845 L-3.4375,6.40038029 L-6.67840608,9.64128637 L-3.83075793,12.4889345 L-3.83075793,12.4889345 C-4.62731674,13.6916138 -5.20299694,15.0533444 -5.49995849,16.5162864 L-8.02083333,16.5162864 L-8.02083333,21.0996197 L-5.49995849,21.0996197 L-5.49995849,21.0996197 C-5.20299694,22.5625616 -4.62731674,23.9242923 -3.83075793,25.1269716 L-3.83075793,25.1269716 L-6.67840608,27.9746197 L-3.4375,31.2155258 L-0.589851847,28.3678776 C0.612827428,29.1644364 1.97455806,29.7401167 3.4375,30.0370782 L3.4375,30.0370782 L3.4375,32.557953 L8.02083333,32.557953 L8.02083333,30.0370782 C9.48377527,29.7401167 10.8455059,29.1644364 12.0481852,28.3678776 L14.8958333,31.2155258 L18.1367394,27.9746197 L15.2890913,25.1269716 L15.2890913,25.1269716 C16.0856501,23.9242923 16.6613303,22.5625616 16.9582918,21.0996197 L19.4791667,21.0996197 L19.4791667,16.5162864 L16.9582918,16.5162864 Z M5.72916667,25.682953 C9.52612432,25.682953 12.6041667,22.6049107 12.6041667,18.807953 C12.6041667,15.0109954 9.52612432,11.932953 5.72916667,11.932953 C1.93220901,11.932953 -1.14583333,15.0109954 -1.14583333,18.807953 C-1.14583333,22.6049107 1.93220901,25.682953 5.72916667,25.682953 Z" id="Oval-82" fill="url(#radialGradient-6)" sketch:type="MSShapeGroup" mask="url(#mask-5)">
                    <g transform="translate(5.729167, 18.807953) rotate(-315.000000) translate(-5.729167, -18.807953) "></g>
                </path>
                <path d="M49.0416252,25.682953 C48.7446636,24.2200111 48.1689834,22.8582805 47.3724246,21.6556012 L47.3724246,21.6556012 L50.2200727,18.807953 L46.9791667,15.567047 L44.1315185,18.4146951 C42.9288392,17.6181363 41.5671086,17.0424561 40.1041667,16.7454946 L40.1041667,16.7454946 L40.1041667,14.2246197 L35.5208333,14.2246197 L35.5208333,16.7454946 C34.0578914,17.0424561 32.6961608,17.6181363 31.4934815,18.4146951 L28.6458333,15.567047 L25.4049273,18.807953 L28.2525754,21.6556012 L28.2525754,21.6556012 C27.4560166,22.8582805 26.8803364,24.2200111 26.5833748,25.682953 L24.0625,25.682953 L24.0625,30.2662864 L26.5833748,30.2662864 L26.5833748,30.2662864 C26.8803364,31.7292283 27.4560166,33.0909589 28.2525754,34.2936382 L28.2525754,34.2936382 L25.4049273,37.1412864 L28.6458333,40.3821925 L31.4934815,37.5345443 C32.6961608,38.3311031 34.0578914,38.9067833 35.5208333,39.2037449 L35.5208333,39.2037449 L35.5208333,41.7246197 L40.1041667,41.7246197 L40.1041667,39.2037449 C41.5671086,38.9067833 42.9288392,38.3311031 44.1315185,37.5345443 L46.9791667,40.3821925 L50.2200727,37.1412864 L47.3724246,34.2936382 L47.3724246,34.2936382 C48.1689834,33.0909589 48.7446636,31.7292283 49.0416252,30.2662864 L51.5625,30.2662864 L51.5625,25.682953 L49.0416252,25.682953 Z M37.8125,34.8496197 C41.6094577,34.8496197 44.6875,31.7715774 44.6875,27.9746197 C44.6875,24.1776621 41.6094577,21.0996197 37.8125,21.0996197 C34.0155423,21.0996197 30.9375,24.1776621 30.9375,27.9746197 C30.9375,31.7715774 34.0155423,34.8496197 37.8125,34.8496197 Z" id="Oval-82" fill="url(#radialGradient-6)" sketch:type="MSShapeGroup" mask="url(#mask-5)">
                    <g transform="translate(37.812500, 27.974620) rotate(-315.000000) translate(-37.812500, -27.974620) "></g>
                </path>
            </g>
        </g>
    </g>
</svg>