<?xml version="1.0" encoding="UTF-8" standalone="no"?>
<svg width="100px" height="100px" viewBox="0 0 100 100" version="1.1" xmlns="http://www.w3.org/2000/svg" xmlns:xlink="http://www.w3.org/1999/xlink" xmlns:sketch="http://www.bohemiancoding.com/sketch/ns">
    <!-- Generator: Sketch 3.3.3 (12081) - http://www.bohemiancoding.com/sketch -->
    <title>top_nav_icon_reduction</title>
    <desc>Created with Sketch.</desc>
    <defs>
        <linearGradient x1="50.3684%" y1="-2.40363636%" x2="50.3683984%" y2="91.9318182%" id="linearGradient-1">
            <stop stop-color="#858585" offset="0%"></stop>
            <stop stop-color="#868585" offset="55.5841882%"></stop>
            <stop stop-color="#8D8D8D" offset="100%"></stop>
        </linearGradient>
        <linearGradient x1="50.0289017%" y1="0.344827586%" x2="50.0289017%" y2="98.9413793%" id="linearGradient-2">
            <stop stop-color="#F0F0F0" offset="0%"></stop>
            <stop stop-color="#BCBCBC" offset="100%"></stop>
        </linearGradient>
        <filter x="-50%" y="-50%" width="200%" height="200%" filterUnits="objectBoundingBox" id="filter-3">
            <feOffset dx="0" dy="0" in="SourceAlpha" result="shadowOffsetOuter1"></feOffset>
            <feGaussianBlur stdDeviation="6.5" in="shadowOffsetOuter1" result="shadowBlurOuter1"></feGaussianBlur>
            <feColorMatrix values="0 0 0 0 1   0 0 0 0 1   0 0 0 0 1  0 0 0 0.7 0" in="shadowBlurOuter1" type="matrix" result="shadowMatrixOuter1"></feColorMatrix>
            <feMerge>
                <feMergeNode in="shadowMatrixOuter1"></feMergeNode>
                <feMergeNode in="SourceGraphic"></feMergeNode>
            </feMerge>
        </filter>
        <linearGradient x1="0.000374341992%" y1="47.7647059%" x2="100.254825%" y2="52.6323529%" id="linearGradient-4">
            <stop stop-color="#9FA4A4" offset="0%"></stop>
            <stop stop-color="#9FA4A4" offset="6.29982462%"></stop>
            <stop stop-color="#E6DFDF" offset="49.4698661%"></stop>
            <stop stop-color="#9FA4A4" offset="96.4584662%"></stop>
            <stop stop-color="#959494" offset="100%"></stop>
        </linearGradient>
        <linearGradient x1="50%" y1="0%" x2="50%" y2="100%" id="linearGradient-5">
            <stop stop-color="#FFFFFF" offset="0%"></stop>
            <stop stop-color="#C8C8C8" offset="100%"></stop>
        </linearGradient>
        <filter x="-50%" y="-50%" width="200%" height="200%" filterUnits="objectBoundingBox" id="filter-6">
            <feOffset dx="0" dy="5" in="SourceAlpha" result="shadowOffsetOuter1"></feOffset>
            <feGaussianBlur stdDeviation="4" in="shadowOffsetOuter1" result="shadowBlurOuter1"></feGaussianBlur>
            <feColorMatrix values="0 0 0 0 0   0 0 0 0 0   0 0 0 0 0  0 0 0 0.35 0" in="shadowBlurOuter1" type="matrix" result="shadowMatrixOuter1"></feColorMatrix>
            <feMerge>
                <feMergeNode in="shadowMatrixOuter1"></feMergeNode>
                <feMergeNode in="SourceGraphic"></feMergeNode>
            </feMerge>
        </filter>
        <radialGradient cx="49.7631915%" cy="49.8524242%" fx="49.7631915%" fy="49.8524242%" r="50.2664894%" id="radialGradient-7">
            <stop stop-color="#4A4C4C" offset="0%"></stop>
            <stop stop-color="#333333" offset="100%"></stop>
        </radialGradient>
        <filter x="-50%" y="-50%" width="200%" height="200%" filterUnits="objectBoundingBox" id="filter-8">
            <feOffset dx="0" dy="-2" in="SourceAlpha" result="shadowOffsetOuter1"></feOffset>
            <feGaussianBlur stdDeviation="1.5" in="shadowOffsetOuter1" result="shadowBlurOuter1"></feGaussianBlur>
            <feColorMatrix values="0 0 0 0 0   0 0 0 0 0   0 0 0 0 0  0 0 0 0.35 0" in="shadowBlurOuter1" type="matrix" result="shadowMatrixOuter1"></feColorMatrix>
            <feMerge>
                <feMergeNode in="shadowMatrixOuter1"></feMergeNode>
                <feMergeNode in="SourceGraphic"></feMergeNode>
            </feMerge>
        </filter>
        <linearGradient x1="21.4792064%" y1="21.1573041%" x2="88.6911205%" y2="89.0500992%" id="linearGradient-9">
            <stop stop-color="#66CC00" stop-opacity="0.99" offset="0%"></stop>
            <stop stop-color="#41812E" offset="100%"></stop>
        </linearGradient>
        <filter x="-50%" y="-50%" width="200%" height="200%" filterUnits="objectBoundingBox" id="filter-10">
            <feOffset dx="0" dy="0" in="SourceAlpha" result="shadowOffsetOuter1"></feOffset>
            <feGaussianBlur stdDeviation="6.5" in="shadowOffsetOuter1" result="shadowBlurOuter1"></feGaussianBlur>
            <feColorMatrix values="0 0 0 0 0.4   0 0 0 0 0.8   0 0 0 0 0  0 0 0 0.49 0" in="shadowBlurOuter1" type="matrix" result="shadowMatrixOuter1"></feColorMatrix>
            <feOffset dx="0" dy="5" in="SourceAlpha" result="shadowOffsetOuter2"></feOffset>
            <feGaussianBlur stdDeviation="5.5" in="shadowOffsetOuter2" result="shadowBlurOuter2"></feGaussianBlur>
            <feColorMatrix values="0 0 0 0 0   0 0 0 0 0   0 0 0 0 0  0 0 0 0.35 0" in="shadowBlurOuter2" type="matrix" result="shadowMatrixOuter2"></feColorMatrix>
            <feMerge>
                <feMergeNode in="shadowMatrixOuter1"></feMergeNode>
                <feMergeNode in="shadowMatrixOuter2"></feMergeNode>
                <feMergeNode in="SourceGraphic"></feMergeNode>
            </feMerge>
        </filter>
        <linearGradient x1="15.3584696%" y1="14.9258869%" x2="82.4425894%" y2="82.0100067%" id="linearGradient-11">
            <stop stop-color="#66CC00" offset="0%"></stop>
            <stop stop-color="#558025" offset="100%"></stop>
        </linearGradient>
        <filter x="-50%" y="-50%" width="200%" height="200%" filterUnits="objectBoundingBox" id="filter-12">
            <feOffset dx="0" dy="5" in="SourceAlpha" result="shadowOffsetOuter1"></feOffset>
            <feGaussianBlur stdDeviation="5.5" in="shadowOffsetOuter1" result="shadowBlurOuter1"></feGaussianBlur>
            <feColorMatrix values="0 0 0 0 0   0 0 0 0 0   0 0 0 0 0  0 0 0 0.35 0" in="shadowBlurOuter1" type="matrix" result="shadowMatrixOuter1"></feColorMatrix>
            <feOffset dx="0" dy="0" in="SourceAlpha" result="shadowOffsetOuter2"></feOffset>
            <feGaussianBlur stdDeviation="5.5" in="shadowOffsetOuter2" result="shadowBlurOuter2"></feGaussianBlur>
            <feColorMatrix values="0 0 0 0 0.4   0 0 0 0 0.8   0 0 0 0 0  0 0 0 0.49 0" in="shadowBlurOuter2" type="matrix" result="shadowMatrixOuter2"></feColorMatrix>
            <feMerge>
                <feMergeNode in="shadowMatrixOuter1"></feMergeNode>
                <feMergeNode in="shadowMatrixOuter2"></feMergeNode>
                <feMergeNode in="SourceGraphic"></feMergeNode>
            </feMerge>
        </filter>
        <linearGradient x1="15.0477222%" y1="84.9506783%" x2="82.3239158%" y2="17.6744847%" id="linearGradient-13">
            <stop stop-color="#558B55" offset="0%"></stop>
            <stop stop-color="#AFEE54" offset="100%"></stop>
        </linearGradient>
        <linearGradient x1="-1.5790733%" y1="-2.13500786%" x2="87.6993727%" y2="87.1434381%" id="linearGradient-14">
            <stop stop-color="#424242" offset="0%"></stop>
            <stop stop-color="#4E4E4E" offset="38.675861%"></stop>
            <stop stop-color="#232323" offset="100%"></stop>
        </linearGradient>
        <filter x="-50%" y="-50%" width="200%" height="200%" filterUnits="objectBoundingBox" id="filter-15">
            <feOffset dx="0" dy="3" in="SourceAlpha" result="shadowOffsetInner1"></feOffset>
            <feGaussianBlur stdDeviation="4" in="shadowOffsetInner1" result="shadowBlurInner1"></feGaussianBlur>
            <feComposite in="shadowBlurInner1" in2="SourceAlpha" operator="arithmetic" k2="-1" k3="1" result="shadowInnerInner1"></feComposite>
            <feColorMatrix values="0 0 0 0 0   0 0 0 0 0   0 0 0 0 0  0 0 0 0.35 0" in="shadowInnerInner1" type="matrix" result="shadowMatrixInner1"></feColorMatrix>
            <feMerge>
                <feMergeNode in="SourceGraphic"></feMergeNode>
                <feMergeNode in="shadowMatrixInner1"></feMergeNode>
            </feMerge>
        </filter>
    </defs>
    <g id="TopNav" stroke="none" stroke-width="1" fill="none" fill-rule="evenodd" sketch:type="MSPage">
        <g id="top_nav_icon_reduction" sketch:type="MSArtboardGroup">
            <g id="Vulnerability-Scan-2" sketch:type="MSLayerGroup" transform="translate(18.000000, 25.000000)">
                <g id="Group-13" sketch:type="MSShapeGroup">
                    <rect id="Rectangle-path" fill="url(#linearGradient-1)" x="21" y="42.1052632" width="13.125" height="5.26315789"></rect>
                    <path d="M20.871026,47.3684211 L18.375,50 L36.75,50 L33.7760116,47.3684211 L20.871026,47.3684211 Z" id="Shape" fill="url(#linearGradient-2)"></path>
                    <rect id="Rectangle-path" fill="#FFFFFF" filter="url(#filter-3)" x="18.375" y="50" width="18.375" height="0.786516854"></rect>
                    <path d="M0,2.63157895 L0,1.39318885 C0,0.619195046 0.452772074,0 1.01873717,0 L54.1062628,0 C54.6722279,0 55.125,0.619195046 55.125,1.39318885 L55.125,2.63157895 L0,2.63157895 L0,2.63157895 Z" id="Shape" fill="url(#linearGradient-4)"></path>
                    <path d="M0,1.05117162 L0,41.0540915 C0,41.6380758 0.452772074,42.1052632 1.01873717,42.1052632 L54.1062628,42.1052632 C54.6722279,42.1052632 55.125,41.6380758 55.125,41.0540915 L55.125,1.05117162 C55.125,0.467187386 54.6722279,0 54.1062628,0 L1.01873717,0 C0.452772074,1.29670548e-16 0,0.467187386 0,1.05117162 L0,1.05117162 Z" id="Shape" fill="url(#linearGradient-5)" filter="url(#filter-6)"></path>
                    <rect id="Rectangle-path" fill="url(#radialGradient-7)" filter="url(#filter-8)" x="2.625" y="2.63157895" width="49.875" height="36.8421053"></rect>
                </g>
                <g id="Group" transform="translate(7.875000, 7.894737)" fill="#FFFFFF" sketch:type="MSShapeGroup">
                    <g id="Shape">
                        <path d="M0.4375,2.16165414 L0,2.63157895 L0,0.37593985 L0.201923077,0 L0.403846154,0.37593985 L0.403846154,2.16165414 L0.4375,2.16165414 Z M0.403846154,4.88721805 L0.201923077,5.26315789 L0,4.88721805 L0,2.63157895 L0.4375,3.0075188 L0.4375,4.88721805 L0.403846154,4.88721805 Z M2.625,0.197368421 L2.25872093,0.526315789 L0.36627907,0.526315789 L0,0.263157895 L0.36627907,0 L2.25872093,0 L2.625,0.197368421 L2.625,0.197368421 Z M2.625,5.46052632 L2.25872093,5.78947368 L0.36627907,5.78947368 L0,5.52631579 L0.36627907,5.26315789 L2.25872093,5.26315789 L2.625,5.46052632 L2.625,5.46052632 Z M3.0625,2.63157895 L2.625,2.16165414 L2.625,0.37593985 L2.82692308,0 L3.02884615,0.37593985 L3.02884615,2.63157895 L3.0625,2.63157895 Z M3.02884615,4.88721805 L2.82692308,5.26315789 L2.625,4.88721805 L2.625,3.0075188 L3.0625,2.63157895 L3.0625,4.88721805 L3.02884615,4.88721805 Z"></path>
                        <path d="M5.8125,2.63157895 L5.25,2.24458204 L5.25,0.619195046 L5.8125,0 L5.8125,2.63157895 L5.8125,2.63157895 Z M5.8125,5.26315789 L5.25,4.64396285 L5.25,2.94117647 L5.8125,2.63157895 L5.8125,5.26315789 L5.8125,5.26315789 Z"></path>
                        <path d="M8.4375,2.63157895 L7.875,2.24458204 L7.875,0.619195046 L8.4375,0 L8.4375,2.63157895 L8.4375,2.63157895 Z M8.4375,5.26315789 L7.875,4.64396285 L7.875,2.94117647 L8.4375,2.63157895 L8.4375,5.26315789 L8.4375,5.26315789 Z"></path>
                        <path d="M10.9375,2.16165414 L10.5,2.63157895 L10.5,0.37593985 L10.7019231,0 L10.9038462,0.37593985 L10.9038462,2.16165414 L10.9375,2.16165414 Z M10.9038462,4.88721805 L10.7019231,5.26315789 L10.5,4.88721805 L10.5,2.63157895 L10.9375,3.0075188 L10.9375,4.88721805 L10.9038462,4.88721805 Z M13.125,0.263157895 L12.7670455,0.526315789 L10.9176136,0.526315789 L10.5,0.263157895 L10.8579545,0 L12.7073864,0 L13.125,0.263157895 L13.125,0.263157895 Z M13.125,5.52631579 L12.7670455,5.78947368 L10.9176136,5.78947368 L10.5,5.52631579 L10.8579545,5.26315789 L12.7073864,5.26315789 L13.125,5.52631579 L13.125,5.52631579 Z M13.5625,2.63157895 L13.125,2.16165414 L13.125,0.37593985 L13.3269231,0 L13.5288462,0.37593985 L13.5288462,2.63157895 L13.5625,2.63157895 Z M13.5288462,4.88721805 L13.3269231,5.26315789 L13.125,4.88721805 L13.125,3.0075188 L13.5625,2.63157895 L13.5625,4.88721805 L13.5288462,4.88721805 Z"></path>
                        <path d="M16.1875,2.16165414 L15.75,2.63157895 L15.75,0.37593985 L15.9519231,0 L16.1538462,0.37593985 L16.1538462,2.16165414 L16.1875,2.16165414 Z M16.1538462,4.88721805 L15.9519231,5.26315789 L15.75,4.88721805 L15.75,2.63157895 L16.1875,3.0075188 L16.1875,4.88721805 L16.1538462,4.88721805 Z M18.375,0.263157895 L18.0087209,0.526315789 L16.1162791,0.526315789 L15.75,0.263157895 L16.1162791,0 L18.0087209,0 L18.375,0.263157895 L18.375,0.263157895 Z M18.375,5.52631579 L18.0087209,5.78947368 L16.1162791,5.78947368 L15.75,5.52631579 L16.1162791,5.26315789 L18.0087209,5.26315789 L18.375,5.52631579 L18.375,5.52631579 Z M18.8125,2.63157895 L18.375,2.16165414 L18.375,0.37593985 L18.5769231,0 L18.7788462,0.37593985 L18.7788462,2.63157895 L18.8125,2.63157895 Z M18.7788462,4.88721805 L18.5769231,5.26315789 L18.375,4.88721805 L18.375,3.0075188 L18.8125,2.63157895 L18.8125,4.88721805 L18.7788462,4.88721805 Z"></path>
                        <path d="M21.5625,2.63157895 L21,2.24458204 L21,0.619195046 L21.5625,0 L21.5625,2.63157895 L21.5625,2.63157895 Z M21.5625,5.26315789 L21,4.64396285 L21,2.94117647 L21.5625,2.63157895 L21.5625,5.26315789 L21.5625,5.26315789 Z"></path>
                        <path d="M24.0625,2.16165414 L23.625,2.63157895 L23.625,0.37593985 L23.8269231,0 L24.0288462,0.37593985 L24.0288462,2.16165414 L24.0625,2.16165414 Z M24.0288462,4.88721805 L23.8269231,5.26315789 L23.625,4.88721805 L23.625,2.63157895 L24.0625,3.0075188 L24.0625,4.88721805 L24.0288462,4.88721805 Z M26.25,0.263157895 L25.8837209,0.526315789 L23.9912791,0.526315789 L23.625,0.263157895 L23.9912791,0 L25.8837209,0 L26.25,0.263157895 L26.25,0.263157895 Z M26.25,5.52631579 L25.8837209,5.78947368 L23.9912791,5.78947368 L23.625,5.52631579 L23.9912791,5.26315789 L25.8837209,5.26315789 L26.25,5.52631579 L26.25,5.52631579 Z M26.6875,2.63157895 L26.25,2.16165414 L26.25,0.37593985 L26.4519231,0 L26.6538462,0.37593985 L26.6538462,2.63157895 L26.6875,2.63157895 Z M26.6538462,4.88721805 L26.4519231,5.26315789 L26.25,4.88721805 L26.25,3.0075188 L26.6875,2.63157895 L26.6875,4.88721805 L26.6538462,4.88721805 Z"></path>
                        <path d="M26.6875,2.16165414 L26.25,2.63157895 L26.25,0.37593985 L26.4519231,0 L26.6538462,0.37593985 L26.6538462,2.16165414 L26.6875,2.16165414 Z M26.6538462,4.88721805 L26.4519231,5.26315789 L26.25,4.88721805 L26.25,2.63157895 L26.6875,3.0075188 L26.6875,4.88721805 L26.6538462,4.88721805 Z M28.875,0.263157895 L28.5087209,0.526315789 L26.6162791,0.526315789 L26.25,0.263157895 L26.6162791,0 L28.5087209,0 L28.875,0.263157895 L28.875,0.263157895 Z M28.875,5.52631579 L28.5087209,5.78947368 L26.6162791,5.78947368 L26.25,5.52631579 L26.6162791,5.26315789 L28.5087209,5.26315789 L28.875,5.52631579 L28.875,5.52631579 Z M29.3125,2.63157895 L28.875,2.16165414 L28.875,0.37593985 L29.0769231,0 L29.2788462,0.37593985 L29.2788462,2.63157895 L29.3125,2.63157895 Z M29.2788462,4.88721805 L29.0769231,5.26315789 L28.875,4.88721805 L28.875,3.0075188 L29.3125,2.63157895 L29.3125,4.88721805 L29.2788462,4.88721805 Z"></path>
                        <path d="M32.0625,2.63157895 L31.5,2.24458204 L31.5,0.619195046 L32.0625,0 L32.0625,2.63157895 L32.0625,2.63157895 Z M32.0625,5.26315789 L31.5,4.64396285 L31.5,2.94117647 L32.0625,2.63157895 L32.0625,5.26315789 L32.0625,5.26315789 Z"></path>
                    </g>
                    <path d="M34.5625,2.16165414 L34.125,2.63157895 L34.125,0.37593985 L34.3269231,0 L34.5288462,0.37593985 L34.5288462,2.16165414 L34.5625,2.16165414 Z M34.5288462,4.88721805 L34.3269231,5.26315789 L34.125,4.88721805 L34.125,2.63157895 L34.5625,3.0075188 L34.5625,4.88721805 L34.5288462,4.88721805 Z M36.75,0.197368421 L36.3837209,0.526315789 L34.4912791,0.526315789 L34.125,0.263157895 L34.4912791,0 L36.3837209,0 L36.75,0.197368421 L36.75,0.197368421 Z M36.75,5.46052632 L36.3837209,5.78947368 L34.4912791,5.78947368 L34.125,5.52631579 L34.4912791,5.26315789 L36.3837209,5.26315789 L36.75,5.46052632 L36.75,5.46052632 Z M37.1875,2.63157895 L36.75,2.16165414 L36.75,0.37593985 L36.9519231,0 L37.1538462,0.37593985 L37.1538462,2.63157895 L37.1875,2.63157895 Z M37.1538462,4.88721805 L36.9519231,5.26315789 L36.75,4.88721805 L36.75,3.0075188 L37.1875,2.63157895 L37.1875,4.88721805 L37.1538462,4.88721805 Z" id="Shape"></path>
                    <path d="M37.2954545,2.63157895 L36.75,2.24458204 L36.75,0.619195046 L37.2954545,0 L37.2954545,2.63157895 L37.2954545,2.63157895 Z M37.2954545,5.26315789 L36.75,4.64396285 L36.75,2.94117647 L37.2954545,2.63157895 L37.2954545,5.26315789 L37.2954545,5.26315789 Z" id="Shape"></path>
                    <path d="M42.5454545,2.63157895 L42,2.24458204 L42,0.619195046 L42.5454545,0 L42.5454545,2.63157895 L42.5454545,2.63157895 Z M42.5454545,5.26315789 L42,4.64396285 L42,2.94117647 L42.5454545,2.63157895 L42.5454545,5.26315789 L42.5454545,5.26315789 Z" id="Shape"></path>
                    <path d="M21.4375,10.056391 L21,10.5263158 L21,8.27067669 L21.2019231,7.89473684 L21.4038462,8.27067669 L21.4038462,10.056391 L21.4375,10.056391 Z M21.4038462,12.7819549 L21.2019231,13.1578947 L21,12.7819549 L21,10.5263158 L21.4375,10.9022556 L21.4375,12.7819549 L21.4038462,12.7819549 Z M23.625,8.15789474 L23.2587209,8.42105263 L21.3662791,8.42105263 L21,8.15789474 L21.3662791,7.89473684 L23.2587209,7.89473684 L23.625,8.15789474 L23.625,8.15789474 Z M23.625,13.4210526 L23.2587209,13.6842105 L21.3662791,13.6842105 L21,13.4210526 L21.3662791,13.1578947 L23.2587209,13.1578947 L23.625,13.4210526 L23.625,13.4210526 Z M24.0625,10.5263158 L23.625,10.056391 L23.625,8.27067669 L23.8269231,7.89473684 L24.0288462,8.27067669 L24.0288462,10.5263158 L24.0625,10.5263158 Z M24.0288462,12.7819549 L23.8269231,13.1578947 L23.625,12.7819549 L23.625,10.9022556 L24.0625,10.5263158 L24.0625,12.7819549 L24.0288462,12.7819549 Z" id="Shape"></path>
                    <path d="M26.7954545,10.5263158 L26.25,10.1393189 L26.25,8.51393189 L26.7954545,7.89473684 L26.7954545,10.5263158 L26.7954545,10.5263158 Z M26.7954545,13.1578947 L26.25,12.5386997 L26.25,10.8359133 L26.7954545,10.5263158 L26.7954545,13.1578947 L26.7954545,13.1578947 Z" id="Shape"></path>
                    <path d="M32.0454545,10.5263158 L31.5,10.1393189 L31.5,8.51393189 L32.0454545,7.89473684 L32.0454545,10.5263158 L32.0454545,10.5263158 Z M32.0454545,13.1578947 L31.5,12.481203 L31.5,10.8270677 L32.0454545,10.5263158 L32.0454545,13.1578947 L32.0454545,13.1578947 Z" id="Shape"></path>
                    <path d="M0.4375,10.056391 L0,10.5263158 L0,8.27067669 L0.201923077,7.89473684 L0.403846154,8.27067669 L0.403846154,10.056391 L0.4375,10.056391 Z M0.403846154,12.7819549 L0.201923077,13.1578947 L0,12.7819549 L0,10.5263158 L0.4375,10.9022556 L0.4375,12.7819549 L0.403846154,12.7819549 Z M2.625,8.15789474 L2.19767442,8.42105263 L0.36627907,8.42105263 L0,8.15789474 L0.36627907,7.89473684 L2.25872093,7.89473684 L2.625,8.15789474 L2.625,8.15789474 Z M2.625,13.4210526 L2.19767442,13.6842105 L0.36627907,13.6842105 L0,13.4210526 L0.36627907,13.1578947 L2.25872093,13.1578947 L2.625,13.4210526 L2.625,13.4210526 Z M3.0625,10.5263158 L2.625,10.056391 L2.625,8.27067669 L2.82692308,7.89473684 L3.02884615,8.27067669 L3.02884615,10.5263158 L3.0625,10.5263158 Z M3.02884615,12.7819549 L2.82692308,13.1578947 L2.625,12.7819549 L2.625,10.9022556 L3.0625,10.5263158 L3.0625,12.7819549 L3.02884615,12.7819549 Z" id="Shape"></path>
                    <path d="M5.6875,10.056391 L5.25,10.5263158 L5.25,8.27067669 L5.45192308,7.89473684 L5.65384615,8.27067669 L5.65384615,10.056391 L5.6875,10.056391 Z M5.65384615,12.7819549 L5.45192308,13.1578947 L5.25,12.7819549 L5.25,10.5263158 L5.6875,10.9022556 L5.6875,12.7819549 L5.65384615,12.7819549 Z M7.875,8.15789474 L7.50872093,8.42105263 L5.61627907,8.42105263 L5.25,8.15789474 L5.61627907,7.89473684 L7.50872093,7.89473684 L7.875,8.15789474 L7.875,8.15789474 Z M7.875,13.4210526 L7.50872093,13.6842105 L5.61627907,13.6842105 L5.25,13.4210526 L5.61627907,13.1578947 L7.50872093,13.1578947 L7.875,13.4210526 L7.875,13.4210526 Z M8.3125,10.5263158 L7.875,10.056391 L7.875,8.27067669 L8.07692308,7.89473684 L8.27884615,8.27067669 L8.27884615,10.5263158 L8.3125,10.5263158 Z M8.27884615,12.7819549 L8.07692308,13.1578947 L7.875,12.7819549 L7.875,10.9022556 L8.3125,10.5263158 L8.3125,12.7819549 L8.27884615,12.7819549 Z" id="Shape"></path>
                    <path d="M11.0454545,10.5263158 L10.5,10.1393189 L10.5,8.51393189 L11.0454545,7.89473684 L11.0454545,10.5263158 L11.0454545,10.5263158 Z M11.0454545,13.1578947 L10.5,12.5386997 L10.5,10.8359133 L11.0454545,10.5263158 L11.0454545,13.1578947 L11.0454545,13.1578947 Z" id="Shape"></path>
                    <path d="M10.9375,10.056391 L10.5,10.5263158 L10.5,8.27067669 L10.7019231,7.89473684 L10.9038462,8.27067669 L10.9038462,10.056391 L10.9375,10.056391 Z M10.9038462,12.7819549 L10.7019231,13.1578947 L10.5,12.7819549 L10.5,10.5263158 L10.9375,10.9022556 L10.9375,12.7819549 L10.9038462,12.7819549 Z M13.125,8.15789474 L12.7587209,8.42105263 L10.8662791,8.42105263 L10.5,8.15789474 L10.8662791,7.89473684 L12.7587209,7.89473684 L13.125,8.15789474 L13.125,8.15789474 Z M13.125,13.4210526 L12.7587209,13.6842105 L10.8662791,13.6842105 L10.5,13.4210526 L10.8662791,13.1578947 L12.7587209,13.1578947 L13.125,13.4210526 L13.125,13.4210526 Z M13.5625,10.5263158 L13.125,10.056391 L13.125,8.27067669 L13.3269231,7.89473684 L13.5288462,8.27067669 L13.5288462,10.5263158 L13.5625,10.5263158 Z M13.5625,12.7819549 L13.3605769,13.1578947 L13.125,12.7819549 L13.125,10.9022556 L13.5625,10.5263158 L13.5625,12.7819549 L13.5625,12.7819549 Z" id="Shape"></path>
                    <path d="M16.1875,10.056391 L15.75,10.5263158 L15.75,8.27067669 L15.9519231,7.89473684 L16.1538462,8.27067669 L16.1538462,10.056391 L16.1875,10.056391 Z M16.1538462,12.7819549 L15.9519231,13.1578947 L15.75,12.7819549 L15.75,10.5263158 L16.1875,10.9022556 L16.1875,12.7819549 L16.1538462,12.7819549 Z M18.375,8.15789474 L18.0170455,8.42105263 L16.1676136,8.42105263 L15.75,8.15789474 L16.1079545,7.89473684 L17.9573864,7.89473684 L18.375,8.15789474 L18.375,8.15789474 Z M18.375,13.4210526 L18.0170455,13.6842105 L16.1676136,13.6842105 L15.75,13.4210526 L16.1079545,13.1578947 L17.9573864,13.1578947 L18.375,13.4210526 L18.375,13.4210526 Z M18.8125,10.5263158 L18.375,10.056391 L18.375,8.27067669 L18.5769231,7.89473684 L18.7788462,8.27067669 L18.7788462,10.5263158 L18.8125,10.5263158 Z M18.7788462,12.7819549 L18.5769231,13.1578947 L18.375,12.7819549 L18.375,10.9022556 L18.8125,10.5263158 L18.8125,12.7819549 L18.7788462,12.7819549 Z" id="Shape"></path>
                    <path d="M34.6704545,10.5263158 L34.125,10.1393189 L34.125,8.51393189 L34.6704545,7.89473684 L34.6704545,10.5263158 L34.6704545,10.5263158 Z M34.6704545,13.1578947 L34.125,12.5386997 L34.125,10.8359133 L34.6704545,10.5263158 L34.6704545,13.1578947 L34.6704545,13.1578947 Z" id="Shape"></path>
                    <path d="M37.1875,10.056391 L36.75,10.5263158 L36.75,8.27067669 L36.9519231,7.89473684 L37.1538462,8.27067669 L37.1538462,10.056391 L37.1875,10.056391 Z M37.1875,12.7819549 L36.9519231,13.1578947 L36.75,12.7819549 L36.75,10.5263158 L37.1875,10.9022556 L37.1875,12.7819549 L37.1875,12.7819549 Z M39.375,8.15789474 L39.0087209,8.42105263 L37.1162791,8.42105263 L36.75,8.15789474 L37.1162791,7.89473684 L39.0087209,7.89473684 L39.375,8.15789474 L39.375,8.15789474 Z M39.375,13.4210526 L39.0087209,13.6842105 L37.1162791,13.6842105 L36.75,13.4210526 L37.1162791,13.1578947 L39.0087209,13.1578947 L39.375,13.4210526 L39.375,13.4210526 Z M39.8125,10.5263158 L39.375,10.056391 L39.375,8.27067669 L39.5769231,7.89473684 L39.7788462,8.27067669 L39.7788462,10.5263158 L39.8125,10.5263158 Z M39.7788462,12.7819549 L39.5769231,13.1578947 L39.375,12.7819549 L39.375,10.9022556 L39.8125,10.5263158 L39.8125,12.7819549 L39.7788462,12.7819549 Z" id="Shape"></path>
                    <path d="M39.8125,10.056391 L39.375,10.5263158 L39.375,8.27067669 L39.5769231,7.89473684 L39.7788462,8.27067669 L39.7788462,10.056391 L39.8125,10.056391 Z M39.7788462,12.7819549 L39.5769231,13.1578947 L39.375,12.7819549 L39.375,10.5263158 L39.8125,10.9022556 L39.8125,12.7819549 L39.7788462,12.7819549 Z M42,8.15789474 L41.6337209,8.42105263 L39.7412791,8.42105263 L39.375,8.15789474 L39.7412791,7.89473684 L41.6337209,7.89473684 L42,8.15789474 L42,8.15789474 Z M42,13.4210526 L41.6337209,13.6842105 L39.7412791,13.6842105 L39.375,13.4210526 L39.7412791,13.1578947 L41.6337209,13.1578947 L42,13.4210526 L42,13.4210526 Z M42.4375,10.5263158 L42,10.056391 L42,8.27067669 L42.2019231,7.89473684 L42.4038462,8.27067669 L42.4038462,10.5263158 L42.4375,10.5263158 Z M42.4038462,12.7819549 L42.2019231,13.1578947 L42,12.7819549 L42,10.9022556 L42.4375,10.5263158 L42.4375,12.7819549 L42.4038462,12.7819549 Z" id="Shape"></path>
                    <path d="M21.5454545,10.5263158 L21,10.1393189 L21,8.51393189 L21.5454545,7.89473684 L21.5454545,10.5263158 L21.5454545,10.5263158 Z M21.5454545,13.1578947 L21,12.5386997 L21,10.8359133 L21.5454545,10.5263158 L21.5454545,13.1578947 L21.5454545,13.1578947 Z" id="Shape"></path>
                    <path d="M0.4375,17.9673321 L0,18.4210526 L0,16.1524501 L0.201923077,15.7894737 L0.403846154,16.1524501 L0.403846154,17.9673321 L0.4375,17.9673321 Z M0.403846154,20.6766917 L0.201923077,21.0526316 L0,20.6766917 L0,18.4210526 L0.4375,18.7969925 L0.4375,20.6766917 L0.403846154,20.6766917 Z M2.625,16.0526316 L2.25872093,16.3157895 L0.36627907,16.3157895 L0,16.0526316 L0.36627907,15.7894737 L2.25872093,15.7894737 L2.625,16.0526316 L2.625,16.0526316 Z M2.625,21.3157895 L2.25872093,21.5789474 L0.36627907,21.5789474 L0,21.3157895 L0.36627907,21.0526316 L2.25872093,21.0526316 L2.625,21.3157895 L2.625,21.3157895 Z M3.0625,18.4210526 L2.625,17.9673321 L2.625,16.1524501 L2.82692308,15.7894737 L3.02884615,16.1524501 L3.02884615,18.4210526 L3.0625,18.4210526 Z M3.02884615,20.6766917 L2.82692308,21.0526316 L2.625,20.6766917 L2.625,18.7969925 L3.0625,18.4210526 L3.0625,20.6766917 L3.02884615,20.6766917 Z" id="Shape"></path>
                    <path d="M5.79545455,18.4210526 L5.25,18.0340557 L5.25,16.4086687 L5.79545455,15.7894737 L5.79545455,18.4210526 L5.79545455,18.4210526 Z M5.79545455,21.0526316 L5.25,20.4334365 L5.25,18.7306502 L5.79545455,18.4210526 L5.79545455,21.0526316 L5.79545455,21.0526316 Z" id="Shape"></path>
                    <path d="M11.0454545,18.4210526 L10.5,18.0340557 L10.5,16.4086687 L11.0454545,15.7894737 L11.0454545,18.4210526 L11.0454545,18.4210526 Z M11.0454545,21.0526316 L10.5,20.4334365 L10.5,18.7306502 L11.0454545,18.4210526 L11.0454545,21.0526316 L11.0454545,21.0526316 Z" id="Shape"></path>
                    <path d="M10.9375,17.9673321 L10.5,18.4210526 L10.5,16.1524501 L10.7019231,15.7894737 L10.9038462,16.1524501 L10.9038462,17.9673321 L10.9375,17.9673321 Z M10.9038462,20.6766917 L10.7019231,21.0526316 L10.5,20.6766917 L10.5,18.4210526 L10.9375,18.7969925 L10.9375,20.6766917 L10.9038462,20.6766917 Z M13.125,16.0526316 L12.7670455,16.3157895 L10.9176136,16.3157895 L10.5,16.0526316 L10.8579545,15.7894737 L12.7073864,15.7894737 L13.125,16.0526316 L13.125,16.0526316 Z M13.125,21.3157895 L12.7670455,21.5789474 L10.9176136,21.5789474 L10.5,21.3157895 L10.8579545,21.0526316 L12.7073864,21.0526316 L13.125,21.3157895 L13.125,21.3157895 Z M13.5625,18.4210526 L13.125,17.9673321 L13.125,16.1524501 L13.3269231,15.7894737 L13.5288462,16.1524501 L13.5288462,18.4210526 L13.5625,18.4210526 Z M13.5288462,20.6766917 L13.3269231,21.0526316 L13.125,20.6766917 L13.125,18.7969925 L13.5625,18.4210526 L13.5625,20.6766917 L13.5288462,20.6766917 Z" id="Shape"></path>
                    <path d="M16.1875,17.9673321 L15.75,18.4210526 L15.75,16.1524501 L15.9519231,15.7894737 L16.1538462,16.1524501 L16.1538462,17.9673321 L16.1875,17.9673321 Z M16.1538462,20.6766917 L15.9519231,21.0526316 L15.75,20.6766917 L15.75,18.4210526 L16.1875,18.7969925 L16.1875,20.6766917 L16.1538462,20.6766917 Z M18.375,16.0526316 L18.0087209,16.3157895 L16.1162791,16.3157895 L15.75,16.0526316 L16.1162791,15.7894737 L18.0087209,15.7894737 L18.375,16.0526316 L18.375,16.0526316 Z M18.375,21.3157895 L18.0087209,21.5789474 L16.1162791,21.5789474 L15.75,21.3157895 L16.1162791,21.0526316 L18.0087209,21.0526316 L18.375,21.3157895 L18.375,21.3157895 Z M18.8125,18.4210526 L18.375,17.9673321 L18.375,16.1524501 L18.5769231,15.7894737 L18.7788462,16.1524501 L18.7788462,18.4210526 L18.8125,18.4210526 Z M18.7788462,20.6766917 L18.5769231,21.0526316 L18.375,20.6766917 L18.375,18.7969925 L18.8125,18.4210526 L18.8125,20.6766917 L18.7788462,20.6766917 Z" id="Shape"></path>
                    <path d="M21.5034965,18.4210526 L21,18.0340557 L21,16.4086687 L21.5454545,15.7894737 L21.5454545,18.4210526 L21.5034965,18.4210526 Z M21.5454545,21.0526316 L21,20.4334365 L21,18.7306502 L21.5454545,18.4210526 L21.5454545,21.0526316 L21.5454545,21.0526316 Z" id="Shape"></path>
                    <path d="M21.4375,17.9673321 L21,18.4210526 L21,16.1524501 L21.2019231,15.7894737 L21.4038462,16.1524501 L21.4038462,17.9673321 L21.4375,17.9673321 Z M21.4038462,20.6766917 L21.2019231,21.0526316 L21,20.6766917 L21,18.4210526 L21.4375,18.7969925 L21.4375,20.6766917 L21.4038462,20.6766917 Z M23.625,16.0526316 L23.2587209,16.3157895 L21.3662791,16.3157895 L21,16.0526316 L21.3662791,15.7894737 L23.2587209,15.7894737 L23.625,16.0526316 L23.625,16.0526316 Z M23.625,21.3157895 L23.2587209,21.5789474 L21.3662791,21.5789474 L21,21.3157895 L21.3662791,21.0526316 L23.2587209,21.0526316 L23.625,21.3157895 L23.625,21.3157895 Z M24.0625,18.4210526 L23.625,17.9673321 L23.625,16.1524501 L23.84375,15.7894737 L24.0625,16.1524501 L24.0625,18.4210526 L24.0625,18.4210526 Z M24.0288462,20.6766917 L23.8269231,21.0526316 L23.625,20.6766917 L23.625,18.7969925 L24.0625,18.4210526 L24.0625,20.6766917 L24.0288462,20.6766917 Z" id="Shape"></path>
                    <path d="M26.6875,17.9673321 L26.25,18.4210526 L26.25,16.1524501 L26.4519231,15.7894737 L26.6538462,16.1524501 L26.6538462,17.9673321 L26.6875,17.9673321 Z M26.6538462,20.6766917 L26.4519231,21.0526316 L26.25,20.6766917 L26.25,18.4210526 L26.6875,18.7969925 L26.6875,20.6766917 L26.6538462,20.6766917 Z M28.875,16.0526316 L28.5087209,16.3157895 L26.6162791,16.3157895 L26.25,16.0526316 L26.6162791,15.7894737 L28.5087209,15.7894737 L28.875,16.0526316 L28.875,16.0526316 Z M28.875,21.3157895 L28.5087209,21.5789474 L26.6162791,21.5789474 L26.25,21.3157895 L26.6162791,21.0526316 L28.5087209,21.0526316 L28.875,21.3157895 L28.875,21.3157895 Z M29.3125,18.4210526 L28.875,17.9673321 L28.875,16.1524501 L29.0769231,15.7894737 L29.2788462,16.1524501 L29.2788462,18.4210526 L29.3125,18.4210526 Z M29.2788462,20.6766917 L29.0769231,21.0526316 L28.875,20.6766917 L28.875,18.7969925 L29.3125,18.4210526 L29.3125,20.6766917 L29.2788462,20.6766917 Z" id="Shape"></path>
                    <path d="M34.6704545,23.6842105 L34.125,23.2972136 L34.125,21.6718266 L34.6704545,21.0526316 L34.6704545,23.6842105 L34.6704545,23.6842105 Z M34.6704545,26.3157895 L34.125,25.6965944 L34.125,23.993808 L34.6704545,23.6842105 L34.6704545,26.3157895 L34.6704545,26.3157895 Z" id="Shape"></path>
                    <path d="M34.5625,23.2142857 L34.125,23.6842105 L34.125,21.4285714 L34.3269231,21.0526316 L34.5288462,21.4285714 L34.5288462,23.2142857 L34.5625,23.2142857 Z M34.5288462,25.9398496 L34.3269231,26.3157895 L34.125,25.9398496 L34.125,23.6842105 L34.5625,24.0601504 L34.5625,25.9398496 L34.5288462,25.9398496 Z M36.75,21.3157895 L36.3920455,21.5789474 L34.5426136,21.5789474 L34.125,21.3157895 L34.4829545,21.0526316 L36.3323864,21.0526316 L36.75,21.3157895 L36.75,21.3157895 Z M36.75,26.5789474 L36.3920455,26.8421053 L34.5426136,26.8421053 L34.125,26.5789474 L34.4829545,26.3157895 L36.3323864,26.3157895 L36.75,26.5789474 L36.75,26.5789474 Z M37.1875,23.6842105 L36.75,23.2142857 L36.75,21.4285714 L36.9519231,21.0526316 L37.1538462,21.4285714 L37.1538462,23.6842105 L37.1875,23.6842105 Z M37.1538462,25.9398496 L36.9519231,26.3157895 L36.75,25.9398496 L36.75,24.0601504 L37.1875,23.6842105 L37.1875,25.9398496 L37.1538462,25.9398496 Z" id="Shape"></path>
                    <path d="M39.8125,23.3082707 L39.375,23.6842105 L39.375,21.4285714 L39.5769231,21.0526316 L39.7788462,21.4285714 L39.7788462,23.3082707 L39.8125,23.3082707 Z M39.8125,25.9398496 L39.6105769,26.3157895 L39.375,25.9398496 L39.375,23.6842105 L39.8125,24.0601504 L39.8125,25.9398496 L39.8125,25.9398496 Z M42,21.3157895 L41.6337209,21.5789474 L39.7412791,21.5789474 L39.375,21.3157895 L39.7412791,21.0526316 L41.6337209,21.0526316 L42,21.3157895 L42,21.3157895 Z M42,26.5789474 L41.6337209,26.8421053 L39.7412791,26.8421053 L39.375,26.5789474 L39.7412791,26.3157895 L41.6337209,26.3157895 L42,26.5789474 L42,26.5789474 Z M42.4375,23.6842105 L42,23.2142857 L42,21.4285714 L42.2019231,21.0526316 L42.4038462,21.4285714 L42.4038462,23.6842105 L42.4375,23.6842105 Z M42.4038462,25.9398496 L42.2019231,26.3157895 L42,25.9398496 L42,24.0601504 L42.4375,23.6842105 L42.4375,25.9398496 L42.4038462,25.9398496 Z" id="Shape"></path>
                    <path d="M32.0454545,18.4210526 L31.5,18.0340557 L31.5,16.4086687 L32.0454545,15.7894737 L32.0454545,18.4210526 L32.0454545,18.4210526 Z M32.0454545,21.0526316 L31.5,20.4334365 L31.5,18.7306502 L32.0454545,18.4210526 L32.0454545,21.0526316 L32.0454545,21.0526316 Z" id="Shape"></path>
                    <path d="M34.5625,17.9673321 L34.125,18.4210526 L34.125,16.1524501 L34.3269231,15.7894737 L34.5625,16.1524501 L34.5625,17.9673321 L34.5625,17.9673321 Z M34.5288462,20.6766917 L34.3269231,21.0526316 L34.125,20.6766917 L34.125,18.4210526 L34.5625,18.7969925 L34.5625,20.6766917 L34.5288462,20.6766917 Z M36.75,16.0526316 L36.3837209,16.3157895 L34.4912791,16.3157895 L34.125,16.0526316 L34.4912791,15.7894737 L36.3837209,15.7894737 L36.75,16.0526316 L36.75,16.0526316 Z M36.75,21.3157895 L36.3837209,21.5789474 L34.4912791,21.5789474 L34.125,21.3157895 L34.4912791,21.0526316 L36.3837209,21.0526316 L36.75,21.3157895 L36.75,21.3157895 Z M37.1875,18.4210526 L36.75,17.9673321 L36.75,16.1524501 L36.96875,15.7894737 L37.1875,16.1524501 L37.1875,18.4210526 L37.1875,18.4210526 Z M37.1538462,20.6766917 L36.9519231,21.0526316 L36.75,20.6766917 L36.75,18.7969925 L37.1875,18.4210526 L37.1875,20.6766917 L37.1538462,20.6766917 Z" id="Shape"></path>
                    <path d="M37.1875,17.9673321 L36.75,18.4210526 L36.75,16.1524501 L36.9519231,15.7894737 L37.1538462,16.1524501 L37.1538462,17.9673321 L37.1875,17.9673321 Z M37.1538462,20.6766917 L36.9519231,21.0526316 L36.75,20.6766917 L36.75,18.4210526 L37.1875,18.7969925 L37.1875,20.6766917 L37.1538462,20.6766917 Z M39.375,16.0526316 L39.0087209,16.3157895 L37.1162791,16.3157895 L36.75,16.0526316 L37.1162791,15.7894737 L39.0087209,15.7894737 L39.375,16.0526316 L39.375,16.0526316 Z M39.375,21.3157895 L39.0087209,21.5789474 L37.1162791,21.5789474 L36.75,21.3157895 L37.1162791,21.0526316 L39.0087209,21.0526316 L39.375,21.3157895 L39.375,21.3157895 Z M39.8125,18.4210526 L39.375,17.9673321 L39.375,16.1524501 L39.59375,15.7894737 L39.8125,16.1524501 L39.8125,18.4210526 L39.8125,18.4210526 Z M39.7788462,20.5827068 L39.5769231,21.0526316 L39.375,20.6766917 L39.375,18.7969925 L39.8125,18.4210526 L39.8125,20.5827068 L39.7788462,20.5827068 Z" id="Shape"></path>
                    <path d="M42.5454545,18.4210526 L42,18.0340557 L42,16.4086687 L42.5454545,15.7894737 L42.5454545,18.4210526 L42.5454545,18.4210526 Z M42.5454545,21.0526316 L42,20.4334365 L42,18.7306502 L42.5454545,18.4210526 L42.5454545,21.0526316 L42.5454545,21.0526316 Z" id="Shape"></path>
                    <g transform="translate(0.000000, 21.052632)" id="Shape">
                        <path d="M24.0625,2.16165414 L23.625,2.63157895 L23.625,0.37593985 L23.8269231,0 L24.0288462,0.37593985 L24.0288462,2.16165414 L24.0625,2.16165414 Z M24.0288462,4.88721805 L23.8269231,5.26315789 L23.625,4.88721805 L23.625,2.63157895 L24.0625,3.0075188 L24.0625,4.88721805 L24.0288462,4.88721805 Z M26.25,0.263157895 L25.8837209,0.526315789 L23.9912791,0.526315789 L23.625,0.263157895 L23.9912791,0 L25.8837209,0 L26.25,0.263157895 L26.25,0.263157895 Z M26.25,5.52631579 L25.8837209,5.78947368 L23.9912791,5.78947368 L23.625,5.52631579 L23.9912791,5.26315789 L25.8837209,5.26315789 L26.25,5.52631579 L26.25,5.52631579 Z M26.6875,2.63157895 L26.25,2.16165414 L26.25,0.37593985 L26.4519231,0 L26.6538462,0.37593985 L26.6538462,2.63157895 L26.6875,2.63157895 Z M26.6538462,4.88721805 L26.4519231,5.26315789 L26.25,4.88721805 L26.25,3.0075188 L26.6875,2.63157895 L26.6875,4.88721805 L26.6538462,4.88721805 Z"></path>
                        <path d="M26.8026316,2.63157895 L26.25,2.24458204 L26.25,0.619195046 L26.8026316,0 L26.8026316,2.63157895 L26.8026316,2.63157895 Z M26.8026316,5.26315789 L26.25,4.64396285 L26.25,2.94117647 L26.8026316,2.63157895 L26.8026316,5.26315789 L26.8026316,5.26315789 Z"></path>
                        <path d="M32.0526316,2.63157895 L31.5,2.31259968 L31.5,0.637958533 L32.0526316,0 L32.0526316,2.63157895 L32.0526316,2.63157895 Z M32.0526316,5.26315789 L31.5,4.64396285 L31.5,2.94117647 L32.0526316,2.63157895 L32.0526316,5.26315789 L32.0526316,5.26315789 Z"></path>
                        <path d="M0.4375,2.16165414 L0,2.63157895 L0,0.37593985 L0.201923077,0 L0.403846154,0.37593985 L0.403846154,2.16165414 L0.4375,2.16165414 Z M0.403846154,4.88721805 L0.201923077,5.26315789 L0,4.88721805 L0,2.63157895 L0.4375,3.0075188 L0.4375,4.88721805 L0.403846154,4.88721805 Z M2.625,0.263157895 L2.19767442,0.526315789 L0.36627907,0.526315789 L0,0.263157895 L0.36627907,0 L2.25872093,0 L2.625,0.263157895 L2.625,0.263157895 Z M2.625,5.52631579 L2.19767442,5.78947368 L0.36627907,5.78947368 L0,5.52631579 L0.36627907,5.26315789 L2.25872093,5.26315789 L2.625,5.52631579 L2.625,5.52631579 Z M3.0625,2.63157895 L2.625,2.16165414 L2.625,0.37593985 L2.82692308,0 L3.02884615,0.37593985 L3.02884615,2.63157895 L3.0625,2.63157895 Z M3.02884615,4.88721805 L2.82692308,5.26315789 L2.625,4.88721805 L2.625,3.0075188 L3.0625,2.63157895 L3.0625,4.88721805 L3.02884615,4.88721805 Z"></path>
                        <path d="M5.6875,2.16165414 L5.25,2.63157895 L5.25,0.37593985 L5.45192308,0 L5.65384615,0.37593985 L5.65384615,2.16165414 L5.6875,2.16165414 Z M5.65384615,4.88721805 L5.45192308,5.26315789 L5.25,4.88721805 L5.25,2.63157895 L5.6875,3.0075188 L5.6875,4.88721805 L5.65384615,4.88721805 Z M7.875,0.263157895 L7.50872093,0.526315789 L5.61627907,0.526315789 L5.25,0.263157895 L5.61627907,0 L7.50872093,0 L7.875,0.263157895 L7.875,0.263157895 Z M7.875,5.52631579 L7.50872093,5.78947368 L5.61627907,5.78947368 L5.25,5.52631579 L5.61627907,5.26315789 L7.50872093,5.26315789 L7.875,5.52631579 L7.875,5.52631579 Z M8.3125,2.63157895 L7.875,2.16165414 L7.875,0.37593985 L8.07692308,0 L8.27884615,0.37593985 L8.27884615,2.63157895 L8.3125,2.63157895 Z M8.27884615,4.88721805 L8.07692308,5.26315789 L7.875,4.88721805 L7.875,3.0075188 L8.3125,2.63157895 L8.3125,4.88721805 L8.27884615,4.88721805 Z"></path>
                        <path d="M11.0526316,2.63157895 L10.5,2.24458204 L10.5,0.619195046 L11.0526316,0 L11.0526316,2.63157895 L11.0526316,2.63157895 Z M11.0526316,5.26315789 L10.5,4.64396285 L10.5,2.94117647 L11.0526316,2.63157895 L11.0526316,5.26315789 L11.0526316,5.26315789 Z"></path>
                        <path d="M10.9375,2.16165414 L10.5,2.63157895 L10.5,0.37593985 L10.7019231,0 L10.9038462,0.37593985 L10.9038462,2.16165414 L10.9375,2.16165414 Z M10.9038462,4.88721805 L10.7019231,5.26315789 L10.5,4.88721805 L10.5,2.63157895 L10.9375,3.0075188 L10.9375,4.88721805 L10.9038462,4.88721805 Z M13.125,0.263157895 L12.7587209,0.526315789 L10.8662791,0.526315789 L10.5,0.263157895 L10.8662791,0 L12.7587209,0 L13.125,0.263157895 L13.125,0.263157895 Z M13.125,5.52631579 L12.7587209,5.78947368 L10.8662791,5.78947368 L10.5,5.52631579 L10.8662791,5.26315789 L12.7587209,5.26315789 L13.125,5.52631579 L13.125,5.52631579 Z M13.5625,2.63157895 L13.125,2.2417154 L13.125,0.389863548 L13.3269231,0 L13.5288462,0.389863548 L13.5288462,2.63157895 L13.5625,2.63157895 Z M13.5625,4.88721805 L13.3605769,5.26315789 L13.125,4.88721805 L13.125,3.0075188 L13.5625,2.63157895 L13.5625,4.88721805 L13.5625,4.88721805 Z"></path>
                        <path d="M16.1875,2.16165414 L15.75,2.63157895 L15.75,0.37593985 L15.9519231,0 L16.1538462,0.37593985 L16.1538462,2.16165414 L16.1875,2.16165414 Z M16.1538462,4.88721805 L15.9519231,5.26315789 L15.75,4.88721805 L15.75,2.63157895 L16.1875,3.0075188 L16.1875,4.88721805 L16.1538462,4.88721805 Z M18.375,0.263157895 L18.0170455,0.526315789 L16.1676136,0.526315789 L15.75,0.263157895 L16.1079545,0 L17.9573864,0 L18.375,0.263157895 L18.375,0.263157895 Z M18.375,5.52631579 L18.0170455,5.78947368 L16.1676136,5.78947368 L15.75,5.52631579 L16.1079545,5.26315789 L17.9573864,5.26315789 L18.375,5.52631579 L18.375,5.52631579 Z M18.8125,2.63157895 L18.375,2.16165414 L18.375,0.37593985 L18.5769231,0 L18.7788462,0.37593985 L18.7788462,2.63157895 L18.8125,2.63157895 Z M18.7788462,4.88721805 L18.5769231,5.26315789 L18.375,4.88721805 L18.375,3.0075188 L18.8125,2.63157895 L18.8125,4.88721805 L18.7788462,4.88721805 Z"></path>
                        <path d="M21.5526316,2.63157895 L21,2.24458204 L21,0.619195046 L21.5526316,0 L21.5526316,2.63157895 L21.5526316,2.63157895 Z M21.5526316,5.26315789 L21,4.64396285 L21,2.94117647 L21.5526316,2.63157895 L21.5526316,5.26315789 L21.5526316,5.26315789 Z"></path>
                    </g>
                </g>
                <g id="Group-15" transform="translate(21.000000, 5.263158)" sketch:type="MSShapeGroup">
                    <path d="M34.215103,41.2381067 C35.3684211,42.3943153 37.194508,42.3943153 38.3478261,41.2381067 L41.1350114,38.4439359 C42.2883295,37.2877273 42.2883295,35.4570637 41.1350114,34.3008551 L27.9199085,21.0526316 L21,27.9898832 L34.215103,41.2381067 Z" id="Shape-4" fill="url(#linearGradient-9)" filter="url(#filter-10)"></path>
                    <ellipse id="Oval-6" fill="url(#linearGradient-11)" filter="url(#filter-12)" cx="17.0625" cy="17.1052632" rx="17.0625" ry="17.1052632"></ellipse>
                    <path d="M6.8529013,6.87007649 C12.490103,1.21874643 21.634897,1.21874643 27.2720987,6.87007649 C32.9093004,12.5214066 32.9093004,21.6891198 27.2720987,27.3404498 C21.634897,32.9917799 12.490103,32.9917799 6.8529013,27.3404498 C1.21569957,21.6891198 1.21569957,12.5214066 6.8529013,6.87007649 L6.8529013,6.87007649 Z" id="Shape-3" fill-opacity="0.3" fill="url(#linearGradient-13)"></path>
                    <ellipse id="Oval-7" fill="url(#linearGradient-14)" filter="url(#filter-15)" cx="15.75" cy="15.7894737" rx="13.125" ry="13.1578947"></ellipse>
                </g>
                <path d="M35.4375,20.112782 L32.8125,21.0526316 L32.8125,16.5413534 L34.0240385,15.7894737 L35.2355769,16.5413534 L35.2355769,20.112782 L35.4375,20.112782 Z M35.2355769,25.5639098 L34.0240385,26.3157895 L32.8125,25.5639098 L32.8125,21.0526316 L35.4375,21.8045113 L35.4375,25.5639098 L35.2355769,25.5639098 Z M42,14.2105263 L40.9011628,15.2631579 L35.2238372,15.2631579 L34.125,14.2105263 L35.2238372,13.1578947 L40.9011628,13.1578947 L42,14.2105263 L42,14.2105263 Z M42,27.3684211 L40.9011628,28.4210526 L35.2238372,28.4210526 L34.125,27.3684211 L35.2238372,26.3157895 L40.9011628,26.3157895 L42,27.3684211 L42,27.3684211 Z M43.3125,21.0526316 L40.6875,20.112782 L40.6875,16.5413534 L41.8990385,15.7894737 L43.1105769,16.5413534 L43.1105769,21.0526316 L43.3125,21.0526316 Z M43.1105769,25.5639098 L41.8990385,26.3157895 L40.6875,25.5639098 L40.6875,21.8045113 L43.3125,21.0526316 L43.3125,25.5639098 L43.1105769,25.5639098 Z" id="Shape-7" fill="#FFFFFF" sketch:type="MSShapeGroup"></path>
            </g>
        </g>
    </g>
</svg>