<?xml version="1.0" encoding="UTF-8" standalone="no"?>
<svg width="100px" height="100px" viewBox="0 0 100 100" version="1.1" xmlns="http://www.w3.org/2000/svg" xmlns:xlink="http://www.w3.org/1999/xlink" xmlns:sketch="http://www.bohemiancoding.com/sketch/ns">
    <!-- Generator: Sketch 3.3.3 (12081) - http://www.bohemiancoding.com/sketch -->
    <title>top_nav_icon_attack_discovery</title>
    <desc>Created with Sketch.</desc>
    <defs>
        <linearGradient x1="50%" y1="0%" x2="50%" y2="100%" id="linearGradient-1">
            <stop stop-color="#696969" offset="0%"></stop>
            <stop stop-color="#343434" offset="65.7665019%"></stop>
            <stop stop-color="#4C4B4B" offset="100%"></stop>
        </linearGradient>
        <filter x="-50%" y="-50%" width="200%" height="200%" filterUnits="objectBoundingBox" id="filter-2">
            <feOffset dx="0" dy="5" in="SourceAlpha" result="shadowOffsetOuter1"></feOffset>
            <feGaussianBlur stdDeviation="4.5" in="shadowOffsetOuter1" result="shadowBlurOuter1"></feGaussianBlur>
            <feColorMatrix values="0 0 0 0 0   0 0 0 0 0   0 0 0 0 0  0 0 0 0.35 0" in="shadowBlurOuter1" type="matrix" result="shadowMatrixOuter1"></feColorMatrix>
            <feOffset dx="0" dy="0" in="SourceAlpha" result="shadowOffsetOuter2"></feOffset>
            <feGaussianBlur stdDeviation="9" in="shadowOffsetOuter2" result="shadowBlurOuter2"></feGaussianBlur>
            <feColorMatrix values="0 0 0 0 0.4   0 0 0 0 0.8   0 0 0 0 0  0 0 0 0.35 0" in="shadowBlurOuter2" type="matrix" result="shadowMatrixOuter2"></feColorMatrix>
            <feOffset dx="0" dy="3" in="SourceAlpha" result="shadowOffsetInner1"></feOffset>
            <feGaussianBlur stdDeviation="1.5" in="shadowOffsetInner1" result="shadowBlurInner1"></feGaussianBlur>
            <feComposite in="shadowBlurInner1" in2="SourceAlpha" operator="arithmetic" k2="-1" k3="1" result="shadowInnerInner1"></feComposite>
            <feColorMatrix values="0 0 0 0 1   0 0 0 0 1   0 0 0 0 1  0 0 0 0.35 0" in="shadowInnerInner1" type="matrix" result="shadowMatrixInner1"></feColorMatrix>
            <feMerge>
                <feMergeNode in="shadowMatrixOuter1"></feMergeNode>
                <feMergeNode in="shadowMatrixOuter2"></feMergeNode>
                <feMergeNode in="SourceGraphic"></feMergeNode>
                <feMergeNode in="shadowMatrixInner1"></feMergeNode>
            </feMerge>
        </filter>
        <filter x="-50%" y="-50%" width="200%" height="200%" filterUnits="objectBoundingBox" id="filter-3">
            <feOffset dx="0" dy="0" in="SourceAlpha" result="shadowOffsetOuter1"></feOffset>
            <feGaussianBlur stdDeviation="4.5" in="shadowOffsetOuter1" result="shadowBlurOuter1"></feGaussianBlur>
            <feColorMatrix values="0 0 0 0 0.4   0 0 0 0 0.8   0 0 0 0 0  0 0 0 0.7 0" in="shadowBlurOuter1" type="matrix" result="shadowMatrixOuter1"></feColorMatrix>
            <feMerge>
                <feMergeNode in="shadowMatrixOuter1"></feMergeNode>
                <feMergeNode in="SourceGraphic"></feMergeNode>
            </feMerge>
        </filter>
        <filter x="-50%" y="-50%" width="200%" height="200%" filterUnits="objectBoundingBox" id="filter-4">
            <feOffset dx="0" dy="0" in="SourceAlpha" result="shadowOffsetOuter1"></feOffset>
            <feGaussianBlur stdDeviation="4.5" in="shadowOffsetOuter1" result="shadowBlurOuter1"></feGaussianBlur>
            <feColorMatrix values="0 0 0 0 0.4   0 0 0 0 0.8   0 0 0 0 0  0 0 0 0.7 0" in="shadowBlurOuter1" type="matrix" result="shadowMatrixOuter1"></feColorMatrix>
            <feMerge>
                <feMergeNode in="shadowMatrixOuter1"></feMergeNode>
                <feMergeNode in="SourceGraphic"></feMergeNode>
            </feMerge>
        </filter>
        <filter x="-50%" y="-50%" width="200%" height="200%" filterUnits="objectBoundingBox" id="filter-5">
            <feOffset dx="0" dy="0" in="SourceAlpha" result="shadowOffsetOuter1"></feOffset>
            <feGaussianBlur stdDeviation="4.5" in="shadowOffsetOuter1" result="shadowBlurOuter1"></feGaussianBlur>
            <feColorMatrix values="0 0 0 0 0.4   0 0 0 0 0.8   0 0 0 0 0  0 0 0 0.7 0" in="shadowBlurOuter1" type="matrix" result="shadowMatrixOuter1"></feColorMatrix>
            <feMerge>
                <feMergeNode in="shadowMatrixOuter1"></feMergeNode>
                <feMergeNode in="SourceGraphic"></feMergeNode>
            </feMerge>
        </filter>
        <filter x="-50%" y="-50%" width="200%" height="200%" filterUnits="objectBoundingBox" id="filter-6">
            <feOffset dx="0" dy="0" in="SourceAlpha" result="shadowOffsetOuter1"></feOffset>
            <feGaussianBlur stdDeviation="4.5" in="shadowOffsetOuter1" result="shadowBlurOuter1"></feGaussianBlur>
            <feColorMatrix values="0 0 0 0 0.4   0 0 0 0 0.8   0 0 0 0 0  0 0 0 0.7 0" in="shadowBlurOuter1" type="matrix" result="shadowMatrixOuter1"></feColorMatrix>
            <feMerge>
                <feMergeNode in="shadowMatrixOuter1"></feMergeNode>
                <feMergeNode in="SourceGraphic"></feMergeNode>
            </feMerge>
        </filter>
    </defs>
    <g id="TopNav" stroke="none" stroke-width="1" fill="none" fill-rule="evenodd" sketch:type="MSPage">
        <g id="top_nav_icon_attack_discovery" sketch:type="MSArtboardGroup">
            <g id="Attack-Discovery-2" sketch:type="MSLayerGroup" transform="translate(23.000000, 23.000000)">
                <circle id="Oval-118" fill="url(#linearGradient-1)" filter="url(#filter-2)" sketch:type="MSShapeGroup" cx="27.5" cy="27.5" r="27.5"></circle>
                <g id="Group" transform="translate(4.845238, 5.892857)" fill="#66CC00" sketch:type="MSShapeGroup">
                    <path d="M19.6428571,0.00785978609 L19.6428571,2.219514 C19.6428571,2.219514 16.9740569,2.07075977 13.6492058,3.56275777 C12.3124438,4.16261807 10.8805043,5.06499627 9.87517624,5.99655468 C8.86984822,6.9281131 7.32203146,8.42859691 6.24608906,9.91169117 C4.59833159,12.1829834 4.04004659,13.2359729 3.32808187,15.5040606 C2.61611714,17.7721483 2.16452944,21.6071429 2.16452944,21.6071429 L0,21.6071429 C0,21.6071429 0.0469139654,19.676113 0.870827897,16.0535251 C1.69474183,12.4309372 3.7955724,9.13887284 5.64564375,6.96521055 C6.3369983,6.15293306 7.74130284,4.84811551 9.03650225,3.81431638 C10.3317017,2.78051724 11.9864467,1.88038897 13.286343,1.33432499 C16.9019399,-0.184524793 19.6428571,0.00785978609 19.6428571,0.00785978609 Z" id="Path-2082" filter="url(#filter-3)"></path>
                    <path d="M25.5357143,0.00785978609 L25.5357143,2.219514 C25.5357143,2.219514 28.2045145,2.07075977 31.5293656,3.56275777 C32.8661276,4.16261807 34.2980672,5.06499627 35.3033952,5.99655468 C36.3087232,6.9281131 37.85654,8.42859691 38.9324824,9.91169117 C40.5802398,12.1829834 41.1385248,13.2359729 41.8504896,15.5040606 C42.5624543,17.7721483 43.014042,21.6071429 43.014042,21.6071429 L45.1785714,21.6071429 C45.1785714,21.6071429 45.1316575,19.676113 44.3077435,16.0535251 C43.4838296,12.4309372 41.382999,9.13887284 39.5329277,6.96521055 C38.8415731,6.15293306 37.4372686,4.84811551 36.1420692,3.81431638 C34.8468698,2.78051724 33.1921247,1.88038897 31.8922284,1.33432499 C28.2766315,-0.184524793 25.5357143,0.00785978609 25.5357143,0.00785978609 Z" id="Path-2083" filter="url(#filter-4)"></path>
                    <path d="M19.6428571,45.1707116 L19.6428571,42.9590574 C19.6428571,42.9590574 16.9740569,43.1078117 13.6492058,41.6158137 C12.3124438,41.0159534 10.8805043,40.1135752 9.87517624,39.1820167 C8.86984822,38.2504583 7.32203146,36.7499745 6.24608906,35.2668803 C4.59833159,32.995588 4.04004659,31.9425985 3.32808187,29.6745108 C2.61611714,27.4064231 2.16452944,23.5714286 2.16452944,23.5714286 L0,23.5714286 C0,23.5714286 0.0469139654,25.5024585 0.870827897,29.1250463 C1.69474183,32.7476342 3.7955724,36.0396986 5.64564375,38.2133609 C6.3369983,39.0256384 7.74130284,40.3304559 9.03650225,41.3642551 C10.3317017,42.3980542 11.9864467,43.2981825 13.286343,43.8442464 C16.9019399,45.3630962 19.6428571,45.1707116 19.6428571,45.1707116 Z" id="Path-2090" filter="url(#filter-5)"></path>
                    <path d="M25.5357143,45.1707116 L25.5357143,42.9590574 C25.5357143,42.9590574 28.2045145,43.1078117 31.5293656,41.6158137 C32.8661276,41.0159534 34.2980672,40.1135752 35.3033952,39.1820167 C36.3087232,38.2504583 37.85654,36.7499745 38.9324824,35.2668803 C40.5802398,32.995588 41.1385248,31.9425985 41.8504896,29.6745108 C42.5624543,27.4064231 43.014042,23.5714286 43.014042,23.5714286 L45.1785714,23.5714286 C45.1785714,23.5714286 45.1316575,25.5024585 44.3077435,29.1250463 C43.4838296,32.7476342 41.382999,36.0396986 39.5329277,38.2133609 C38.8415731,39.0256384 37.4372686,40.3304559 36.1420692,41.3642551 C34.8468698,42.3980542 33.1921247,43.2981825 31.8922284,43.8442464 C28.2766315,45.3630962 25.5357143,45.1707116 25.5357143,45.1707116 Z" id="Path-2084" filter="url(#filter-6)"></path>
                    <g id="finger-print" transform="translate(9.821429, 7.857143)">
                        <path d="M20.3824216,3.92857143 C20.1318332,3.92857143 19.83948,3.8588378 19.5888916,3.71937053 C19.5888916,3.71937053 17.4171252,2.35956469 13.5330047,2.11549697 C10.2753551,1.90629608 7.72770616,2.98716738 7.68594143,2.98716738 C7.05947037,3.2312351 6.30770509,3.05690102 6.01535193,2.53389877 C5.72299877,2.01089652 5.97358719,1.38329383 6.55829352,1.13922611 C6.68358773,1.06949248 9.7741783,-0.18571291 13.7000636,0.0234879885 C18.4194789,0.30242252 21.0506574,2.01089652 21.1341869,2.08063016 C21.6771284,2.42929832 21.7606579,3.09176783 21.3430105,3.54503645 C21.1341869,3.78910416 20.7583042,3.92857143 20.3824216,3.92857143 L20.3824216,3.92857143 Z" id="Shape"></path>
                        <path d="M24.2595875,11.7857143 C23.8732345,11.7857143 23.5298096,11.6241384 23.2722409,11.3413805 C23.2722409,11.3009866 21.2116914,9.03892386 17.6915859,7.34237684 C16.4037425,6.73646719 12.9265652,6.04976958 10.6513751,6.41331537 C6.57320422,7.059619 3.95458922,8.59459012 3.9116611,8.63498409 C3.3106675,8.99852989 2.49503332,8.83695398 2.1516084,8.2714383 C1.80818348,7.70592263 1.93696782,6.93843707 2.53796143,6.61528525 C2.66674577,6.5344973 5.62878569,4.83795028 10.1791659,4.07046472 C13.1412058,3.58573699 17.1764486,4.43401051 18.850645,5.24189004 C22.8858878,7.10001298 25.1610779,9.68522749 25.2469341,9.80640942 C25.6762153,10.3315311 25.6332872,11.0990167 25.0752217,11.5029564 C24.817653,11.7049263 24.5171562,11.7857143 24.2595875,11.7857143 L24.2595875,11.7857143 Z" id="Shape"></path>
                        <path d="M24.2237533,17.6785714 C23.783581,17.6785714 23.3874259,17.4503418 23.1233225,17.0395285 C23.0793052,16.9938825 20.4822884,12.9313952 16.652789,11.3337878 C14.0557721,10.2839315 9.7861004,10.1926396 7.45318697,11.19685 C5.47241142,12.1097685 2.1271016,14.7572322 2.1271016,14.8028781 C1.55487755,15.2593374 0.718550098,15.1680455 0.278377754,14.5746485 C-0.161794591,13.9812514 -0.0737601223,13.1139789 0.498463926,12.6575196 C0.630515629,12.5205818 4.15189439,9.73618035 6.44079058,8.77761591 C9.74208317,7.36259222 14.8040651,7.72775962 17.6211681,8.86890776 C22.2429778,10.7403907 25.1921325,15.3506292 25.3241842,15.5788588 C25.7203393,16.2179018 25.5442703,17.0395285 24.9280291,17.4959877 C24.7079429,17.5872796 24.4878567,17.6785714 24.2237533,17.6785714 L24.2237533,17.6785714 Z" id="Shape"></path>
                        <path d="M22.2817507,23.5714286 C21.6896212,23.5714286 21.1397865,23.1496494 21.0129016,22.5169807 C21.0129016,22.4748028 20.5899519,20.1128396 19.9555274,18.5944347 L19.9132324,18.5100789 C18.9827431,16.2746494 18.5597934,15.3889132 16.6142248,13.9970421 C14.6263612,12.562993 13.2306272,12.3521034 11.1158787,12.3521034 C8.91654032,12.3942813 6.80179184,13.1534838 5.44835281,14.3766433 C4.30638863,15.4310911 2.82606469,17.7930543 2.36082002,18.6366126 C2.02246027,19.2271034 1.21885584,19.437993 0.626726267,19.1005697 C0.0345966918,18.7631464 -0.176878156,17.961766 0.161481601,17.3712752 C0.24607154,17.2447415 2.06475523,14.03922 3.75655402,12.5208151 C5.57523772,10.8758764 8.32441074,9.86360649 11.1158787,9.82142857 C13.6535769,9.82142857 15.5568506,10.116674 18.0945487,11.9303243 C20.6322469,13.7017967 21.2243765,15.1358457 22.2394558,17.4978089 L22.2817507,17.5821648 C23.0853551,19.3958151 23.5083048,22.0108457 23.5505998,22.0952016 C23.6774847,22.7700482 23.2122401,23.4448948 22.4932256,23.5714286 L22.2817507,23.5714286 L22.2817507,23.5714286 Z" id="Shape"></path>
                        <path d="M20.20694,29.4642857 C19.5341554,29.4642857 18.9510754,28.969008 18.8613708,28.2486041 C18.5922569,25.7722156 17.740063,21.7649688 16.7084599,20.6843629 C15.5422999,19.4686813 14.241583,18.7482774 12.7614568,18.5231512 C10.9225121,18.2529997 9.39753361,18.6132017 8.05196435,19.6938076 C6.93065663,20.5943125 5.27112121,23.6560291 4.55348427,25.4120137 C4.2395181,26.0873923 3.47702886,26.4025691 2.75939191,26.0873923 C2.08660728,25.7722156 1.77264112,25.0067865 2.08660728,24.2863825 C2.31086883,23.7460796 4.37407503,19.1084794 6.43728123,17.5325958 C8.36593051,16.0017375 10.6533983,15.4614345 13.2099799,15.8216365 C15.2731861,16.1368132 17.156983,17.1273686 18.7268138,18.8383279 C20.7451677,20.9545144 21.4628047,26.8077963 21.5973616,27.9784526 C21.6870662,28.6988566 21.1488385,29.3742352 20.4312016,29.4642857 L20.20694,29.4642857 L20.20694,29.4642857 Z" id="Shape"></path>
                        <path d="M16.2850603,31.4285714 C15.5658288,31.4285714 14.9814531,30.8975572 14.9365012,30.2440012 C14.9365012,30.2031539 14.8465972,27.7931661 14.5319334,25.4240256 C14.3071736,23.6675938 13.3182302,22.4421763 11.969671,22.1562455 C10.8009198,21.911162 9.22760079,22.1562455 8.46341727,23.0957323 C7.83408967,23.87183 6.98000221,26.4043596 6.57543447,27.9974024 C6.39562658,28.6509584 5.67639504,29.0594309 4.95716349,28.8960419 C4.23793195,28.7326529 3.78841223,28.0790969 3.96822012,27.4255409 C4.14802801,26.7311376 5.13697138,23.0957323 6.30572264,21.6660785 C7.83408967,19.787105 10.531208,19.3786325 12.5540467,19.787105 C15.0713571,20.277272 16.824484,22.2787873 17.2290517,25.1380948 C17.5886675,27.6297771 17.6785714,30.0806122 17.6785714,30.1623067 C17.6785714,30.8158627 17.0941958,31.3877242 16.2850603,31.4285714 L16.2850603,31.4285714 L16.2850603,31.4285714 Z" id="Shape"></path>
                        <path d="M11.3584131,31.4285714 C11.150449,31.4285714 10.9424849,31.3863287 10.7865119,31.344086 C10.0066466,31.0906298 9.59071842,30.3302611 9.95465556,29.6966206 C10.1626196,29.3164363 10.6305388,28.1336406 10.6305388,27.2887865 L10.6305388,24.8387097 C10.6305388,24.1205837 11.3064221,23.5714286 12.1902694,23.5714286 C13.0741167,23.5714286 13.75,24.1205837 13.75,24.8387097 L13.75,27.2887865 C13.75,28.7672811 12.9181437,30.4569892 12.8141616,30.6259601 C12.5542065,31.1328725 11.9823053,31.4285714 11.3584131,31.4285714 L11.3584131,31.4285714 Z" id="Shape"></path>
                    </g>
                </g>
            </g>
        </g>
    </g>
</svg>