<?xml version="1.0" encoding="UTF-8" standalone="no"?>
<svg width="100px" height="100px" viewBox="0 0 100 100" version="1.1" xmlns="http://www.w3.org/2000/svg" xmlns:xlink="http://www.w3.org/1999/xlink" xmlns:sketch="http://www.bohemiancoding.com/sketch/ns">
    <!-- Generator: Sketch 3.3.3 (12081) - http://www.bohemiancoding.com/sketch -->
    <title>top_nav_icon_topology</title>
    <desc>Created with Sketch.</desc>
    <defs>
        <radialGradient cx="75.2148438%" cy="31.8945313%" fx="75.2148438%" fy="31.8945313%" r="100.706712%" id="radialGradient-1">
            <stop stop-color="#BBFE78" offset="0%"></stop>
            <stop stop-color="#5CB207" offset="59.5264668%"></stop>
            <stop stop-color="#67C40A" offset="81.3994739%"></stop>
            <stop stop-color="#529C07" offset="100%"></stop>
        </radialGradient>
        <linearGradient x1="50%" y1="0%" x2="50%" y2="100%" id="linearGradient-2">
            <stop stop-color="#FFFFFF" offset="0%"></stop>
            <stop stop-color="#B4ABAB" offset="59.8453444%"></stop>
            <stop stop-color="#B2B0B0" offset="100%"></stop>
        </linearGradient>
        <linearGradient x1="0%" y1="37.7929688%" x2="100%" y2="37.7929688%" id="linearGradient-3">
            <stop stop-color="#FFFFFF" offset="0%"></stop>
            <stop stop-color="#919191" offset="76.1957908%"></stop>
            <stop stop-color="#C7C7C7" offset="100%"></stop>
        </linearGradient>
        <radialGradient cx="50%" cy="0%" fx="50%" fy="0%" r="100%" id="radialGradient-4">
            <stop stop-color="#938F8F" offset="0%"></stop>
            <stop stop-color="#242424" offset="100%"></stop>
        </radialGradient>
        <radialGradient cx="65.8432904%" cy="16.8658088%" fx="65.8432904%" fy="16.8658088%" r="77.7049695%" id="radialGradient-5">
            <stop stop-color="#A5E852" offset="0%"></stop>
            <stop stop-color="#5CA632" offset="72.1460459%"></stop>
            <stop stop-color="#4B962D" offset="100%"></stop>
        </radialGradient>
        <linearGradient x1="20.2238664%" y1="50%" x2="50%" y2="38.0592495%" id="linearGradient-6">
            <stop stop-color="#FFFFFF" offset="0%"></stop>
            <stop stop-color="#C0C0C0" offset="76.1957908%"></stop>
            <stop stop-color="#D7D2D2" offset="100%"></stop>
        </linearGradient>
        <linearGradient x1="20.2238664%" y1="50%" x2="50%" y2="37.2793715%" id="linearGradient-7">
            <stop stop-color="#FFFFFF" offset="0%"></stop>
            <stop stop-color="#B5B2B2" offset="76.1957908%"></stop>
            <stop stop-color="#D6D1D1" offset="100%"></stop>
        </linearGradient>
        <linearGradient x1="25.1299884%" y1="50%" x2="50%" y2="49.4896189%" id="linearGradient-8">
            <stop stop-color="#FFFFFF" offset="0%"></stop>
            <stop stop-color="#ADA9A9" offset="76.1957908%"></stop>
            <stop stop-color="#C7C7C7" offset="100%"></stop>
        </linearGradient>
    </defs>
    <g id="TopNav" stroke="none" stroke-width="1" fill="none" fill-rule="evenodd" sketch:type="MSPage">
        <g id="top_nav_icon_topology" sketch:type="MSArtboardGroup">
            <g sketch:type="MSLayerGroup" transform="translate(19.000000, 21.000000)">
                <ellipse id="Oval-136" fill="url(#radialGradient-1)" sketch:type="MSShapeGroup" cx="33.2115439" cy="32.7018633" rx="6.34844974" ry="6.54037266"></ellipse>
                <path d="M32.9470251,43.0574534 C38.3523428,43.0574534 42.7342185,38.5431071 42.7342185,32.9743788 C42.7342185,27.4056505 38.3523428,22.8913044 32.9470251,22.8913044 C27.5417076,22.8913044 23.1598318,27.4056505 23.1598318,32.9743788 C23.1598318,38.5431071 27.5417076,43.0574534 32.9470251,43.0574534 L32.9470251,43.0574534 Z M32.9470251,41.9673914 C37.7679841,41.9673914 41.6761436,37.9410824 41.6761436,32.9743788 C41.6761436,28.0076752 37.7679841,23.9813665 32.9470251,23.9813665 C28.1260662,23.9813665 24.2179068,28.0076752 24.2179068,32.9743788 C24.2179068,37.9410824 28.1260662,41.9673914 32.9470251,41.9673914 L32.9470251,41.9673914 Z" id="Oval-137" fill="url(#linearGradient-2)" sketch:type="MSShapeGroup"></path>
                <g id="Rectangle-223-+-Oval-139-+-Oval-16" transform="translate(19.806312, 23.305117) rotate(-8.000000) translate(-19.806312, -23.305117) translate(11.628275, 14.019403)" sketch:type="MSShapeGroup">
                    <path d="M5.01922752,7.0808992 L11.2709163,14.91596 L13.0775028,13.6302809 L6.82581395,5.79522011 L5.01922752,7.0808992 L5.01922752,7.0808992 Z" id="Rectangle-223" fill="url(#linearGradient-3)"></path>
                    <ellipse id="Oval-139" fill="url(#radialGradient-4)" cx="12.167862" cy="14.7158385" rx="2.11614991" ry="2.18012422"></ellipse>
                    <ellipse id="Oval-16" fill="url(#radialGradient-5)" cx="3.96778109" cy="4.08773293" rx="3.96778109" ry="4.08773293"></ellipse>
                </g>
                <g id="Rectangle-223-+-Oval-139-+-Oval-17" transform="translate(43.352566, 14.017308) rotate(75.000000) translate(-43.352566, -14.017308) translate(32.837946, 1.249451)" sketch:type="MSShapeGroup">
                    <path d="M10.1980304,11.7703973 L18.5336155,22.2171451 L20.340202,20.931466 L12.0046169,10.4847183 L10.1980304,11.7703973 L10.1980304,11.7703973 Z" id="Rectangle-223" fill="url(#linearGradient-3)"></path>
                    <ellipse id="Oval-139" fill="url(#radialGradient-4)" cx="18.5163117" cy="21.8012422" rx="2.11614991" ry="2.18012422"></ellipse>
                    <path d="M6.61296848,13.6257764 C10.2652101,13.6257764 13.225937,10.5755425 13.225937,6.8128882 C13.225937,3.05023394 10.2652101,0 6.61296848,0 C2.96072683,0 0,3.05023394 0,6.8128882 C0,10.5755425 2.96072683,13.6257764 6.61296848,13.6257764 L6.61296848,13.6257764 Z" id="Oval-16" fill="url(#radialGradient-5)"></path>
                </g>
                <g id="Rectangle-223-+-Oval-139-+-Oval-18" transform="translate(14.261219, 39.172056) rotate(-73.000000) translate(-14.261219, -39.172056) translate(4.914890, 27.564913)" sketch:type="MSShapeGroup">
                    <path d="M5.97444849,8.02663664 L14.558323,19.3439467 L16.2483555,18.0786752 L7.66448096,6.76136516 L5.97444849,8.02663664 L5.97444849,8.02663664 Z" id="Rectangle-223" fill="url(#linearGradient-6)"></path>
                    <ellipse id="Oval-139" fill="url(#radialGradient-4)" cx="15.5625192" cy="19.7624224" rx="2.11614991" ry="2.18012422"></ellipse>
                    <path d="M6.19194282,9.95186335 C8.3211997,9.95186335 10.0473034,8.24373234 10.0473034,6.13664596 C10.0473034,4.02955958 8.3211997,2.32142857 6.19194282,2.32142857 C4.06268594,2.32142857 2.3365822,4.02955958 2.3365822,6.13664596 C2.3365822,8.24373234 4.06268594,9.95186335 6.19194282,9.95186335 L6.19194282,9.95186335 Z" id="Oval-16" fill="url(#radialGradient-5)"></path>
                </g>
                <g id="Rectangle-224-+-Oval-140-+-Oval-17" transform="translate(35.369261, 52.000696) rotate(28.000000) translate(-35.369261, -52.000696) translate(27.191223, 42.714981)" sketch:type="MSShapeGroup">
                    <path d="M1.33434595,3.11382514 L6.94687928,10.5136048 L8.63691175,9.24833332 L3.02437841,1.84855367 L1.33434595,3.11382514 L1.33434595,3.11382514 Z" id="Rectangle-224" fill="url(#linearGradient-7)"></path>
                    <ellipse id="Oval-140" fill="url(#radialGradient-4)" cx="2.11614991" cy="2.18012422" rx="2.11614991" ry="2.18012422"></ellipse>
                    <ellipse id="Oval-17" fill="url(#radialGradient-5)" cx="9.78719336" cy="11.9906832" rx="5.55489352" ry="5.45031057"></ellipse>
                </g>
                <g id="Rectangle-224-+-Oval-140-+-Oval-18" transform="translate(50.540156, 35.118908) rotate(-22.000000) translate(-50.540156, -35.118908) translate(42.362119, 25.833194)" sketch:type="MSShapeGroup">
                    <rect id="Rectangle-224" fill="url(#linearGradient-8)" transform="translate(5.819412, 6.812888) rotate(-37.000000) translate(-5.819412, -6.812888) " x="4.76133731" y="0.545031057" width="2.11614991" height="12.5357143"></rect>
                    <ellipse id="Oval-140" fill="url(#radialGradient-4)" cx="2.11614991" cy="2.18012422" rx="2.11614991" ry="2.18012422"></ellipse>
                    <ellipse id="Oval-17" fill="url(#radialGradient-5)" cx="10.8452683" cy="13.3532609" rx="3.96778109" ry="4.08773293"></ellipse>
                </g>
            </g>
        </g>
    </g>
</svg>